<svg class="instagram-icon" x="0px" y="0px" width="43.6px" height="43.1px" viewBox="-282.6 1124.3 43.6 43.1" enable-background="new -282.6 1124.3 43.6 43.1">
  <path fill="#FFFFFF" d="M-265.4,1166.8c-0.1-0.2-0.2-0.3-0.4-0.3c-0.4,0-1,0-1.4,0.1c-0.3,0-0.7,0-0.9-0.1s-0.3-0.1-0.6-0.1
  c-0.4,0-0.9,0-1.3-0.1c-0.1,0-0.2,0-0.3,0c-0.2,0-0.6,0-0.8-0.1c-0.1,0-0.1,0-0.2,0c-0.3,0.1-0.6,0-0.9-0.1c-0.3-0.1-0.6-0.1-0.9,0
  c-0.2,0.1-0.6,0.1-0.8,0c-0.1,0-0.1,0-0.2,0c-0.2,0.1-0.6,0.1-0.8,0c-0.6-0.1-1-0.2-1.6-0.6c-0.1,0-0.2-0.1-0.2,0
  c-0.2,0-0.4,0-0.7-0.2c-0.1-0.1-0.2-0.1-0.3-0.1c-0.3-0.1-0.7-0.2-0.9-0.4c-0.1,0-0.1-0.1-0.2-0.1c-0.4-0.1-0.8-0.6-1.2-0.8
  c-0.3-0.2-0.6-0.6-0.8-0.9c-0.2-0.4-0.4-0.8-0.7-1.2c-0.1-0.1-0.1-0.4-0.2-0.8c0-0.3-0.1-0.8-0.2-1.1c-0.1-0.2,0-0.4-0.1-0.7
  c-0.1-0.6,0-1.1,0-1.7c0-0.4,0-0.9-0.1-1.3c0-0.1,0-0.2-0.1-0.2c-0.1-0.1-0.1-0.2,0-0.3c0.1-0.2,0.1-0.3,0-0.6c0-0.1,0-0.1,0-0.2
  c0-0.1,0.1-0.2,0.1-0.3c0-0.4-0.1-0.9-0.1-1.3c0-0.1,0-0.2,0-0.3c0.1-0.1,0.1-0.3,0.1-0.4c0-0.4,0-1,0.1-1.4c0-0.1,0-0.3,0-0.4
  c-0.1-0.7,0-1.3,0-2c0-0.2,0-0.4,0-0.6c0-0.7,0-1.3,0-2c0-0.9,0-1.8,0-2.7c0-0.1,0-0.2,0-0.4c0-0.6-0.1-1.1,0-1.6
  c0-0.2-0.1-0.4-0.2-0.7c0.2-0.7,0.2-1.3,0.1-2.1c0-0.2,0-0.4,0-0.7c0.1-0.2,0.1-0.3,0.1-0.6s0.1-0.7,0.1-0.9c0.1-0.3,0-0.8-0.1-1.1
  c0-0.1-0.1-0.1-0.2-0.1c0-0.2-0.1-0.1-0.2-0.1c0,0-0.1,0-0.2,0v-0.2l0.1-0.1c0.1-0.1,0.3-0.2,0.4-0.3c0.2-0.1,0.2-0.2,0.2-0.3
  c0-0.2,0.1-0.4,0.1-0.7c0-0.2,0.1-0.4,0.1-0.6c0.1-0.2,0.1-0.6,0-0.8c0.1-0.2,0.2-0.4,0.3-0.8c0.1-0.2,0.1-0.6,0.2-0.8
  c0-0.1,0-0.2,0.1-0.3c0-0.1,0-0.2,0.1-0.3c0.2-0.2,0.3-0.6,0.4-1c0.2-0.6,0.6-1.1,1-1.4c0.3-0.3,0.7-0.8,1-1.1c0.4-0.6,1-1,1.7-1.2
  c0.7-0.2,1.3-0.3,1.9-0.4c0.4-0.1,0.9-0.1,1.3-0.2c0.9,0,1.8-0.1,2.7-0.1c0.4,0,0.9,0,1.3-0.1h0.1c0.4-0.1,0.4-0.1,1,0
  c0.2,0,0.6,0,0.8,0c0.8,0,1.6,0,2.3,0c0.1,0,0.2,0,0.3,0c0.2,0,0.6,0,0.8,0c0.2,0,0.6,0,0.8,0c0.3,0,0.7,0,1-0.2
  c0.3,0.2,0.7,0.2,1,0.2c0.8,0,1.4,0,2.2,0.1c0.1,0,0.2,0,0.4,0c0.3,0,0.7-0.1,1,0.1c0.4,0,0.9,0,1.3,0c0.1,0,0.2,0,0.2-0.1
  c0.2-0.1,0.6-0.2,0.9-0.1c0.8,0.1,1.7,0.1,2.4,0.2c0.2,0,0.4,0,0.8,0c0.1,0,0.3,0,0.4,0c0.3,0.1,0.7,0,1,0c0.2,0,0.4-0.1,0.8-0.1
  c0.3,0,0.8,0,1.1-0.1c0.4,0,0.9,0,1.3,0.1c0.2,0.1,0.4,0.1,0.7,0.1c0.1,0,0.3,0.1,0.4,0.1c0.2,0.1,0.4,0.1,0.7,0.1
  c0.6,0,1,0.2,1.4,0.4c0.7,0.3,1.2,0.7,1.8,1.1c0.3,0.2,0.6,0.6,0.9,0.8c0.2,0.2,0.4,0.4,0.6,0.7c0.3,0.3,0.6,0.8,0.8,1.1
  c0.2,0.6,0.6,1.2,0.8,1.8c0.1,0.3,0.1,0.4,0.1,0.6s0,0.4,0.1,0.7c0.1,0.2,0.2,0.3,0.2,0.6c0,0.2,0.1,0.3,0,0.6c0,0.2,0,0.4,0,0.6
  c0.1,0.1,0.2,0.1,0.3,0.2c-0.2,0.6-0.2,0.7-0.2,1.3c0,0.9,0,1.9,0,2.8c0,0.1,0,0.1,0,0.2c0.1,0.6,0,1.2,0,1.8c0,0.1,0,0.3,0,0.4
  c-0.1,0.7-0.2,1.2-0.2,1.9c0,0.2,0,0.4,0,0.8c0,0.6,0,1.1-0.2,1.6c-0.1,0.4-0.2,0.9-0.1,1.3c0.1,0.4,0,0.9,0,1.3
  c0,0.2,0,0.4,0.1,0.7c0.1,0.4,0.1,1,0.1,1.4c0,0.4-0.1,0.8-0.1,1.2c0,0.1,0,0.3,0,0.4s0,0.2,0,0.2c-0.2,0.8-0.2,1.6-0.3,2.3
  c-0.1,0.3,0,0.7-0.1,1.1c0,0.8,0,1.6-0.1,2.2c0,0.4-0.1,0.9-0.2,1.2c0,0.1-0.1,0.2-0.1,0.3c0,0.6-0.1,1-0.1,1.6v0.1
  c-0.2,0.3-0.1,0.8-0.2,1.1c0,0.1,0,0.2,0,0.4c0,0.1,0,0.2,0.1,0.4c-0.2,0.2-0.4,0.4-0.3,0.8c-0.1,0.1-0.1,0.1-0.2,0.2
  c-0.3,0.2-0.6,0.6-0.8,0.9c-0.1,0.1-0.1,0.2-0.2,0.3c-0.2,0.3-0.4,0.6-0.8,0.8c-0.1,0.1-0.3,0.2-0.3,0.3c-0.1,0.1-0.2,0.2-0.3,0.3
  c-0.1,0-0.2,0.1-0.3,0.1c-0.2,0.2-0.6,0.3-0.9,0.4c-0.3,0.1-0.4,0.3-0.7,0.6c-0.2,0-0.3,0.1-0.6,0.1c-0.1,0-0.2,0-0.2,0.1
  c-0.2,0.2-0.4,0.2-0.8,0.2c-0.2,0-0.3,0.1-0.6,0.1c-0.6,0-1,0.1-1.6,0.1c-0.1,0-0.3,0-0.4,0c-0.3,0-0.7-0.1-1-0.1
  c-0.2,0-0.4,0-0.8,0c-0.1,0-0.3,0-0.4,0c-0.2,0-0.4-0.1-0.7-0.1c-0.2-0.1-0.6-0.1-0.8,0c-0.3,0.1-0.8,0.1-1.1,0s-0.7-0.2-1-0.2
  c-0.1,0-0.2,0-0.2,0c-0.3,0.1-0.7,0-0.9-0.1c-0.4,0.1-0.8,0.1-1.2,0.1c-0.3,0-0.7,0-1.1,0c-0.3,0-0.7,0-1,0c-0.2,0-0.6,0-0.8,0.1
  c-0.2,0-0.4,0-0.7,0c-0.1,0-0.2,0-0.4,0c-0.8,0.1-1.6,0-2.3,0c-0.4,0-0.9,0.1-1.3,0.1C-265.3,1166.8-265.3,1166.8-265.4,1166.8
  L-265.4,1166.8z M-266.8,1155.6L-266.8,1155.6L-266.8,1155.6L-266.8,1155.6z M-267.2,1152.6L-267.2,1152.6c0,0.1-0.1,0.1-0.1,0.2
  c-0.1,0-0.2,0-0.2,0c-0.2,0.2-0.6,0.4-0.8,0.8c0,0,0,0.1,0.1,0.1c0.3-0.2,0.6-0.6,0.9-0.8C-267.3,1152.9-267.3,1152.8-267.2,1152.6
  C-267.3,1152.7-267.3,1152.6-267.2,1152.6z M-254.7,1127.9l0.1-0.1l0,0l0,0C-254.6,1127.8-254.6,1127.8-254.7,1127.9
  C-254.5,1127.8-254.7,1127.9-254.7,1127.9c0,0.1,0,0.1-0.1,0.1l0,0C-254.8,1128-254.8,1128-254.7,1127.9z M-242.3,1163.4
  L-242.3,1163.4L-242.3,1163.4L-242.3,1163.4z M-272,1135.4L-272,1135.4L-272,1135.4L-272,1135.4z M-251.9,1150.3
  c0,0.1-0.1,0.1-0.1,0.2c-0.3,0.1-0.3,0.1-0.4,0.4c0.2-0.1,0.3-0.3,0.4-0.4C-252,1150.4-252,1150.4-251.9,1150.3L-251.9,1150.3z
   M-244.5,1163.7L-244.5,1163.7L-244.5,1163.7L-244.5,1163.7L-244.5,1163.7z M-258.8,1127.7L-258.8,1127.7c0-0.1,0.1-0.1,0.1-0.1
  c0.1,0,0.2,0,0.3-0.1c0.3-0.2,0.7-0.4,0.9-0.7c0.7-0.6,1.3-1,2.1-1.4c0.1,0,0.2-0.1,0.2-0.2c0.1,0,0.1-0.1,0-0.2
  c-0.2-0.1-0.4,0-0.6,0.1c-0.7,0.6-1.3,1-2,1.6c-0.2,0.1-0.4,0.3-0.6,0.6c-0.1,0.1-0.1,0.2-0.1,0.3
  C-258.6,1127.6-258.7,1127.6-258.8,1127.7C-258.8,1127.6-258.8,1127.7-258.8,1127.7z M-243.1,1164l-0.1,0.1c-0.1,0-0.1,0.1-0.2,0.1
  c0,0.1-0.1,0.1-0.1,0.2c-0.1,0-0.3,0.1-0.4,0.2l0,0l0,0c0.1,0,0.2-0.1,0.4-0.2c0-0.1,0.1-0.1,0.1-0.2c0.1,0,0.1-0.1,0.2-0.1
  C-243.2,1164.2-243.2,1164.2-243.1,1164C-243,1164-243,1163.9-243.1,1164c0.2-0.1,0.2-0.1,0.3-0.1l0,0c0,0,0-0.1-0.1,0l-0.1,0.1
  C-243,1163.9-243.1,1164-243.1,1164z M-264.4,1133.2L-264.4,1133.2L-264.4,1133.2L-264.4,1133.2L-264.4,1133.2z M-256.5,1136.5
  L-256.5,1136.5L-256.5,1136.5c0.1,0,0.1,0,0.2,0l0.1,0.1h0.1v-0.1l-0.1-0.1c-0.1,0-0.1,0-0.2,0
  C-256.4,1136.5-256.5,1136.5-256.5,1136.5z M-255.7,1164.5L-255.7,1164.5L-255.7,1164.5L-255.7,1164.5z M-249.2,1140.9
  L-249.2,1140.9L-249.2,1140.9L-249.2,1140.9z M-248.7,1140.6L-248.7,1140.6L-248.7,1140.6L-248.7,1140.6L-248.7,1140.6z
   M-280.7,1158.9L-280.7,1158.9L-280.7,1158.9L-280.7,1158.9z M-281,1157.8L-281,1157.8L-281,1157.8c0,0.1,0,0.1-0.1,0.2l0,0
  C-281,1157.9-281,1157.9-281,1157.8z M-281.2,1159.4L-281.2,1159.4L-281.2,1159.4L-281.2,1159.4z M-276.2,1129.6L-276.2,1129.6
  l0.1-0.1c0.1,0,0.1,0,0.2-0.1v-0.1c0,0,0,0-0.1,0c0,0.1,0,0.1-0.1,0.2L-276.2,1129.6z M-274.4,1128.4L-274.4,1128.4L-274.4,1128.4
  L-274.4,1128.4L-274.4,1128.4z M-241,1147.7L-241,1147.7L-241,1147.7c0,0.1,0,0.1-0.1,0.2l0,0C-241,1147.8-241,1147.8-241,1147.7z
   M-275,1134.3c0-0.1,0.1-0.1,0.1-0.2h0.1c0.4,0,0.8-0.2,1.1-0.6v-0.1h-0.1c-0.4,0.1-0.8,0.4-1.1,0.8
  C-274.9,1134.2-275,1134.3-275,1134.3c0,0.1-0.1,0.1-0.1,0.1h-0.1c-0.2,0-0.3,0.1-0.3,0.4h-0.1c0,0,0,0,0.1,0c0.2,0,0.3-0.2,0.4-0.4
  C-275.1,1134.4-275.1,1134.4-275,1134.3z M-250.3,1163.5L-250.3,1163.5L-250.3,1163.5L-250.3,1163.5z M-240.7,1143.7
  c0-0.1,0.1-0.1,0.1-0.2l0,0l0,0C-240.5,1143.7-240.7,1143.7-240.7,1143.7L-240.7,1143.7z M-273.8,1127.8L-273.8,1127.8
  L-273.8,1127.8L-273.8,1127.8z M-246,1163.6L-246,1163.6c-0.2,0.1-0.3,0.1-0.4,0.2c-0.1,0.1-0.2,0.2-0.3,0.3
  c-0.3,0.2-0.6,0.4-0.9,0.7c-0.1,0.1-0.3,0.2-0.4,0.3c-0.4,0.3-0.9,0.6-1.3,1c-0.2,0.1-0.3,0.1-0.3,0.1c-0.1,0.1-0.2,0.1-0.3,0.2v0.1
  l0.1,0.1c0.2-0.1,0.6-0.2,0.8-0.4c0.1-0.1,0.3-0.2,0.4-0.3c0.3-0.3,0.7-0.6,1-0.8c0.1-0.1,0.2-0.2,0.3-0.3c0.2-0.2,0.4-0.4,0.8-0.7
  C-246.3,1164-246.1,1163.9-246,1163.6C-246.1,1163.7-246.1,1163.6-246,1163.6c0.1,0,0.2,0,0.3-0.1c0.1-0.1,0.2-0.3,0.3-0.4
  c0.2,0,0.3-0.1,0.4-0.2v-0.1l0,0c-0.1,0.1-0.2,0.2-0.2,0.4c-0.2,0-0.3,0.2-0.3,0.4C-245.8,1163.5-246,1163.5-246,1163.6z
   M-263.1,1128.2c0-0.1,0.1-0.1,0.1-0.2c0.1,0,0.2-0.1,0.3-0.1s0.3-0.1,0.3-0.2c0,0,0,0,0-0.1h-0.1c-0.1,0.1-0.2,0.1-0.2,0.3
  c-0.1,0-0.2,0.1-0.3,0.1C-263,1128-263,1128-263.1,1128.2c-0.1,0-0.2,0.1-0.2,0.1c-0.2,0-0.3,0.1-0.4,0.2c-0.1,0.1-0.2,0.2-0.4,0.2
  c-0.3,0.1-0.7,0.3-0.9,0.7c-0.2,0.2-0.4,0.3-0.7,0.4c-0.3,0.2-0.8,0.4-1.1,0.8c-0.2,0.1-0.4,0.3-0.8,0.3c-0.2,0.1-0.4,0.2-0.7,0.4
  c-0.2,0.1-0.3,0.3-0.6,0.4c-0.3,0.1-0.3,0.2-0.6,0.3c-0.1,0-0.1,0.1-0.1,0.1c-0.8,0.2-1.4,0.7-2.2,1c-0.1,0-0.2,0.1-0.3,0.2
  c-0.6,0.3-1,0.7-1.7,0.8c0,0.1-0.1,0.1-0.2,0.2c-0.1,0-0.2,0.1-0.3,0.2c-0.2,0-0.4,0.2-0.7,0.3c-0.1,0.1-0.3,0.1-0.4,0.2
  c-0.4,0.1-0.7,0.4-1.1,0.6c-0.1,0-0.1,0.1-0.1,0.1c-0.2,0.2-0.4,0.3-0.7,0.6v0.1l0.1,0.1c0.2-0.1,0.4-0.2,0.7-0.2l0,0
  c-0.1,0.1-0.1,0.2-0.2,0.3v0.1c0.2-0.1,0.6-0.1,0.7-0.3c0.2-0.2,0.4-0.4,0.7-0.6c0.6-0.3,1.1-0.7,1.7-1.1c0.2-0.1,0.3-0.2,0.6-0.3
  c0.3-0.1,0.4-0.2,0.6-0.3c0.3-0.2,0.6-0.4,0.9-0.6c0.3-0.2,0.6-0.2,0.8-0.6c0.1-0.1,0.2-0.1,0.3-0.2c0.3-0.2,0.7-0.3,0.9-0.6
  c0.3-0.1,0.7-0.3,1-0.6c0.2-0.1,0.3-0.2,0.6-0.2c0.2,0,0.3-0.1,0.4-0.3c0.1-0.1,0.2-0.1,0.3-0.1c0.2-0.1,0.3-0.2,0.4-0.4
  c0-0.1,0.1-0.1,0.1-0.2c0.1,0,0.1,0,0.2,0c0.6-0.2,1.1-0.4,1.6-0.9c0.2-0.2,0.4-0.3,0.8-0.4c0.4-0.2,0.9-0.4,1.1-1
  C-263.3,1128.3-263.2,1128.2-263.1,1128.2z M-244.8,1137.4L-244.8,1137.4L-244.8,1137.4L-244.8,1137.4L-244.8,1137.4z M-281,1146.6
  l0.1-0.1h0.1c0.2-0.1,0.4-0.2,0.6-0.4v-0.1h-0.1c-0.2,0.1-0.6,0.3-0.6,0.7C-280.9,1146.5-280.9,1146.5-281,1146.6L-281,1146.6
  C-281,1146.6-281.1,1146.6-281,1146.6L-281,1146.6z M-251.5,1144.9L-251.5,1144.9L-251.5,1144.9
  C-251.4,1144.9-251.4,1144.8-251.5,1144.9C-251.4,1144.8-251.4,1144.9-251.5,1144.9z M-276.5,1132L-276.5,1132L-276.5,1132
  C-276.4,1132-276.5,1131.9-276.5,1132z M-248.8,1164.3L-248.8,1164.3L-248.8,1164.3C-248.8,1164.3-248.8,1164.4-248.8,1164.3
  L-248.8,1164.3z M-268.9,1136L-268.9,1136L-268.9,1136C-269,1136-269,1136-268.9,1136C-269,1136-268.9,1136-268.9,1136z
   M-255.1,1136.6L-255.1,1136.6L-255.1,1136.6C-255.1,1136.6-255,1136.6-255.1,1136.6C-255,1136.6-255,1136.6-255.1,1136.6
  C-255,1136.6-255,1136.6-255.1,1136.6z M-269,1125L-269,1125c0,0.1-0.1,0.1-0.2,0.1c-0.7,0.2-1.1,0.7-1.7,1.1c0,0,0,0,0,0.1
  c0,0,0.1,0.1,0.1,0c0.4-0.3,0.9-0.6,1.3-0.9c0.1-0.1,0.1-0.2,0.2-0.2C-269.1,1125.2-269,1125.2-269,1125z M-278.4,1132L-278.4,1132
  L-278.4,1132c-0.1,0-0.2,0-0.3,0.1c0,0.1-0.1,0.1-0.1,0.2c-0.1,0-0.1,0-0.2,0.1c-0.3,0.1-0.7,0.3-0.9,0.7c-0.1,0-0.1,0.1-0.2,0.2
  h-0.1l0,0l0,0c0,0,0.1,0,0.1-0.1c0.6-0.2,0.9-0.6,1.2-1c0,0,0,0,0-0.1c0-0.1,0.1-0.1,0.1-0.2C-278.7,1132.2-278.5,1132-278.4,1132z
   M-268.8,1132.4L-268.8,1132.4L-268.8,1132.4L-268.8,1132.4C-268.7,1132.4-268.7,1132.4-268.8,1132.4
  C-268.7,1132.4-268.8,1132.4-268.8,1132.4z M-254.3,1163.7L-254.3,1163.7C-254.3,1163.7-254.3,1163.6-254.3,1163.7L-254.3,1163.7
  L-254.3,1163.7L-254.3,1163.7z M-250.3,1140.8l0.1-0.1c0.1,0,0.1,0,0.2,0c0.2-0.2,0.6-0.4,0.8-0.7c0.1-0.1,0.3-0.3,0.4-0.4
  c0.1-0.1,0.3-0.2,0.4-0.4c0.6-0.6,1-1,1.7-1.4l0.1-0.1v-0.1l-0.1-0.1c-0.1,0-0.2,0-0.2,0.1c-0.4,0.4-0.9,0.8-1.3,1.2
  c-0.3,0.3-0.7,0.7-1,1c-0.2,0.2-0.6,0.4-0.8,0.8c0,0.1-0.1,0.1-0.1,0.2C-250.1,1140.7-250.2,1140.8-250.3,1140.8
  c-0.1,0.1-0.2,0.1-0.2,0.3c-0.1,0-0.2,0-0.3,0.1c-0.1,0.1-0.2,0.3-0.4,0.4c-0.2,0.2-0.6,0.3-0.8,0.4c0,0.1-0.1,0.1-0.1,0.1
  c-0.1,0.2-0.2,0.4-0.6,0.4c-0.1,0-0.1,0-0.2,0s-0.1-0.1-0.2-0.1c0.1-0.2,0.3-0.3,0.6-0.6c0.1-0.1,0.2-0.1,0.3-0.2
  c0.2-0.3,0.6-0.6,0.8-0.8c0.1-0.1,0.1-0.1,0.2-0.2c0.2-0.2,0.3-0.4,0.6-0.7c0.3-0.3,0.4-0.6,0.8-0.7c0.2-0.1,0.4-0.3,0.7-0.6
  c0.2-0.2,0.4-0.4,0.7-0.7c0.2-0.1,0.4-0.3,0.6-0.6c0.1-0.1,0.1-0.1,0.1-0.2c0,0,0-0.1-0.1-0.1c-0.1-0.1-0.2,0-0.3,0
  c-0.2,0.2-0.4,0.4-0.6,0.7c-0.7,0.7-1.2,1.3-1.9,1.9c-0.4,0.4-1,0.8-1.4,1.3l-0.1,0.1c-0.6,0.4-0.9,0.9-1.4,1.3c0.1,0.1,0,0.2,0,0.4
  c0,0,0,0.1,0.1,0.1s0.1,0,0.2-0.1c0.2-0.2,0.4-0.4,0.7-0.6c0.1,0,0.1,0.1,0.2,0.1c-0.1,0.4-0.4,0.7-0.7,1l-0.1,0.1
  c-0.1,0.1-0.1,0.1-0.2,0.2c-0.1,0.6,0,1.1,0,1.7c0,0,0,0.1,0.1,0.1c0.1-0.1,0.2-0.1,0.4-0.2c0-0.1,0-0.3,0.1-0.4
  c0-0.1,0.1-0.2,0.3-0.2c0.1,0,0.2,0,0.2,0c0.1-0.1,0.2-0.2,0.3-0.2l0,0l0,0h-0.1c-0.1-0.1-0.2-0.1-0.3-0.1c-0.1,0-0.2,0-0.3,0
  c-0.1-0.1-0.2-0.2-0.4-0.3c0.1-0.1,0.3-0.3,0.4-0.4c0.3-0.3,0.6-0.7,0.9-1c0.3-0.3,0.7-0.7,1.1-1c0.2-0.2,0.4-0.4,0.6-0.7
  C-250.4,1141-250.3,1140.9-250.3,1140.8z M-252.1,1144.3L-252.1,1144.3L-252.1,1144.3c0.1,0,0.2-0.1,0.2-0.2h0.1
  c0.2,0,0.2,0,0.2-0.2c0-0.1,0-0.2,0.1-0.3c0-0.1,0.1-0.1,0.1-0.2l0,0h-0.1c-0.1,0.2-0.3,0.4-0.4,0.7v0.1
  C-251.9,1144.2-252,1144.2-252.1,1144.3z M-246.5,1128.2L-246.5,1128.2c-0.4,0.2-0.7,0.3-1,0.5l-0.1,0.1c-0.1,0-0.1,0-0.2-0.1
  l-0.1-0.1c-0.1,0-0.2,0-0.4,0c-0.1,0.1-0.2,0.3-0.4,0.3c-0.1,0-0.2-0.1-0.4-0.1l0,0c0.1-0.1,0.2-0.1,0.4-0.2c0,0,0-0.1,0-0.2h-0.3
  c-0.3,0.2-0.6,0.2-0.9,0.6c0,0-0.1,0.1-0.2,0.1c-0.1,0-0.2,0-0.3-0.1c-0.1-0.1,0-0.3-0.2-0.3c-0.2,0.2-0.4,0.4-0.7,0.7
  c0,0,0,0,0,0.1v0.1l0,0c0.1,0,0.3-0.1,0.4-0.1l0,0c0.1,0.2,0.2,0.2,0.4,0.2c0.6-0.1,1.1-0.2,1.7-0.2c0.2,0,0.3-0.1,0.4-0.3
  c0-0.1,0.2-0.1,0.2,0c0.1,0,0.1,0.1,0.2,0.2c0.1,0.1,0.3,0.1,0.4,0c0.2,0,0.2-0.2,0.3-0.3c0,0.2,0.1,0.4,0.4,0.4
  c0.2,0,0.3-0.1,0.6-0.1c0.2,0.1,0.4,0.1,0.6,0.2c0.2-0.1,0.3-0.1,0.4-0.2c0.1,0,0.1,0,0.2,0c0,0.1,0.1,0.1,0.1,0.2
  c0.1,0,0.3,0,0.4,0c0.2-0.1,0.3-0.2,0.4-0.3c0.1-0.2,0.2-0.4,0.4-0.7c0.1-0.2,0.3-0.3,0.4-0.4c0,0,0-0.1,0-0.2c-0.1,0-0.1,0-0.2,0
  c-0.2,0.1-0.3,0.2-0.4,0.3c-0.2,0.2-0.3,0.3-0.4,0.4c-0.1,0.2-0.3,0.2-0.6,0.1l0,0c0.1-0.1,0.2-0.2,0.3-0.3v-0.1h-0.1
  c-0.2,0-0.4,0.2-0.6,0.3c-0.2,0.1-0.2,0.3-0.1,0.4c0,0.1,0,0.2,0.1,0.2c-0.1-0.1-0.1-0.1-0.2-0.2c-0.2-0.2-0.2-0.2,0-0.6
  c0.1-0.2,0.3-0.4,0.4-0.7c0,0,0-0.1,0-0.2c-0.3,0.1-0.6,0.3-0.8,0.6c-0.1,0.1-0.2,0.2-0.3,0.2c-0.2,0.1-0.6,0.3-0.7,0.6
  c-0.2,0-0.2-0.1-0.3-0.2c0-0.2,0.1-0.3,0.2-0.6C-246.7,1128.3-246.7,1128.3-246.5,1128.2L-246.5,1128.2
  C-246.4,1128.1-246.4,1128.1-246.5,1128.2L-246.5,1128.2L-246.5,1128.2z M-253,1126.5C-253,1126.5-253.1,1126.6-253,1126.5
  C-252.9,1126.6-253,1126.5-253,1126.5L-253,1126.5z M-269.1,1151.9c-0.1,0.1-0.1,0.2-0.1,0.3c-0.1,0-0.2,0-0.2,0s-0.1,0-0.1,0.1
  c0,0,0,0.1,0,0.2h0.1c0.1-0.1,0.1-0.1,0.2-0.2C-269.2,1152.2-269.1,1152-269.1,1151.9L-269.1,1151.9c0.1-0.1,0.1-0.1,0.1-0.1
  S-269.1,1151.8-269.1,1151.9C-269.1,1151.8-269.1,1151.9-269.1,1151.9z M-262.5,1164.5L-262.5,1164.5
  C-262.4,1164.5-262.4,1164.4-262.5,1164.5c0.1-0.1,0.1-0.1,0.1-0.1l0,0C-262.4,1164.4-262.4,1164.4-262.5,1164.5z M-263.1,1163.9
  c0-0.1,0-0.1,0-0.2c0.1-0.1,0.3-0.2,0.4-0.2s0-0.2,0-0.2c-0.1-0.1-0.3-0.1-0.3,0c-0.1,0.2-0.2,0.2-0.4,0.3c-0.3,0.1-0.6,0.3-0.9,0.6
  c-0.2,0.2-0.4,0.3-0.7,0.6c-0.4,0.2-0.8,0.6-1.2,0.8c-0.1,0.1-0.3,0.2-0.4,0.3c0,0,0,0.1,0,0.2c0.2,0,0.3,0,0.6,0l0,0
  c0.1,0.1,0.1,0.1,0.2,0.2c0.4,0.2,0.9,0.2,1.3,0c0.1,0,0.1-0.1,0.2-0.1c0.1-0.1,0.2-0.3,0.4-0.4c0,0,0,0,0-0.1l-0.1-0.1
  c-0.1,0-0.3,0-0.4,0.1c-0.1,0.1-0.3,0.1-0.4,0.2c-0.1,0-0.2,0-0.2,0c-0.1,0-0.1-0.1,0-0.2v-0.1c0.1-0.2,0.1-0.3,0.3-0.2
  c0.1,0,0.2,0,0.4,0.1c0.1,0,0.2-0.1,0.2-0.2s0-0.2-0.1-0.3c0.4-0.3,0.8-0.6,1.2-0.9C-263.2,1163.8-263.2,1163.9-263.1,1163.9
  C-263.2,1164-263.2,1164-263.1,1163.9c-0.1,0.1-0.1,0.1-0.1,0.1S-263.2,1164-263.1,1163.9z M-263.3,1157L-263.3,1157L-263.3,1157
  C-263.4,1157-263.4,1157-263.3,1157C-263.4,1157-263.4,1157-263.3,1157z M-277.8,1131.5L-277.8,1131.5
  C-277.8,1131.5-277.7,1131.5-277.8,1131.5L-277.8,1131.5z M-270.5,1149.6L-270.5,1149.6c0.1-0.1,0.2-0.1,0.2-0.2l0,0l0,0
  C-270.4,1149.4-270.5,1149.4-270.5,1149.6z M-242.9,1133.5L-242.9,1133.5L-242.9,1133.5c-0.1,0.1-0.1,0.1-0.1,0.1
  C-242.9,1133.6-242.9,1133.5-242.9,1133.5z M-244.4,1165.6c0-0.1,0.1-0.1,0.1-0.2h0.1c0.2-0.1,0.6-0.2,0.7-0.4v-0.1h-0.1
  C-243.8,1165-244.2,1165.1-244.4,1165.6C-244.3,1165.5-244.4,1165.5-244.4,1165.6c0,0-0.1,0-0.2,0.1l0,0c0,0,0,0.1,0.1,0
  C-244.5,1165.7-244.5,1165.6-244.4,1165.6z M-269.9,1133.8L-269.9,1133.8c0,0-0.1,0-0.1,0.1l0,0l0,0L-269.9,1133.8
  C-269.9,1133.9-269.9,1133.9-269.9,1133.8z M-279.1,1139.9c0.1-0.1,0.2-0.1,0.2-0.3c0.1,0,0.1,0,0.2,0l0,0c0,0,0,0,0-0.1h-0.1
  l-0.1,0.1C-279,1139.7-279.1,1139.7-279.1,1139.9c-0.2,0-0.3,0.1-0.4,0.2c-0.4,0.1-0.9,0.4-1.2,0.8c0,0,0,0,0,0.1c0,0,0,0,0,0.1h0.1
  h0.1c0.3-0.2,0.6-0.4,0.9-0.7c0.1,0,0.1-0.1,0.1-0.2C-279.3,1140.2-279.2,1140-279.1,1139.9z M-278.8,1131.5L-278.8,1131.5
  C-278.9,1131.5-279,1131.6-278.8,1131.5C-278.9,1131.6-278.9,1131.6-278.8,1131.5C-278.8,1131.6-278.8,1131.5-278.8,1131.5
  c0.1,0,0.2-0.1,0.3-0.2l0.1-0.1c0.1,0,0.1,0,0.2,0c0.6-0.4,1-0.8,1.4-1.1c0,0,0,0,0-0.1c0,0,0,0,0-0.1l-0.1-0.1
  c-0.1,0-0.1,0.1-0.2,0.1c-0.2,0.4-0.6,0.7-0.9,0.9c-0.1,0.1-0.2,0.2-0.3,0.3l-0.1,0.1C-278.5,1131.3-278.7,1131.4-278.8,1131.5z
   M-250.3,1128.3L-250.3,1128.3L-250.3,1128.3C-250.3,1128.3-250.2,1128.3-250.3,1128.3C-250.2,1128.3-250.2,1128.3-250.3,1128.3
  L-250.3,1128.3C-250.2,1128.3-250.2,1128.2-250.3,1128.3L-250.3,1128.3z M-250.4,1145.9L-250.4,1145.9L-250.4,1145.9
  c-0.2,0.1-0.1,0.3-0.1,0.4c-0.2,0.2-0.3,0.6-0.7,0.7c-0.2,0.1-0.3,0.3-0.4,0.6c0,0,0,0,0.1,0.1c0.2-0.2,0.6-0.4,0.8-0.7
  c0.1-0.1,0.2-0.3,0.3-0.4c0-0.1,0-0.1-0.1-0.2C-250.4,1146.3-250.4,1146-250.4,1145.9z M-276.4,1127.2L-276.4,1127.2
  c0.3-0.1,0.5-0.3,0.8-0.4c0.2-0.2,0.4-0.3,0.7-0.6l0,0l0,0c-0.1,0-0.2,0-0.2,0c-0.4,0.2-0.8,0.3-1,0.7v0.1
  C-276.3,1127-276.3,1127-276.4,1127.2c-0.1,0-0.2,0.1-0.3,0.2c-0.1,0-0.3,0-0.3,0.1c-0.1,0.2-0.2,0.3-0.4,0.3
  c-0.1,0.1-0.2,0.2-0.3,0.3c-0.6,0.3-1.2,0.8-1.7,1.2c0,0,0,0.1-0.1,0.1c0,0,0,0,0,0.1c0.6-0.3,1-0.7,1.6-1.1
  c0.1-0.1,0.2-0.2,0.2-0.3c0.1,0,0.2,0,0.3-0.1c0.2-0.2,0.4-0.3,0.7-0.6c0,0,0.1-0.1,0.1-0.2
  C-276.7,1127.4-276.5,1127.3-276.4,1127.2z M-272.7,1135.7C-272.5,1135.7-272.5,1135.7-272.7,1135.7c0.1-0.1,0.1-0.1,0.1-0.1
  S-272.5,1135.6-272.7,1135.7C-272.5,1135.7-272.5,1135.7-272.7,1135.7c-0.2,0-0.3,0-0.4,0.1c-0.1,0-0.1,0.1-0.2,0.1
  c-0.4,0.1-0.8,0.4-1.2,0.6c-0.3,0.3-0.8,0.7-1.2,0.8l-0.1,0.1c0,0,0,0,0,0.1l0,0c0.1,0,0.3-0.1,0.4-0.1c0.1,0,0.3-0.1,0.4-0.1
  l0.1-0.1c0.2-0.3,0.6-0.6,1-0.7c0.2-0.1,0.3-0.1,0.6-0.2c0.2-0.1,0.2-0.2,0.2-0.4C-272.8,1135.9-272.8,1135.9-272.7,1135.7z
   M-272.4,1127.5c-0.1,0-0.2,0-0.2,0.1v0.1c0,0,0,0,0.1,0C-272.7,1127.6-272.5,1127.6-272.4,1127.5L-272.4,1127.5
  C-272.3,1127.5-272.3,1127.4-272.4,1127.5L-272.4,1127.5C-272.3,1127.4-272.3,1127.4-272.4,1127.5
  C-272.4,1127.4-272.4,1127.5-272.4,1127.5z M-261,1165.4L-261,1165.4L-261,1165.4c0,0,0.1,0,0.1-0.1l0,0c0,0,0,0,0-0.1h-0.1
  C-261,1165.3-261,1165.3-261,1165.4z M-265.1,1164l-0.1,0.1c-0.1,0-0.2,0-0.3,0l0,0c0.1,0.1,0.1,0.1,0.2,0
  C-265.2,1164.2-265.1,1164-265.1,1164s0.1,0,0.2,0l0,0c0,0,0,0,0-0.1h-0.1C-265,1163.9-265,1163.9-265.1,1164z M-266.9,1140.2
  c-0.1,0-0.2,0-0.3,0.1C-267,1140.2-267,1140.2-266.9,1140.2C-266.9,1140.1-266.8,1140.1-266.9,1140.2
  C-266.8,1139.9-266.8,1140-266.9,1140.2z M-270.5,1148.5c-0.1,0-0.1,0.1-0.2,0.1c0,0-0.1,0.1,0,0.1h0.1
  C-270.7,1148.6-270.7,1148.5-270.5,1148.5c0,0,0.1,0.1,0.2,0.1h0.1c0,0,0-0.1-0.1-0.1C-270.4,1148.4-270.5,1148.5-270.5,1148.5z
   M-252.7,1146L-252.7,1146c-0.1,0.1-0.1,0.1-0.1,0.2l0,0L-252.7,1146L-252.7,1146c0.1,0,0.2-0.1,0.2-0.2l0,0c0,0,0,0-0.1,0
  C-252.7,1145.8-252.7,1145.9-252.7,1146z M-243.9,1163.2L-243.9,1163.2c0.3-0.1,0.4-0.2,0.5-0.3c0.1-0.1,0.1-0.2,0.2-0.2
  c0-0.1,0.1-0.1,0.1-0.2c0.4-0.2,0.7-0.4,0.9-0.8c0.2-0.1,0.2-0.1,0.3-0.3c-0.1,0.1-0.2,0.2-0.3,0.3c-0.4,0.1-0.7,0.4-0.9,0.8
  c0,0.1-0.1,0.1-0.1,0.2C-243.5,1162.8-243.8,1162.9-243.9,1163.2C-243.8,1163-243.9,1163.2-243.9,1163.2c-0.1,0-0.2,0-0.2,0.1v0.1
  h0.1C-244,1163.4-244,1163.3-243.9,1163.2z M-240.8,1139.5l-0.1,0.1c-0.1,0-0.1-0.1-0.2-0.1c0,0-0.1,0-0.1,0.1s0,0.1,0,0.2h0.1
  l0.1-0.1C-240.9,1139.6-240.9,1139.5-240.8,1139.5c0.1-0.1,0.1-0.1,0.3-0.2C-240.7,1139.3-240.7,1139.3-240.8,1139.5z
   M-268.1,1140.9L-268.1,1140.9L-268.1,1140.9c-0.2,0.1-0.3,0.2-0.4,0.3l0,0l0,0C-268.3,1141.3-268.2,1141-268.1,1140.9z
   M-265.8,1164.6L-265.8,1164.6c-0.1,0-0.2,0.1-0.3,0.1v0.1h0.1C-265.9,1164.7-265.8,1164.6-265.8,1164.6z M-266.2,1139.7
  L-266.2,1139.7c0.3-0.1,0.3-0.1,0.3-0.3c-0.1,0-0.1,0.1-0.1,0.1C-266.1,1139.6-266.1,1139.6-266.2,1139.7z M-243.9,1135.8
  C-243.9,1135.8-243.9,1135.7-243.9,1135.8C-243.9,1135.7-243.9,1135.7-243.9,1135.8C-243.9,1135.7-243.9,1135.8-243.9,1135.8
  c-0.1,0.1-0.2,0.1-0.3,0.1c0,0,0,0.1-0.1,0.1c0,0,0,0,0,0.1l0,0C-244,1136-243.9,1135.9-243.9,1135.8z M-277.9,1132.9
  c0.1,0,0.1,0,0.2,0l0,0c0,0,0,0,0-0.1L-277.9,1132.9C-277.8,1132.8-277.8,1132.9-277.9,1132.9c0,0.1-0.1,0.1-0.2,0.2v0.1
  c0,0,0.1,0.1,0.1,0C-277.9,1133.2-277.8,1133-277.9,1132.9z M-261.3,1128.5C-261.4,1128.5-261.4,1128.6-261.3,1128.5
  c-0.2,0.1-0.3,0.1-0.3,0.1c-0.2,0.1-0.4,0.3-0.7,0.6l0,0c0.2,0,0.3-0.1,0.4-0.2c0.1-0.1,0.3-0.3,0.4-0.4
  C-261.4,1128.6-261.4,1128.6-261.3,1128.5c0.2,0,0.4-0.1,0.4-0.4c0.1,0,0.2-0.1,0.3-0.1s0.2-0.1,0.2-0.3c0.1-0.1,0.3-0.1,0.4-0.2
  c0.4-0.3,1.1-0.6,1.6-1c0.1-0.1,0.2-0.1,0.3-0.2c0.4-0.2,0.9-0.4,1.3-0.8c0.2-0.1,0.3-0.2,0.4-0.4c0.1-0.1,0-0.2-0.1-0.2
  c-0.3-0.1-0.7,0-0.9,0.2c-0.3,0.3-0.7,0.6-1.1,0.9c-0.4,0.4-1,0.9-1.6,1.2c-0.2,0.1-0.4,0.3-0.6,0.6c-0.3,0-0.4,0.2-0.6,0.4
  C-261.1,1128.2-261.2,1128.3-261.3,1128.5z M-279.3,1136.6L-279.3,1136.6L-279.3,1136.6c0.1-0.1,0.2-0.1,0.2-0.2v-0.1c0,0,0,0,0-0.1
  h-0.1C-279.3,1136.3-279.3,1136.4-279.3,1136.6z M-261.8,1154.7c0.1-0.1,0.1-0.1,0.2-0.2c0.2,0,0.3-0.2,0.6-0.3v-0.1
  c-0.2,0.1-0.4,0.1-0.6,0.4C-261.7,1154.6-261.8,1154.7-261.8,1154.7c-0.2,0-0.3,0.2-0.6,0.3c0,0,0,0.1-0.1,0.1l0,0l0,0
  c0,0,0,0,0.1-0.1v-0.1C-261.9,1155-261.9,1155-261.8,1154.7z M-254,1135.8c0.1-0.1,0.3-0.1,0.4-0.2c0.1-0.2,0.3-0.3,0.6-0.4
  c0.3-0.1,0.6-0.3,0.8-0.6c0.2-0.2,0.3-0.6,0.2-0.9c0,0,0-0.1-0.1-0.1c-0.1,0-0.1,0-0.2,0l-0.1,0.1c-0.1,0.2-0.2,0.3-0.2,0.6
  c-0.2,0.3-0.6,0.6-0.8,0.9c-0.1,0.1-0.1,0.2-0.1,0.3C-253.9,1135.6-253.9,1135.6-254,1135.8c-0.1,0-0.2,0.1-0.4,0.1l0,0
  c0,0.2,0,0.2,0.2,0.2c0.1,0,0.1-0.1,0.1-0.1l0,0l0,0C-254,1135.9-254,1135.9-254,1135.8z M-256,1138.9c-0.1,0-0.1,0-0.2,0l0,0
  c0,0,0,0,0,0.1h0.1C-256.1,1138.9-256,1138.9-256,1138.9c0.1-0.1,0.3-0.1,0.4-0.1c0,0,0.1,0,0.1-0.1c0,0,0,0,0-0.1l0,0
  C-255.7,1138.6-255.9,1138.7-256,1138.9z M-276.8,1125.6L-276.8,1125.6L-276.8,1125.6c-0.1,0-0.3,0-0.3,0.2v0.1c0,0,0,0,0.1,0
  C-277,1125.9-276.9,1125.8-276.8,1125.6z M-274.2,1138.7L-274.2,1138.7L-274.2,1138.7c-0.2,0-0.3,0-0.6,0.2
  c-0.1,0.1-0.1,0.1-0.2,0.2c-0.3,0.1-0.6,0.2-0.9,0.4v0.1l0.1,0.1c0.3-0.1,0.7-0.2,0.8-0.6c0.2,0,0.3,0,0.4-0.1
  C-274.3,1138.8-274.2,1138.8-274.2,1138.7z M-270.3,1136.7C-270.2,1136.7-270.2,1136.7-270.3,1136.7
  C-270.2,1136.7-270.2,1136.8-270.3,1136.7C-270.2,1136.7-270.2,1136.7-270.3,1136.7c-0.1,0-0.3,0.1-0.4,0.2v0.1
  C-270.4,1137-270.3,1136.9-270.3,1136.7z M-250.9,1165.8L-250.9,1165.8c-0.2,0-0.4,0-0.6,0.2c-0.1,0.1-0.1,0.1-0.2,0.2
  c-0.1,0-0.1,0-0.2,0l0,0c0,0,0,0,0,0.1h0.1l0.1-0.1C-251.3,1166.3-251.1,1166-250.9,1165.8z M-269.7,1141.9L-269.7,1141.9
  L-269.7,1141.9c0.2,0,0.3-0.1,0.6-0.2c0,0,0.1-0.1,0.2-0.2C-269.3,1141.6-269.4,1141.8-269.7,1141.9z M-256.4,1129.7L-256.4,1129.7
  L-256.4,1129.7c-0.1,0-0.1,0-0.2,0.1c-0.2,0-0.3,0.2-0.3,0.4h-0.1c0,0-0.1,0,0,0.1c0,0,0,0,0.1,0c0,0,0-0.1,0.1-0.1
  c0.2,0,0.3-0.1,0.4-0.3C-256.4,1129.8-256.4,1129.8-256.4,1129.7z M-249.3,1127.6c-0.2,0-0.3,0-0.3,0.2v0.1h0.1
  C-249.4,1127.8-249.4,1127.7-249.3,1127.6c0.1,0,0.2-0.1,0.3-0.1l0.1-0.1v-0.1h-0.1C-249.2,1127.2-249.3,1127.4-249.3,1127.6z
   M-279.5,1145C-279.5,1145-279.5,1145.2-279.5,1145C-279.6,1145.2-279.6,1145.2-279.5,1145C-279.5,1145.2-279.5,1145.2-279.5,1145
  L-279.5,1145c0.1,0,0.2,0,0.3-0.1s0.2-0.2,0.3-0.3v-0.1c0,0,0,0-0.1,0C-279.1,1144.7-279.3,1144.8-279.5,1145z M-269.9,1131
  L-269.9,1131c0.2,0,0.3-0.1,0.6-0.2c0,0,0.1-0.1,0-0.2c0,0-0.1-0.1-0.1,0C-269.5,1130.7-269.8,1130.8-269.9,1131z M-246.1,1139.9
  c0,0-0.1-0.1-0.1,0H-246.1c0.1-0.1,0.2-0.2,0.4-0.3c0.1,0,0.1-0.1,0.1-0.2c-0.2,0-0.2,0-0.3,0.1
  C-246,1139.6-246.1,1139.7-246.1,1139.9z M-263.5,1134.5c-0.3,0.1-0.7,0.2-0.8,0.6c-0.3,0-0.7,0.2-0.9,0.4c-0.1,0-0.1,0.1-0.1,0.2
  c-0.6,0.1-1.1,0.4-1.6,0.8c-0.2,0.1-0.3,0.3-0.6,0.4c-0.7,0.3-1.2,0.9-1.8,1.2l0,0c0,0,0,0,0,0.1l0,0c0.2,0,0.4-0.1,0.6-0.2
  c0.2-0.2,0.6-0.3,0.9-0.3c-0.1,0.3-0.6,0.4-0.8,0.7c-0.2,0-0.3,0.2-0.6,0.3c-0.3,0.2-0.6,0.6-0.9,0.8c-0.1,0.1-0.2,0.2-0.2,0.3
  c-0.1,0-0.1,0-0.2,0l0,0l0,0h0.1l0.1-0.1c0.2-0.1,0.4-0.1,0.6-0.3c0.4-0.3,0.9-0.7,1.4-0.9c0.1,0,0.1-0.1,0.2-0.1
  c0.2-0.1,0.4-0.3,0.7-0.4l0.1-0.1c0.1-0.1,0.1-0.3,0-0.4c-0.1-0.1-0.2-0.1-0.3,0s-0.2,0.2-0.4,0.2c0-0.2,0.2-0.3,0.3-0.4
  c0.1-0.1,0.2-0.1,0.3-0.2c0.2-0.2,0.4-0.3,0.8-0.6c0.3-0.2,0.7-0.4,0.9-0.8c0.2,0,0.3-0.1,0.6-0.1c0.1,0,0.2-0.1,0.2-0.2
  c0.1-0.1,0.2-0.2,0.2-0.4C-264,1135-263.8,1134.8-263.5,1134.5c0.1,0,0.2-0.1,0.3-0.1c0.2-0.1,0.3-0.2,0.4-0.4c0.1,0,0.1,0,0.2,0
  c0.3-0.2,0.7-0.3,1-0.6v-0.1c0-0.1-0.1-0.1-0.1-0.1c-0.2,0.1-0.4,0.2-0.7,0.3c-0.2,0.1-0.4,0.2-0.4,0.4
  C-263.1,1134-263.4,1134.2-263.5,1134.5z M-273.1,1135c0.3,0,0.6-0.1,0.8-0.3c0.1-0.1,0.2-0.1,0.2-0.2c0.2-0.1,0.4-0.1,0.7-0.2
  c0.2-0.1,0.4-0.3,0.7-0.6l0.1-0.1c0,0-0.1-0.1-0.2,0c-0.3,0.1-0.7,0.3-1,0.6c0,0.1-0.1,0.2-0.1,0.4
  C-272.4,1134.6-272.8,1134.7-273.1,1135c-0.2,0-0.4,0.1-0.7,0.3c-0.1,0.1-0.1,0.1-0.1,0.3l0,0c0.1,0,0.1,0,0.2,0
  C-273.4,1135.4-273.1,1135.4-273.1,1135z M-278.3,1134.8L-278.3,1134.8L-278.3,1134.8c-0.1,0-0.1,0-0.2,0.1
  c-0.2,0.1-0.4,0.2-0.6,0.3v0.1c0,0,0,0,0.1,0C-278.8,1135.3-278.5,1135.2-278.3,1134.8z M-255,1135.4c0,0.1,0,0.2,0,0.2l0,0h0.1
  v-0.1L-255,1135.4c0.2,0,0.3,0,0.6,0.1c0,0,0.1,0,0.1-0.1v-0.1c0-0.1-0.1-0.2-0.3-0.2C-254.8,1135.2-254.9,1135.3-255,1135.4z
   M-243,1129.5L-243,1129.5L-243,1129.5c0.3,0,0.6-0.2,0.7-0.6c0,0,0-0.1-0.1-0.1h-0.1c0,0.1-0.1,0.1-0.1,0.2
  C-242.8,1129.3-242.9,1129.4-243,1129.5z M-280.5,1154.2l0.1-0.1c0.2,0,0.3,0,0.4-0.1c0.3-0.2,0.7-0.6,0.9-0.8c0-0.4,0-0.4,0-0.7
  c-0.2,0.1-0.2,0.1-0.1,0.2c0.1,0.3,0,0.6-0.3,0.7c-0.3,0.1-0.4,0.3-0.8,0.6c-0.1,0-0.1,0.1-0.1,0.2
  C-280.4,1154-280.4,1154-280.5,1154.2c-0.1,0-0.2,0-0.3,0.1c-0.2,0.1-0.4,0.3-0.6,0.6c0,0,0,0,0,0.1l0,0
  C-281,1154.7-280.8,1154.5-280.5,1154.2z M-265.8,1131L-265.8,1131L-265.8,1131c-0.6,0.2-1,0.7-1.4,1.1c0,0.1-0.1,0.1-0.1,0.2
  c-0.7,0.1-1.2,0.7-1.8,1l-0.1,0.1v0.1c0.1,0,0.2-0.1,0.3-0.1c0.6-0.3,1.1-0.7,1.6-1.1c0-0.1,0.1-0.1,0.1-0.2h0.1
  c0.4-0.2,0.8-0.4,1.1-0.8C-265.9,1131.3-265.8,1131.2-265.8,1131z M-279.4,1158.6c0.3,0.2,0.3,0.2,0.4,0.7c0.1-0.6,0.1-0.6,0-0.9
  C-279.2,1158.4-279.2,1158.4-279.4,1158.6c0,0-0.1,0-0.1,0.1c-0.2,0.1-0.4,0.3-0.7,0.4l-0.1,0.1l0,0v0.1c0,0,0,0,0.1,0
  c0.2-0.1,0.4-0.3,0.7-0.4l0.1-0.1C-279.5,1158.8-279.5,1158.7-279.4,1158.6z M-267,1139C-267,1138.9-267,1138.9-267,1139
  c-0.1-0.1-0.2-0.1-0.2-0.1l0,0c0,0,0,0,0.1,0C-267.1,1138.9-267,1138.9-267,1139c0.2-0.1,0.3-0.2,0.6-0.3c0.2-0.2,0.6-0.3,0.8-0.7
  c0.3,0,0.6-0.2,0.8-0.4c0.8-0.6,1.6-1,2.3-1.7l0.1,0.1c0.1,0.1,0.2,0,0.2-0.1c0.1-0.1,0-0.1-0.1-0.2c0.1-0.1,0.2-0.2,0.4-0.2
  c0.2-0.1,0.4-0.1,0.7-0.3l0,0c0.1-0.1,0.3-0.1,0.3-0.2l0.1-0.1c0.3-0.1,0.6-0.2,0.8-0.4c0.4-0.1,0.6-0.2,0.9-0.3
  c0.1,0,0.2-0.1,0.3-0.2c0.2-0.2,0.4-0.4,0.8-0.6c0.2-0.3,0.4-0.3,0.7-0.6c0.8-0.7,1.7-1.1,2.3-1.9c0,0,0.1,0,0.1-0.1
  c0.2-0.1,0.3-0.2,0.6-0.3c0.2-0.1,0.4-0.2,0.6-0.4s0.3-0.2,0.6-0.3c0.1,0,0.1-0.1,0.1-0.1c0.3-0.3,0.7-0.6,1.1-0.8
  c0.3-0.2,0.7-0.4,0.9-0.8c0.1-0.2,0.3-0.2,0.4-0.3c0.1,0,0.2,0,0.3,0c0.2-0.1,0.3-0.2,0.6-0.3c0.1-0.1,0.2-0.2,0.2-0.3l0.1-0.1
  c0.2,0,0.4,0,0.6-0.2c0.3-0.3,0.6-0.4,0.9-0.6c0.1-0.1,0.2-0.1,0.2-0.2c0.2-0.2,0.4-0.2,0.7-0.2l0,0c-0.2,0.2-0.4,0.3-0.7,0.6
  c-0.3,0.1-0.6,0.4-0.8,0.7l0,0l0,0c0.1,0,0.2,0,0.3-0.1c0.3-0.1,0.6-0.2,0.9-0.4c0,0.1,0.1,0,0.2,0c0.2-0.2,0.4-0.3,0.8-0.6
  c0.1-0.1,0.1-0.1,0.2-0.2c0-0.1,0-0.3-0.1-0.3c-0.3-0.1-0.6-0.2-0.9-0.2c-0.1,0-0.3,0-0.4-0.1c-0.3-0.1-0.7-0.1-1,0
  c-0.3,0.2-0.7,0.3-0.9,0.6c-0.3,0.4-0.8,0.8-1.3,1.1c-0.2,0.1-0.3,0.2-0.4,0.3c-0.2,0.3-0.4,0.4-0.7,0.6c-0.2,0.1-0.3,0.2-0.6,0.4
  s-0.6,0.6-0.9,0.8c-0.2,0.2-0.4,0.3-0.6,0.6c-0.1,0.1-0.2,0.1-0.2,0.2c-0.6,0.2-1,0.6-1.4,0.9c-0.2,0.2-0.6,0.3-0.9,0.7
  c0,0-0.1,0-0.1,0.1c-0.3,0.1-0.6,0.4-0.9,0.7c-0.2,0.2-0.6,0.4-0.8,0.8c-0.1,0.1-0.3,0.3-0.4,0.4c-0.1,0.2-0.3,0.4-0.6,0.6
  c-0.1,0.1-0.2,0.2-0.3,0.3c-0.1,0.2-0.3,0.2-0.4,0.3c0,0.1-0.1,0.1-0.2,0.1c-0.2,0-0.6,0.1-0.7,0.3c-0.6,0.2-0.9,0.6-1.3,0.9
  s-0.8,0.6-1.2,0.9c-0.3,0.2-0.7,0.3-0.9,0.7l-0.1,0.1c-0.3,0.2-0.7,0.7-1.1,0.9c-0.1,0-0.1,0.1-0.1,0.2c-0.2,0-0.4,0-0.6,0.2
  c-0.1,0.1-0.2,0.2-0.4,0.3C-266.9,1138.6-266.9,1138.8-267,1139z M-264,1154.6L-264,1154.6L-264,1154.6c-0.2,0-0.3,0.1-0.4,0.2
  c-0.3,0.3-0.6,0.7-0.9,1c0,0,0,0,0,0.1l0,0c0,0,0,0,0.1,0C-264.9,1155.5-264.4,1155.2-264,1154.6z M-277.4,1135.2
  C-277.4,1135.3-277.4,1135.2-277.4,1135.2c-0.8,0.2-1,0.4-1.3,0.9h0.1c0.1-0.1,0.2-0.1,0.4-0.2
  C-277.9,1135.8-277.7,1135.5-277.4,1135.2z M-279.8,1155.8h0.1c0,0,0.1-0.1,0-0.1C-279.7,1155.7-279.7,1155.7-279.8,1155.8
  C-279.7,1155.8-279.8,1155.8-279.8,1155.8c-0.1,0-0.2,0-0.3,0.1c-0.2,0.1-0.4,0.3-0.7,0.6c-0.1,0.1-0.3,0.3-0.4,0.4c0,0,0,0,0,0.1
  h0.1c0.2-0.1,0.3-0.2,0.6-0.3c0.2-0.2,0.6-0.4,0.8-0.7C-279.8,1155.9-279.8,1155.9-279.8,1155.8z M-266,1125.4l0.1-0.1
  c0.1-0.1,0-0.2-0.1-0.2c0,0-0.1,0-0.1,0.1c-0.2,0-0.3,0-0.6,0.1c-0.3,0.1-0.3,0.3-0.3,0.6c-0.1,0.1-0.1,0.1-0.2,0.2c0,0,0,0,0,0.1
  h0.1c0-0.1,0-0.1,0.1-0.2c0.3,0,0.7-0.1,0.9-0.3C-266,1125.4-266,1125.4-266,1125.4z M-280,1150.4c-0.2,0-0.3,0-0.4,0.1
  c-0.2,0.2-0.4,0.3-0.7,0.6c0,0-0.1,0.1-0.2,0.3C-280.8,1151-280.3,1150.7-280,1150.4c0.2-0.1,0.4-0.3,0.7-0.4
  c0.2-0.1,0.3-0.2,0.6-0.4l0.1-0.1c0,0,0-0.1,0-0.2h-0.1c-0.4,0.1-0.8,0.4-1,0.8C-280,1150.2-280,1150.3-280,1150.4z M-271.8,1125
  c0.1,0,0.2,0,0.3-0.1C-271.5,1124.9-271.7,1125-271.8,1125c-0.4,0.1-0.8,0.4-1.1,0.7c-0.4,0.3-0.9,0.6-1.2,0.9
  c-0.1,0-0.1,0.1-0.1,0.2c-0.3,0-0.6,0.2-0.8,0.3c-0.1,0.2-0.3,0.3-0.6,0.4c-0.2,0.2-0.6,0.4-0.8,0.7c-0.4,0.3-0.9,0.8-1.3,1.1
  l-0.1,0.1v0.1h0.1c0.7-0.4,1.2-0.9,1.8-1.3c0.1-0.1,0.1-0.1,0.2-0.2c0.2-0.2,0.6-0.4,0.8-0.7c0.2-0.1,0.3-0.2,0.6-0.4
  c0,0,0-0.1,0.1-0.2c0.1,0,0.1,0,0.2,0c0.7-0.4,1.3-0.9,2-1.3C-271.9,1125.3-271.8,1125.2-271.8,1125z M-268.4,1126.8
  c0.1,0,0.1,0,0.2-0.1c0,0,0,0,0-0.1h-0.1C-268.3,1126.6-268.4,1126.7-268.4,1126.8c-0.3,0-0.6,0.2-0.8,0.4c-0.3,0.2-0.7,0.4-1,0.3
  c-0.1,0-0.2,0.1-0.1,0.2c0.1,0,0.2,0,0.3,0c0.2,0.1,0.4,0,0.6-0.1c0.2-0.2,0.6-0.3,0.8-0.4C-268.5,1127.2-268.5,1126.9-268.4,1126.8
  z M-279.4,1154.2c0.2,0,0.3-0.1,0.4-0.3c0,0,0,0,0-0.1l0,0C-279.3,1153.8-279.4,1153.9-279.4,1154.2c-0.3,0.1-0.6,0.3-0.9,0.4
  c-0.2,0.2-0.6,0.4-0.8,0.7l-0.1,0.1c0,0,0,0,0,0.1l0,0c0.1,0,0.2-0.1,0.3-0.1c0.1-0.1,0.3-0.2,0.4-0.3
  C-280.1,1154.8-279.8,1154.5-279.4,1154.2z M-246.2,1127.5c0.1,0.1,0.1,0.2,0.2,0.1c0.2-0.1,0.3-0.2,0.4-0.3
  c0.1-0.1,0.3-0.3,0.4-0.4c0.1-0.1,0.1-0.2,0-0.3c-0.1-0.1-0.2-0.1-0.3,0.1c-0.1,0.2-0.2,0.3-0.4,0.6
  C-245.9,1127.2-246,1127.5-246.2,1127.5c0-0.2,0-0.4,0-0.7c0,0,0-0.1-0.1-0.1c-0.1,0-0.3,0.1-0.4,0.1c-0.1,0.1,0,0.2,0,0.3
  c0.1,0.2,0.2,0.2,0.2,0.2C-246.4,1127.4-246.3,1127.5-246.2,1127.5z M-280.7,1144.9c-0.2,0.1-0.4,0.1-0.7,0.2l0,0
  c-0.1,0.1-0.1,0.2-0.1,0.3c0,0.1,0.1,0.1,0.2,0.1C-281,1145.5-280.8,1145.3-280.7,1144.9c0.1-0.1,0.3-0.2,0.4-0.3
  c0.3-0.3,0.8-0.6,1.1-0.8c0.1-0.2,0.1-0.3,0.1-0.6c0.1,0,0.1,0.1,0.2,0c0.1-0.1,0.2-0.1,0.3-0.2s0.2-0.2,0.3-0.4c0,0,0-0.1-0.1-0.2
  h-0.1c-0.3,0.2-0.6,0.4-0.7,0.9c-0.1,0-0.3,0.1-0.4,0.2c-0.2,0.3-0.6,0.6-0.9,0.9C-280.4,1144.5-280.5,1144.7-280.7,1144.9z
   M-240.9,1131.8c-0.1,0-0.2,0-0.3,0c-0.2,0.1-0.3,0.2-0.6,0.3c0,0,0,0,0,0.1l0.1,0.1c0.1,0,0.1,0,0.2,0
  C-241.2,1132.2-241.1,1131.9-240.9,1131.8c0.2-0.2,0.6-0.3,0.8-0.6c0-0.1,0-0.1,0-0.2v-0.1c0-0.1-0.1-0.1-0.2-0.1h-0.1
  c-0.2,0.1-0.3,0.3-0.6,0.4c-0.1,0.1-0.1,0.2,0,0.3C-241,1131.7-241,1131.7-240.9,1131.8z M-249.8,1165.7L-249.8,1165.7
  c0.1,0,0.2,0,0.2,0c0.3-0.1,0.6-0.2,0.9-0.6c0.2-0.2,0.6-0.6,0.9-0.7c0.1,0,0.1-0.1,0.2-0.2c0,0,0,0,0-0.1c0,0-0.1-0.1-0.1,0
  c-0.1,0-0.2,0.1-0.3,0.1c-0.3,0.3-0.7,0.6-1,0.8C-249.3,1165.3-249.5,1165.5-249.8,1165.7z M-266.3,1128.9L-266.3,1128.9
  L-266.3,1128.9c-0.3,0.1-0.6,0.2-0.9,0.4c-0.2,0.2-0.4,0.3-0.7,0.4c-0.4,0.1-0.8,0.3-1.1,0.6l0,0c0.1,0,0.1,0.1,0.2,0
  c0.2,0,0.4-0.1,0.7-0.2c0.1,0,0.3-0.1,0.4-0.2c0.1-0.1,0.3-0.2,0.6-0.4c0.2-0.1,0.4-0.3,0.7-0.4
  C-266.3,1129.2-266.3,1129-266.3,1128.9z M-280.8,1149.4c-0.1,0-0.2,0-0.2,0s-0.1,0-0.1,0.1v0.1h0.1
  C-281,1149.6-280.9,1149.5-280.8,1149.4c0.3-0.2,0.6-0.4,0.9-0.6c0.1-0.2,0.3-0.3,0.4-0.4c0.2-0.2,0.6-0.4,0.8-0.8l0.1-0.1v-0.1
  h-0.1c-0.1,0.1-0.1,0.1-0.2,0.2c-0.2,0.2-0.4,0.4-0.7,0.6c-0.4,0.2-0.7,0.6-1,0.8C-280.8,1149-280.8,1149.2-280.8,1149.4z
   M-273.8,1164.4c-0.1,0-0.2,0-0.3,0.1v0.1c0,0,0,0,0.1,0C-274,1164.5-273.9,1164.5-273.8,1164.4c0.2-0.1,0.4-0.2,0.7-0.3
  c0.6-0.2,1.1-0.6,1.7-0.9l0,0c0.1-0.1,0.1-0.2,0.1-0.2s-0.1-0.1-0.2-0.1c-0.2,0-0.4,0.1-0.7,0.1c-0.1,0.1-0.1,0.2-0.2,0.2
  c-0.3,0.4-0.7,0.7-1,0.9C-273.5,1164.2-273.8,1164.2-273.8,1164.4z M-242.7,1148.7c0-0.2,0.1-0.3,0.3-0.4c0.2-0.2,0.3-0.3,0.6-0.6
  v-0.1h-0.1c-0.3,0.1-0.7,0.3-0.9,0.6c-0.1,0.1-0.2,0.2-0.4,0.2c-0.1,0-0.1,0.1-0.2,0.1c0,0.2,0,0.4-0.1,0.7l0,0
  c0.1,0,0.2-0.1,0.3-0.1c0.1,0,0.2-0.1,0.3-0.1c0,0.2-0.1,0.4-0.3,0.7c-0.1,0.1-0.3,0.3-0.4,0.4c-0.1,0.1-0.1,0.2-0.1,0.3
  s0.1,0.2,0.1,0.1c0.2-0.2,0.6-0.2,0.9-0.1c0,0.1,0,0.2,0.1,0.3c-0.2,0-0.4,0-0.7,0c-0.1,0.1-0.2,0.3-0.3,0.4c0,0.1,0,0.1,0,0.2
  c0,0,0.1,0,0.2,0c0.1,0,0.1-0.1,0.2-0.1c0.1-0.1,0.3-0.3,0.4-0.4c0.3,0,0.6,0,0.7-0.3c0-0.1,0.1-0.1,0.1-0.2
  c0.2-0.3,0.4-0.4,0.8-0.4c-0.1,0.2-0.1,0.4-0.2,0.7c-0.1,0.1-0.2,0.1-0.4,0.2c-0.1,0-0.1,0.1,0,0.1h0.1c0.2-0.1,0.4-0.2,0.7-0.4
  c0.2-0.2,0.2-0.4,0.1-0.7c0.1-0.3,0.3-0.7,0.6-1c0,0,0,0,0-0.1c0-0.1,0-0.1,0-0.2s-0.1-0.1-0.2-0.1c-0.1,0.1-0.3,0.1-0.4,0.2
  c-0.2,0.1-0.3,0.2-0.4,0.4c0,0.1-0.1,0.2-0.2,0.3c-0.2,0.2-0.4,0.3-0.7,0.6c-0.1,0.1-0.2,0.1-0.3,0c0,0,0-0.1-0.1-0.1
  c0-0.1,0.1-0.2,0.1-0.3l0,0c0-0.1-0.1-0.2-0.1-0.2c0.1,0,0.3-0.1,0.4,0c0.1,0,0.2,0,0.2-0.1c0.1-0.1,0.1-0.2,0-0.3
  c-0.1,0-0.2,0.1-0.3,0.1C-242.4,1148.7-242.5,1148.7-242.7,1148.7z M-251.3,1145.6c-0.1,0-0.1,0.1-0.2,0.1c-0.1,0.1-0.1,0.2-0.1,0.3
  c0,0,0,0.1,0.1,0.1h0.1C-251.3,1145.9-251.3,1145.8-251.3,1145.6c0.2,0,0.3-0.2,0.6-0.3c0.1,0,0.1,0,0.1,0c0.2,0.1,0.3,0.1,0.6,0
  c0.1-0.1,0.2-0.2,0.2-0.4c0-0.1,0-0.3-0.2-0.4c-0.1-0.1-0.2,0-0.3,0.1c-0.2,0.1-0.3,0.2-0.4,0.4
  C-250.8,1145.2-251.2,1145.4-251.3,1145.6z M-256.2,1138c0.1,0,0.2,0,0.2-0.1c0.1,0,0.1-0.1,0.1-0.1l0,0c-0.1,0-0.1,0-0.2,0.1
  C-256.2,1137.9-256.2,1138-256.2,1138c-0.1,0-0.2,0-0.3,0c-0.3,0.1-0.6,0.2-0.8,0.3c-0.3,0.1-0.3,0.3-0.4,0.6
  c0.2,0.1,0.3,0.2,0.4,0.3c0.3-0.1,0.6-0.2,0.6-0.6C-256.7,1138.4-256.4,1138.3-256.2,1138z M-267.8,1165.5c-0.1-0.1-0.1-0.2-0.2-0.1
  s-0.3,0.1-0.4,0.2c-0.1,0-0.1,0.1-0.1,0.2c0.4,0.2,0.8,0.1,1.2,0c0.2-0.1,0.4-0.2,0.7-0.3c0.1-0.1,0.2-0.2,0.2-0.3v-0.1
  c-0.1-0.1-0.2-0.1-0.2,0c-0.1,0.1-0.2,0.1-0.3,0.2C-267.2,1165.4-267.4,1165.5-267.8,1165.5L-267.8,1165.5z M-243.2,1152.7
  c0.1,0,0.2,0,0.3-0.1c0,0,0-0.1,0-0.2h-0.1C-243.1,1152.4-243.1,1152.6-243.2,1152.7c-0.2-0.1-0.3-0.3-0.1-0.7
  c0.1-0.1,0.1-0.2,0.2-0.3c0.1,0,0.3,0,0.4-0.1c0.2-0.1,0.3-0.3,0.4-0.4v-0.1c0,0,0,0-0.1,0c-0.1,0-0.2,0-0.3,0.1
  c-0.1,0.1-0.2,0.2-0.3,0.3c-0.1,0.1-0.2,0.1-0.3,0.2c-0.1,0.1-0.3,0-0.4,0.2c0,0.2,0,0.6,0,0.8c0,0.1,0,0.2,0.1,0.3
  c0,0.1,0.1,0.1,0.2,0C-243.3,1153-243.2,1152.8-243.2,1152.7z M-279.1,1157.8L-279.1,1157.8c0-0.1,0.1-0.1,0.1-0.1
  c0.1-0.6,0.1-1.2,0-1.8h-0.1l0,0c0,0.1-0.1,0.1-0.1,0.2h-0.1h0.1l0.1,0.1c0,0.2,0,0.4-0.1,0.7c0,0.1-0.1,0.1-0.1,0.1
  c-0.1,0.1-0.2,0.1-0.2,0.2c-0.1,0.1-0.2,0.1-0.3,0.2c-0.2,0.2-0.4,0.3-0.7,0.6c-0.2,0.1-0.3,0.2-0.6,0.4c0,0,0,0.1,0.1,0.1
  c0.2-0.1,0.4-0.2,0.6-0.3c0.3-0.3,0.8-0.4,1.2-0.6C-279.2,1157.7-279.1,1157.8-279.1,1157.8z M-269.3,1165.7L-269.3,1165.7
  L-269.3,1165.7c0.2,0,0.4-0.1,0.6-0.2c0.6-0.3,1.1-0.7,1.7-1c0.3-0.2,0.7-0.4,1-0.7c0.2-0.1,0.4-0.3,0.7-0.3c0.1,0,0.2-0.1,0.2-0.2
  c0,0,0,0,0-0.1c0,0,0-0.1-0.1-0.1c-0.2,0-0.3-0.1-0.6-0.1c0,0.1-0.1,0.3-0.1,0.4c-0.4,0.2-0.9,0.4-1.3,0.8c-0.1,0-0.1,0.1-0.2,0.1
  c-0.6,0.3-1.1,0.7-1.7,1C-269.2,1165.5-269.3,1165.5-269.3,1165.7z M-258,1133.7c-0.1,0-0.1,0-0.2,0c-0.4,0.3-0.9,0.7-1.2,1.1
  c-0.3,0.1-0.6,0.3-0.9,0.4c-0.3,0.2-0.7,0.4-1,0.7c-0.2,0.1-0.4,0.3-0.7,0.4c-0.4,0.4-0.9,0.7-1.4,1c-0.3,0.2-0.8,0.4-1,0.8
  c0,0-0.1,0.1,0,0.1c0.2-0.1,0.3-0.2,0.6-0.3c0.3-0.1,0.4-0.2,0.6-0.3s0.3-0.2,0.4-0.3c-0.1,0.3-0.2,0.6-0.4,0.8s-0.4,0.4-0.7,0.7
  l0,0l0,0c0.2,0.1,0.4,0,0.6-0.1c0.2-0.2,0.6-0.4,0.9-0.6c0.1-0.1,0.2-0.1,0.3-0.2c0.4-0.3,0.9-0.7,1.3-0.9c0.6-0.3,1-0.8,1.6-1.1
  l0.1-0.1c0.1-0.1,0.1-0.1,0.2-0.2c0.3-0.2,0.6-0.4,0.9-0.7c0.2-0.2,0.6-0.4,0.8-0.7l0.1-0.1c0,0,0-0.1-0.1-0.1s-0.1,0-0.2,0
  c-0.2,0.1-0.3,0.2-0.4,0.3s-0.3,0.2-0.6,0.2c-0.1,0-0.2-0.1-0.3-0.1c0-0.1,0.1-0.2,0.2-0.2C-258.2,1134-258.1,1133.9-258,1133.7
  c0.1-0.1,0.2-0.1,0.3-0.1c0.2-0.1,0.4-0.3,0.7-0.3c0.1,0,0.2-0.1,0.2-0.2c0.2-0.3,0.7-0.6,1-0.8c0.4-0.2,0.8-0.6,1.1-0.9
  c0.1-0.1,0.2-0.2,0.2-0.3c0,0,0-0.1,0-0.2c0,0-0.1,0-0.2,0c-0.2,0.1-0.4,0.3-0.7,0.6c-0.1,0.1-0.1,0.1-0.2,0.2
  c-0.6,0.4-1.1,0.9-1.7,1.2c0,0.1-0.1,0.2-0.2,0.2C-257.8,1133.2-257.9,1133.4-258,1133.7z M-254.8,1127.3c-0.1,0.1-0.2,0.1-0.2,0.1
  v0.1h0.1C-254.9,1127.4-254.9,1127.4-254.8,1127.3c0.2,0,0.4-0.1,0.7-0.3c0.6-0.3,1.1-0.9,1.7-1.2c0.1-0.1,0.2-0.3,0.2-0.4
  c0,0,0-0.1-0.1-0.1c-0.1,0-0.2,0-0.3,0.1c-0.2,0.3-0.4,0.6-0.8,0.7c-0.2,0-0.4,0.2-0.6,0.3c-0.1,0-0.1,0.1-0.2,0.2
  C-254.3,1126.8-254.5,1127-254.8,1127.3C-254.8,1127.2-254.8,1127.3-254.8,1127.3z M-271.2,1137.4L-271.2,1137.4L-271.2,1137.4
  c-0.2,0-0.3,0.1-0.6,0.1c-0.4,0.2-0.9,0.6-1.3,0.8c-0.1,0-0.1,0.1-0.1,0.1c-0.6,0.4-1.1,0.9-1.7,1.2l-0.1,0.1v0.1l0.1,0.1
  c0.1,0,0.1,0,0.2,0c0.4-0.3,1-0.6,1.4-0.9c0.6-0.4,1.1-0.9,1.8-1.2C-271.3,1137.6-271.2,1137.5-271.2,1137.4z M-250.8,1164.3
  c-0.2,0.3-0.6,0.4-0.8,0.8c-0.1,0.1-0.3,0.1-0.6,0.2c-0.2,0.1-0.3,0.3-0.6,0.4c0,0,0,0-0.1,0c-0.2,0.1-0.3,0.3-0.6,0.4l0,0v0.1
  l0.1,0.1c0.3-0.1,0.8-0.2,1.1-0.4c0.2-0.2,0.6-0.3,0.8-0.6c0.2-0.2,0.6-0.4,0.9-0.7c0.3-0.2,0.7-0.6,0.8-1c-0.2,0.1-0.3,0.1-0.3,0.2
  C-250.3,1164.3-250.5,1164.3-250.8,1164.3v-0.1c0-0.1,0-0.1-0.1,0l0,0C-250.8,1164.2-250.8,1164.3-250.8,1164.3z M-240.9,1153.6
  c0.2,0,0.4,0,0.4,0.3c0-0.2,0.1-0.4,0.1-0.7l0,0c0-0.1-0.1-0.2-0.2-0.1c-0.1,0-0.2,0.1-0.2,0.2
  C-240.9,1153.3-240.9,1153.4-240.9,1153.6c-0.4,0.1-0.9,0.1-1.1,0.6c0,0,0,0-0.1,0c-0.2,0.1-0.3,0.2-0.4,0.4
  c-0.1,0.2-0.2,0.4-0.4,0.6c-0.1,0-0.1,0-0.1,0c-0.2-0.1-0.3,0-0.6,0.1c-0.1,0.1-0.1,0.2-0.1,0.3c-0.1,0.1,0,0.3,0.1,0.4
  c0.1,0,0.2,0,0.3,0c0.1,0,0.1-0.1,0.2-0.1c0.4-0.3,0.8-0.7,1-1c0.1-0.1,0.2-0.2,0.3-0.3C-241.5,1154.2-241.2,1153.9-240.9,1153.6z
   M-267.9,1139.5c0.1,0,0.1,0,0.2-0.1v-0.1c0,0,0,0-0.1,0C-267.8,1139.4-267.8,1139.4-267.9,1139.5c-0.2-0.1-0.4,0-0.6,0.1
  c-0.3,0.3-0.7,0.6-1.1,0.7c-0.1,0-0.1,0.1-0.2,0.1c-0.4,0.4-0.9,0.8-1.3,1.1c-0.2,0.1-0.4,0.3-0.6,0.6c-0.1,0.1-0.1,0.2-0.1,0.3
  c0,0,0,0.1,0.1,0.1h0.1c0.1-0.1,0.3-0.2,0.4-0.3c0.2-0.3,0.6-0.6,0.9-0.9c0.2-0.2,0.6-0.4,0.8-0.7c0.3-0.2,0.7-0.4,1-0.7
  C-268.2,1139.8-268,1139.7-267.9,1139.5z M-251.9,1149.3c0.2-0.2,0.6-0.3,0.9-0.6c0.1-0.2,0.2-0.3,0.3-0.4c0.2-0.1,0.3-0.3,0.4-0.6
  c0,0,0-0.1,0-0.2c0,0-0.1,0-0.2,0c-0.3,0.2-0.7,0.4-0.9,0.8c-0.2,0.2-0.4,0.3-0.6,0.6c-0.2,0.4-0.7,0.7-1,1
  c-0.2,0.1-0.4,0.3-0.7,0.4c0,0,0,0.1,0,0.2c0,0,0.1,0.1,0.2,0c0.1,0,0.2-0.1,0.2-0.2c0.2-0.2,0.6-0.4,0.8-0.4
  c0.1-0.1,0.1-0.2,0.2-0.3C-252.1,1149.5-252,1149.4-251.9,1149.3L-251.9,1149.3L-251.9,1149.3z M-256.9,1137.4
  c0-0.2,0.1-0.3,0.1-0.6c-0.1,0-0.1,0-0.2,0c-0.3,0.2-0.7,0.4-1,0.6c-0.3,0.1-0.6,0.3-0.8,0.6c-0.1,0.1-0.2,0.2-0.3,0.3s0,0.2,0,0.2
  c0.2,0.1,0.3,0.2,0.6,0.2c0.1,0,0.2,0,0.2-0.1c0.1-0.1,0.2-0.2,0.3-0.3c0.1-0.1,0.2-0.2,0.3-0.3s0.2-0.1,0.3-0.1
  c0.1-0.1,0.1-0.2,0.2-0.3C-257,1137.5-256.9,1137.5-256.9,1137.4L-256.9,1137.4L-256.9,1137.4z M-241.5,1156.5L-241.5,1156.5
  L-241.5,1156.5c-0.2,0.1-0.4,0.1-0.6,0.3c0.1,0.1,0.1,0.1,0.2,0.1c0.1,0.1,0.1,0.2,0,0.3c-0.3,0.1-0.4,0.4-0.7,0.7
  c-0.1,0.1-0.1,0.2-0.2,0.2c-0.3,0.2-0.6,0.4-0.9,0.6c-0.2,0.1-0.2,0.2-0.2,0.3c0,0.1,0,0.1,0.1,0.2c0,0,0.1,0.1,0.2,0
  c0.2-0.1,0.4-0.2,0.7-0.3c0.1,0.1,0.1,0.3,0.2,0.4c-0.1,0-0.1,0.1-0.1,0.1c-0.2,0.1-0.4,0.2-0.7,0.3c-0.1,0.1-0.2,0.2-0.3,0.3
  c-0.1,0.3-0.2,0.7-0.3,1v0.1c0,0,0,0,0.1,0c0.1-0.1,0.3-0.2,0.4-0.3s0.2-0.2,0.3-0.2c0.4-0.1,0.8-0.6,1.2-0.8c0.1,0,0.1-0.1,0.1-0.1
  c0.2-0.3,0.6-0.6,0.9-0.9c0,0.1,0.1,0.1,0.1,0.2h0.1l0,0c0-0.1,0-0.2-0.1-0.3c-0.8-0.3-0.8-0.3-0.9-0.6c-0.1,0.1-0.1,0.1-0.2,0.2
  c-0.1,0.1-0.2,0.1-0.2,0.2c-0.2,0.1-0.3,0.2-0.6,0.2c-0.1,0-0.2,0-0.3,0c0.2-0.2,0.3-0.3,0.7-0.4c0.3-0.2,0.7-0.3,0.9-0.7
  c0.2-0.2,0.4-0.4,0.8-0.8l0.1-0.1c0,0,0,0,0-0.1l0,0c-0.2,0.1-0.3,0.2-0.6,0.3l0,0C-241.4,1156.9-241.5,1156.8-241.5,1156.5z
   M-268.9,1153.3L-268.9,1153.3L-268.9,1153.3c0.2,0,0.3,0,0.4-0.1c0.2-0.1,0.3-0.3,0.6-0.4c0.4-0.3,0.8-0.7,1.2-1
  c0.1-0.1,0.1-0.1,0.2-0.2v-0.2c-0.2-0.2-0.4-0.3-0.8-0.3c-0.3,0.2-0.7,0.4-1,0.8c-0.1,0.1-0.2,0.3-0.2,0.6l0,0
  c0.1,0,0.2-0.1,0.3-0.1s0.1-0.2,0.2-0.1c0,0.2-0.2,0.6-0.3,0.7C-268.5,1152.7-268.7,1153-268.9,1153.3z M-269.9,1150.8
  c0.1-0.1,0.1-0.1,0.2-0.2l0.1-0.1v-0.1h-0.1C-269.9,1150.5-269.9,1150.7-269.9,1150.8c-0.7,0.2-0.8,0.4-0.4,1c0,0.1,0.1,0.1,0.1,0.2
  c0.1,0.1,0.3,0.1,0.3,0c0.1-0.1,0.2-0.2,0.2-0.3c0.2-0.2,0.3-0.6,0.6-0.8c0.1-0.2,0.3-0.4,0.6-0.6c0.1,0,0.1-0.1,0.1-0.1
  c0.1-0.1,0.1-0.2,0.2-0.2c0.1-0.1,0.2-0.1,0.3-0.2c0-0.1,0-0.2-0.1-0.3h-0.1c-0.1,0-0.1,0.1-0.2,0.2c0,0.1-0.1,0.1-0.2,0.2
  c-0.1,0-0.1-0.1-0.1-0.2s0-0.3,0.1-0.4c0,0,0.1-0.1,0.1-0.2c0,0,0-0.1-0.1-0.1c0,0-0.1,0-0.2,0c-0.2,0.2-0.2,0.4-0.3,0.7
  c0,0.1,0,0.1,0.1,0.1c0,0,0,0,0,0.1s0,0.1-0.1,0.1h-0.1c-0.1-0.1-0.1-0.2-0.2-0.2c-0.1-0.1,0-0.2-0.2-0.2l0,0c0,0.2,0,0.4,0,0.7
  c0,0,0.1,0,0.1,0.1c0.3,0.2,0.3,0.4,0.1,0.7c-0.1,0.1-0.2,0.2-0.4,0.2c-0.2,0-0.3,0.1-0.4,0.3c-0.1-0.1-0.1-0.2-0.1-0.3
  C-270,1150.9-270,1150.8-269.9,1150.8z M-259.4,1129.6c-0.1,0-0.2,0-0.3,0c-0.2,0.1-0.4,0.2-0.7,0.4c-0.1,0.1,0,0.1,0.1,0.2
  c-0.2,0.2-0.4,0.4-0.7,0.6c-0.6,0.4-1.2,0.8-1.8,1.2c-0.1,0.1-0.2,0.2-0.2,0.3l0,0c0.2,0,0.4-0.2,0.7-0.2c0.1-0.1,0.3-0.2,0.4-0.2
  c0.3-0.1,0.7-0.2,0.9-0.4c0.2-0.1,0.3-0.2,0.6-0.3c0,0.1-0.1,0.1-0.1,0.2c-0.4,0.4-1,0.8-1.4,1.1c-0.1,0-0.1,0.1-0.2,0.1
  c-0.2,0.2-0.4,0.3-0.7,0.6c-0.3,0.2-0.6,0.3-0.9,0.6c-0.1,0.1-0.2,0.1-0.3,0.2c-0.2,0.2-0.4,0.3-0.7,0.4c-0.2,0.1-0.4,0.3-0.7,0.6
  c-0.2,0.1-0.4,0.3-0.8,0.4c-0.1,0.1-0.3,0.1-0.3,0.2c-0.2,0.2-0.6,0.4-0.9,0.6c-0.2,0.1-0.4,0.3-0.7,0.4c-0.2,0.1-0.3,0.3-0.7,0.3
  c-0.1,0-0.2,0.1-0.2,0.2c-0.2,0.1-0.3,0.3-0.7,0.4c-0.4,0.2-0.9,0.6-1.3,0.8c-0.1,0.2-0.3,0.3-0.6,0.4c-0.1,0.1-0.2,0.2-0.3,0.3v0.1
  c0.1,0,0.2-0.1,0.3-0.1c0.3-0.2,0.8-0.4,1.2-0.6c0.3-0.2,0.7-0.3,1-0.6c0.7-0.4,1.2-0.9,1.8-1.3c0.3-0.3,0.7-0.6,1.1-0.8
  c0.8-0.4,1.4-0.9,2.1-1.4c0.1-0.1,0.2-0.1,0.3-0.2c0.2,0,0.3-0.1,0.6-0.3c0.1-0.1,0.3-0.2,0.4-0.3c0.3-0.2,0.7-0.6,1.1-0.8
  c0.1,0,0.1-0.1,0.1-0.1c0.2-0.3,0.6-0.4,0.8-0.7c0.4-0.2,0.9-0.6,1.2-1c0.1-0.1,0.2-0.1,0.2-0.2v-0.1c-0.2,0-0.3,0.1-0.6,0.1
  c0-0.1,0.1-0.1,0.1-0.2c0.4-0.3,0.9-0.6,1.3-1c0.2,0,0.3,0,0.6,0l0,0c-0.1,0.1-0.1,0.2-0.2,0.2v0.1c0,0,0,0,0.1,0
  c0.1-0.1,0.3-0.2,0.4-0.4c0.6-0.2,1.1-0.6,1.7-1l0.1-0.1c0.1-0.1,0.3-0.3,0.4-0.4v-0.1h-0.1c-0.3,0.1-0.7,0.3-0.9,0.6
  c-0.1,0.1-0.2,0.2-0.3,0.3c-0.3,0.2-0.7,0.4-0.9,0.9c-0.1-0.1-0.1-0.3,0-0.4c0.1-0.1,0.2-0.2,0.2-0.3l0,0c-0.3,0.1-0.6,0.3-0.9,0.4
  c-0.4,0.2-0.9,0.6-1.3,0.8c-0.2,0.1-0.4,0.1-0.7,0.2c0.1-0.1,0.1-0.2,0.2-0.2C-259.9,1129.9-259.7,1129.7-259.4,1129.6
  c0.1,0,0.1-0.1,0.2-0.1c1.1-0.7,2.2-1.4,3.2-2.2c0.3-0.2,0.8-0.6,1.1-0.8c0.2-0.1,0.3-0.3,0.4-0.4c0.3-0.2,0.7-0.4,1-0.7l0.1-0.1
  v-0.1l0,0c-0.1,0-0.2,0-0.3,0.1c-0.2,0.1-0.3,0.2-0.6,0.2c0.1-0.1,0.1-0.1,0.2-0.2v-0.1c-0.2-0.1-0.6-0.1-0.7,0.2
  c-0.1,0.1-0.2,0.2-0.3,0.2c-0.2,0.1-0.4,0.3-0.8,0.4c-0.3,0.2-0.9,0.4-1.2,0.9c-0.2,0.1-0.4,0.3-0.7,0.4c-0.8,0.6-1.6,1.1-2.3,1.8
  c-0.7,0.6-1.4,1-2.1,1.6c-0.7,0.4-1.2,0.9-1.9,1.3c-0.3,0.2-0.8,0.4-1.1,0.8c-0.3,0.3-0.7,0.6-1.1,0.8c0,0-0.1,0-0.1,0.1
  c-0.6,0.4-1.1,0.8-1.8,1.1c-0.2,0-0.4,0.1-0.7,0.3c-0.2,0.1-0.6,0.3-0.8,0.4c-0.7,0.4-1.3,0.9-2,1.4l0,0l0,0c0.1,0,0.2,0,0.3,0
  c0.4-0.2,0.9-0.4,1.2-0.7c0.7-0.4,1.3-0.9,2.1-1.3c0.1,0,0.1-0.1,0.1-0.1c0.3-0.2,0.6-0.4,0.9-0.6c1-0.4,1.9-1.1,2.7-1.8
  c0.6-0.6,1.2-1,1.9-1.4c0.4-0.3,0.9-0.7,1.3-0.9c0.3-0.2,0.7-0.4,0.9-0.7c0.2-0.2,0.6-0.4,0.8-0.6c0.3-0.2,0.6-0.3,0.9-0.7
  c0.1-0.1,0.3-0.2,0.4-0.3s0.2-0.1,0.4-0.2c0.9-0.6,1.8-1.2,2.6-1.9c0.1-0.1,0.2-0.1,0.3-0.2c-0.1,0.2-0.3,0.3-0.4,0.6
  c-0.1,0.1-0.3,0.2-0.4,0.3c-0.6,0.3-1,0.8-1.6,1.1c-0.2,0.1-0.4,0.2-0.6,0.4c-0.6,0.3-1.1,0.8-1.7,1.2
  C-259.4,1129.4-259.4,1129.5-259.4,1129.6z M-273.1,1163.2c0.1,0,0.1,0,0.2,0l0,0l0,0h-0.1C-273,1163-273,1163.2-273.1,1163.2
  c-0.2,0-0.4,0-0.7,0.1c-0.1,0.1-0.2,0.1-0.3,0.1c-0.2,0-0.4,0.2-0.7,0.3c-0.2,0.2-0.6,0.3-0.8,0.6c0,0.1-0.1,0.1-0.2,0.1
  c-0.2,0.2-0.4,0.1-0.7,0l0,0c0.2-0.1,0.3-0.2,0.6-0.3c0.3-0.1,0.3-0.2,0.4-0.3c0.3-0.3,0.7-0.4,1.1-0.7c0.1,0,0.1-0.1,0.2-0.1v-0.1
  l0,0c-0.4,0.1-0.9,0.3-1.2,0.6c-0.4,0.3-0.9,0.7-1.4,0.9c-0.2,0.1-0.3,0.2-0.6,0.3c0,0,0,0.1,0,0.2c0.2,0.1,0.6,0.2,0.8,0.2
  c0.1,0,0.2,0,0.2,0c0.4-0.1,0.8-0.3,1.1-0.6c0.4-0.3,1-0.7,1.6-0.9C-273.3,1163.5-273.2,1163.4-273.1,1163.2z M-256.2,1165.4
  c0,0.1-0.1,0.2-0.2,0.3c-0.3,0.1-0.7,0.3-1,0.4c-0.1,0-0.2-0.1-0.2-0.1c-0.1,0-0.2,0-0.3,0.1l-0.1,0.1l0.1,0.1
  c0.4,0.1,0.8,0.1,1.2,0c0.1-0.1,0.3-0.1,0.4-0.1c0.2,0,0.2,0.1,0.4,0c0.1,0,0.3,0,0.4-0.2c0.1-0.1,0.1-0.2,0.2-0.2
  c0.4-0.3,0.9-0.7,1.3-1c0.4-0.3,0.8-0.7,1.1-1v-0.1c-0.1,0-0.2,0.1-0.3,0.1c-0.1,0-0.3,0.1-0.4,0.1c-0.1,0.1-0.2,0.3-0.3,0.4
  s-0.2,0.2-0.3,0.3c-0.4,0.2-0.9,0.6-1.3,0.9c-0.1,0.1-0.2,0.1-0.3,0.2h-0.2v-0.1c0,0,0-0.1,0.1-0.1c0.3-0.2,0.7-0.6,1-0.8l0.1-0.1
  v-0.1c0,0,0,0-0.1,0C-255.3,1164.8-255.9,1165-256.2,1165.4c0-0.1,0-0.2-0.1-0.3c0-0.1-0.2-0.1-0.2-0.1c-0.1,0.1-0.1,0.2-0.1,0.3
  c0,0,0,0.1,0.1,0.1C-256.5,1165.4-256.4,1165.4-256.2,1165.4z M-251.1,1125.7c-0.1,0.2-0.3,0.4-0.6,0.4c-0.3,0.1-0.7,0.4-1,0.7
  c-0.2,0.1-0.4,0.3-0.8,0.4c0,0,0.1-0.1,0-0.1v0.1c-0.3,0.2-0.3,0.2-0.7,0.3c0,0,0,0,0,0.1c0,0.2-0.1,0.3-0.3,0.4
  c-0.1,0.1-0.2,0.1-0.3,0.2c-0.2,0.2-0.4,0.4-0.7,0.7c0,0,0,0.1,0,0.2h0.1c0.2,0,0.3-0.1,0.4-0.2l0,0c0.2-0.1,0.4-0.2,0.7-0.4
  c0-0.1,0.1-0.1,0.2-0.2c0.2-0.2,0.6-0.3,0.8-0.6c0.3-0.3,0.8-0.7,1.1-0.9c0.1,0,0.2-0.1,0.2-0.2c0.4-0.3,0.9-0.7,1.4-1
  c0.1,0,0.1-0.1,0.2-0.1s0.1-0.2,0-0.2c0-0.1-0.1-0.1-0.2-0.1c-0.1,0.1-0.2,0.1-0.4,0.2c0-0.1-0.1-0.2-0.1-0.3c-0.2,0-0.3,0-0.3,0
  c-0.2,0.2-0.3,0.3-0.6,0.6c0,0,0,0.1,0,0.2h0.1C-251.5,1125.8-251.3,1125.7-251.1,1125.7z M-247.5,1166.6L-247.5,1166.6
  L-247.5,1166.6c0.1,0,0.3-0.1,0.4-0.1c0.2-0.2,0.6-0.3,0.8-0.4c0.2-0.1,0.4-0.2,0.7-0.3c0.3-0.2,0.7-0.6,1-0.8
  c0.3-0.3,0.8-0.7,1.2-1c0.4-0.3,0.8-0.6,1.1-0.9c0.2-0.2,0.4-0.4,0.6-0.7c0-0.1,0-0.1,0-0.2l-0.1-0.1c-0.1,0-0.2,0.1-0.3,0.1
  c-0.7,0.6-1.3,1-2,1.6c-0.6,0.4-1,0.9-1.6,1.3c-0.2,0.1-0.3,0.3-0.6,0.4C-246.7,1165.9-247.1,1166.3-247.5,1166.6z M-242.7,1152.8
  L-242.7,1152.8c0.1,0,0.3,0,0.4,0.1c-0.2,0.4-0.7,0.7-1,0.9c-0.1,0.2,0,0.3-0.2,0.4c-0.1,0-0.2,0.1-0.3,0.1c-0.1,0-0.2,0.1-0.2,0.2
  s0,0.2,0.1,0.2c0.1,0,0.1,0,0.2,0c0.2-0.1,0.6-0.2,0.7-0.4c0.3-0.2,0.7-0.6,1-0.9c0.4-0.3,0.8-0.7,1.3-1l0,0
  c0.2-0.1,0.2-0.3,0.2-0.6c0-0.3-0.1-0.3,0-0.6c0-0.1,0.1-0.2,0-0.3c-0.1-0.1-0.3,0-0.4,0.1c-0.2,0.1-0.4,0.2-0.7,0.3
  c-0.1,0.2-0.3,0.4-0.4,0.7c-0.1,0.1,0,0.2,0,0.3c0.1,0.1,0.1,0,0.2-0.1l0.1-0.1h0.1c-0.1,0.3-0.2,0.6-0.6,0.6c0,0-0.1,0-0.1-0.1
  c0,0,0-0.1-0.1-0.1c-0.1-0.2-0.3-0.2-0.6,0C-242.5,1152.6-242.5,1152.7-242.7,1152.8z M-278.1,1162.2c0-0.1,0.1-0.2,0.1-0.2
  c0-0.1,0.1-0.1,0.2-0.2c0.1-0.1,0.1-0.2,0.1-0.3c-0.1-0.1-0.1-0.2-0.2-0.3c0-0.1-0.1-0.1-0.2-0.1s-0.2,0.1-0.3,0.1
  c-0.1,0-0.2,0-0.2-0.1s0.1-0.1,0.1-0.2v-0.1h-0.1c-0.1,0.1-0.2,0.1-0.2,0.2c-0.1,0.2-0.2,0.3-0.3,0.6c-0.1,0.1-0.2,0.1-0.4,0.2
  c-0.1,0-0.1,0-0.2,0c0,0-0.1-0.1,0-0.2s0-0.3,0-0.4c0.1-0.1,0.2-0.1,0.3-0.2c-0.1,0.1,0,0,0.1,0c0,0,0,0,0,0.1l0,0v-0.1
  c0.1,0,0.2-0.1,0.3-0.1s0.1-0.1,0.1-0.1c0.1-0.2,0.1-0.3,0.2-0.6v-0.1c0,0-0.1,0-0.2,0c-0.1,0-0.1,0.1-0.1,0.1
  c-0.2,0.1-0.3,0.2-0.6,0.3c-0.3,0.2-0.7,0.4-1,0.7c-0.1,0.1-0.2,0.2-0.3,0.3c0,0.1,0.1,0.2,0.1,0.3c0,0.2,0.2,0.2,0.3,0.4
  c0,0.1,0,0.1-0.1,0.2c0,0.1,0,0.2,0.1,0.3c0.2,0.1,0.2,0.2,0.2,0.4c0,0.1,0.2,0.2,0.3,0.1c0.2-0.2,0.3-0.2,0.4-0.3
  C-279.1,1162.5-278.7,1162.3-278.1,1162.2c0,0.1-0.1,0.3-0.2,0.4c-0.2,0-0.4,0.2-0.7,0.3c-0.3,0.1-0.3,0.2-0.6,0.6
  c0.2,0.2,0.3,0.3,0.6,0.2c0.3-0.1,0.7-0.3,1.1-0.6c0,0,0.1,0,0.1,0.1c0,0,0,0,0,0.1c-0.1,0.1-0.1,0.1-0.2,0.2
  c-0.1,0.1-0.3,0.2-0.4,0.3v0.1l0,0c0.1,0,0.2,0,0.2,0c0.6-0.3,1.1-0.7,1.7-1.1l0.1-0.1c0-0.1-0.1-0.1-0.2-0.1s-0.1,0-0.2,0
  c-0.1,0-0.1-0.1-0.1-0.1c0-0.1,0.1-0.2,0.2-0.2c-0.3-0.6-0.4-0.6-0.7-0.4c-0.1,0-0.2,0.1-0.3,0.1S-278,1162-278.1,1162.2z
   M-241.8,1139.7c0.2-0.2,0.4-0.6,0.7-0.8c0.2-0.2,0.6-0.4,0.9-0.7c0-0.3,0.1-0.7,0.2-1c0-0.1,0-0.1,0-0.2c0.1-0.3,0-0.6-0.2-0.7
  c0.1-0.1,0.2-0.2,0.2-0.3c0,0,0-0.1,0-0.2v-0.1c0,0-0.1-0.1-0.2,0c-0.1,0.1-0.2,0.1-0.2,0.2c-0.2,0.2-0.3,0.3-0.6,0.6
  c-0.2,0.1-0.3,0.3-0.4,0.4c-0.1,0.1-0.3,0.2-0.6,0.4c-0.1,0.1-0.1,0.2-0.2,0.3c-0.1,0.1-0.2,0.2-0.3,0.3c-0.2,0.1-0.4,0.3-0.7,0.6
  v0.1l0,0c0,0,0,0,0.1,0c0.1-0.1,0.2-0.1,0.2-0.2c0.3-0.3,0.6-0.6,1-0.8c0.1,0,0.2-0.1,0.2-0.2c0.4-0.4,0.9-0.9,1.3-1.2
  c0,0.2,0,0.4-0.2,0.6s-0.3,0.2-0.4,0.4c0,0.1,0,0.2,0,0.2c0.1,0.3-0.2,0.6-0.4,0.6c-0.1,0-0.2,0-0.3,0c-0.1,0-0.2,0-0.2,0
  c-0.1,0.1-0.2,0.1-0.2,0.3c0,0.1,0.1,0.1,0.2,0.1l0,0c0,0.1,0,0.2-0.1,0.2c-0.1,0.1-0.2,0.2-0.3,0.3c-0.1,0.1-0.3,0.1-0.4,0
  c-0.1-0.1-0.2,0.1-0.2,0.2c0,0,0,0,0,0.1c0,0.2,0,0.4,0,0.7c-0.1,0.2-0.3,0.2-0.6,0.3c-0.1,0.1-0.2,0.1-0.4,0.2
  c-0.1,0-0.2,0.1-0.2,0.2c-0.1,0.1-0.1,0.2,0,0.3c0.1,0.1,0.1,0.1,0.2,0.1c0.2,0,0.3-0.1,0.6-0.2c0.3-0.3,0.7-0.7,1.1-0.8
  c0.2-0.1,0.4-0.3,0.6-0.6C-241.8,1139.8-241.8,1139.8-241.8,1139.7C-241.8,1139.8-241.8,1139.8-241.8,1139.7
  C-241.7,1139.8-241.7,1139.8-241.8,1139.7L-241.8,1139.7C-241.7,1139.8-241.8,1139.8-241.8,1139.7z M-261.4,1165.8
  c0.1,0.2,0.1,0.3,0.2,0.3s0.3,0,0.4-0.1c0.2-0.1,0.6-0.3,0.8-0.4c0.1-0.1,0.3-0.2,0.4-0.3c0.2-0.1,0.4-0.2,0.7-0.4
  c0.2-0.1,0.6-0.2,0.8-0.2c0.1,0,0.2,0.1,0.2,0.1c0,0.1,0,0.3-0.1,0.3c0,0,0,0-0.1,0c-0.4,0.1-0.8,0.6-1.1,0.8v0.1c0,0,0.1,0,0.1,0.1
  c0.1,0,0.1,0,0.2,0c0.3-0.1,0.6-0.2,0.8-0.4c0.1-0.1,0.2-0.2,0.3-0.3c0.1-0.1,0.2,0,0.2,0.1v0.1h-0.1l0,0l0.1-0.1
  c0.2,0,0.2,0,0.2-0.1c0-0.1,0-0.2,0-0.2c0.2-0.2,0.4-0.4,0.8-0.7c0.2-0.1,0.3-0.2,0.4-0.3s0.2-0.2,0.3-0.2c0.2-0.1,0.4-0.3,0.4-0.6
  c0,0,0,0,0-0.1c0,0-0.1,0-0.1-0.1c0,0,0,0-0.1,0c-0.4,0.2-0.9,0.3-1.2,0.7c-0.2,0.2-0.4,0.3-0.7,0.4c-0.1,0-0.2,0-0.2,0
  c-0.1-0.1,0-0.1,0-0.2c0,0,0-0.1,0.1-0.1c0,0-0.1-0.1-0.1,0c-0.1,0-0.2,0.1-0.3,0.1s-0.2,0-0.2,0c0-0.1,0-0.1,0.1-0.2
  c0.1-0.1,0.2-0.1,0.2-0.2c0.2-0.1,0.4-0.3,0.7-0.6v-0.1c0,0,0,0-0.1,0c-0.2,0.1-0.4,0.3-0.7,0.4c-0.3,0.2-0.8,0.4-1.2,0.6
  c0,0.2-0.1,0.3-0.2,0.4c-0.3,0.1-0.6,0.2-0.8,0.4c-0.3,0.2-0.8,0.6-1.2,0.8C-261.2,1165.8-261.3,1165.8-261.4,1165.8
  c-0.1,0-0.1-0.1-0.1-0.2c-0.1,0-0.2,0.1-0.4,0.1c-0.1,0-0.2,0.2-0.4,0.1v-0.1c0.2-0.3,0.6-0.3,0.8-0.7l0,0c-0.6,0.1-1.1,0.4-1.6,0.9
  v0.1l0.1,0.1c0.2,0,0.6,0,0.8,0c0.2,0,0.3,0,0.4-0.1C-261.7,1165.9-261.5,1165.9-261.4,1165.8z M-245.2,1139L-245.2,1139
  L-245.2,1139c0.1,0,0.1,0,0.2,0c0.2-0.1,0.4-0.2,0.6-0.4s0.4-0.3,0.7-0.6c0.1-0.1,0.2-0.1,0.2-0.2c0.7-0.6,1.3-1.2,2.1-1.8
  c0.4-0.3,0.9-0.9,1.3-1.3c0.1-0.1,0.2-0.2,0.3-0.3c0-0.3,0-0.6-0.1-0.8c0-0.2,0-0.3,0-0.6c0-0.3,0-0.6,0-0.8s0-0.3-0.2-0.4
  c-0.6,0.2-0.7,0.4-1,0.8c-0.4,0.8-1,1.4-1.7,1.9c-0.1,0.1-0.1,0.2-0.1,0.3l0,0c0.3-0.1,0.7-0.2,0.9-0.6c0-0.1,0.1-0.1,0.2-0.2
  c0.2-0.2,0.4-0.3,0.7-0.7c0.1-0.1,0.1-0.1,0.2-0.2c0.2-0.1,0.3-0.2,0.3-0.4c0,0,0-0.1,0.1-0.2h0.1c0,0,0.1,0,0.1,0.1
  c0,0.3,0,0.7,0,1c0,0.2-0.1,0.3-0.2,0.6l0,0v-0.1c0-0.1-0.1-0.1-0.2-0.1c-0.2,0.1-0.2,0.3-0.2,0.7c-0.2,0.2-0.3,0.3-0.6,0.6
  c0-0.1-0.1-0.1-0.2-0.1c0,0-0.1,0-0.1,0.1v0.1c0.1,0,0.1,0,0.2,0c-0.1,0.1-0.1,0.2-0.2,0.3c-0.1,0.1-0.3,0.3-0.4,0.4
  c-0.2,0.3-0.6,0.6-0.8,0.8c-0.1,0.1-0.2,0.2-0.3,0.3c-0.4,0.6-1,1.1-1.6,1.4C-245.1,1138.7-245.2,1138.8-245.2,1139z M-273.1,1131.7
  c-0.2,0.2-0.4,0.2-0.6,0.3l0,0l0,0c-0.1,0-0.2,0.1-0.3,0.1l0,0l0,0c0,0.1,0,0.2,0,0.2l-0.1,0.1c-0.3,0.1-0.6,0.2-0.8,0.4
  c-0.1,0.1-0.2,0.2-0.3,0.3c-0.1,0-0.3,0.1-0.6,0.2c-0.1,0.1-0.3,0.2-0.4,0.3c-0.1,0.1-0.2,0.1-0.3,0.2l-0.1,0.1v0.1l0.1,0.1
  c0.1,0,0.1,0,0.2,0c0.3-0.3,0.8-0.6,1.1-0.8c0.6-0.3,1.1-0.7,1.7-1c0.3-0.2,0.7-0.6,1-0.7c0.3-0.3,0.8-0.4,1.1-0.8
  c0.7-0.6,1.4-1,2.1-1.4c0.2-0.1,0.4-0.3,0.8-0.4c0.6-0.2,1-0.4,1.4-0.9c0.4-0.2,0.9-0.7,1.4-0.9c0.1,0,0.1-0.1,0.1-0.1
  c0.6-0.3,1.1-0.8,1.7-1.1c0.1,0,0.1-0.1,0.2-0.1c0.1-0.1,0.3-0.1,0.4-0.2c0.2-0.2,0.6-0.3,0.9-0.6c0.2-0.1,0.3-0.2,0.4-0.3
  c0,0,0-0.1,0-0.2l-0.1-0.1c-0.2-0.1-0.3-0.1-0.6,0c-0.1,0-0.1,0.1-0.1,0.2c0.1,0.2,0,0.3-0.2,0.4c-0.2,0.1-0.4,0.2-0.8,0.3
  s-0.7,0.3-1,0.6c-0.3,0.3-0.8,0.6-1.1,0.8c-0.2,0.1-0.3,0.2-0.6,0.3c-0.2,0.1-0.4,0.2-0.6,0.4c-0.2,0.2-0.4,0.3-0.7,0.4
  c-0.1,0-0.2,0.1-0.3,0.2c-0.2,0.1-0.4,0.3-0.7,0.4c-0.3,0.1-0.4,0.4-0.7,0.6c-0.1,0-0.2,0.1-0.3,0.1c-0.1,0.1-0.2,0.1-0.3,0.2
  c-0.2,0.2-0.4,0.3-0.7,0.6c-0.1,0.1-0.3,0.2-0.4,0.3c-0.2,0.1-0.3,0.2-0.6,0.3c-0.1,0-0.3,0.1-0.6,0.1c-0.1,0.1-0.3,0.2-0.4,0.3
  C-272.8,1131.7-273,1131.6-273.1,1131.7L-273.1,1131.7z M-255.7,1135.3c0.2-0.4,0.6-0.8,1-0.9c0.3-0.1,0.7-0.3,0.9-0.7
  c0.1-0.2,0.2-0.3,0.4-0.3c0.4-0.2,0.9-0.4,1.2-0.7c0-0.1,0.1-0.2,0.1-0.2c0-0.1,0-0.1,0-0.2s-0.1-0.1-0.1-0.1h-0.1
  c-0.1,0.1-0.2,0.1-0.3,0.2c-0.2,0.2-0.4,0.4-0.8,0.7c-0.1,0-0.1,0.1-0.2,0.1c-0.6,0.4-1.1,0.8-1.8,1.2c0-0.1-0.1-0.1-0.1-0.2
  c0-0.1,0.1-0.2,0.2-0.3c0.2-0.1,0.3-0.2,0.6-0.3c0.1-0.1,0.3-0.2,0.6-0.3c0.3-0.1,0.3-0.3,0.6-0.4c0.1-0.1,0.2-0.1,0.3-0.2
  c0.3-0.2,0.7-0.4,0.9-0.7c0.1-0.1,0.2-0.2,0.3-0.4c0-0.1-0.1-0.1-0.1-0.1c-0.1,0-0.2,0-0.2,0.1c-0.3,0.2-0.7,0.4-1,0.7
  c-0.4,0.3-0.9,0.7-1.3,0.9c-0.1,0-0.1,0.1-0.2,0.1c-0.4,0.4-1,0.7-1.4,1.1c-0.1,0.1-0.2,0.1-0.3,0.2c-0.3,0.1-0.6,0.4-0.9,0.7
  c-0.1,0.1-0.2,0.2-0.3,0.2c-0.4,0.3-0.8,0.6-1.2,1c-0.1,0.1-0.3,0.2-0.4,0.3c-0.3,0.2-0.7,0.6-0.9,0.8c0,0,0,0,0,0.1l0,0
  c0.1,0,0.2-0.1,0.2-0.1c0.2-0.2,0.4-0.3,0.8-0.6c0.2-0.2,0.6-0.2,0.8-0.4l0,0c0.2-0.2,0.6-0.3,0.7-0.6c0.3-0.4,0.8-0.7,1.2-1
  c0.2-0.2,0.6-0.3,0.8-0.6h0.1c0,0,0,0.1,0,0.2s-0.1,0.1-0.1,0.2c-0.3,0.3-0.7,0.7-1.1,0.9c-0.2,0.1-0.4,0.2-0.6,0.4
  c-0.4,0.4-0.9,0.7-1.3,1c-0.3,0.1-0.4,0.3-0.7,0.6c-0.1,0.2-0.2,0.3-0.4,0.4c-0.1,0-0.2,0.2-0.2,0.3v0.1c0,0,0.1,0.1,0.2,0
  c0.1,0,0.1-0.1,0.2-0.1c0.1-0.1,0.3-0.2,0.4-0.3c0.2-0.1,0.4-0.3,0.7-0.4c0.3-0.1,0.4-0.3,0.7-0.6c0.2-0.2,0.4-0.4,0.7-0.6
  c0.1-0.1,0.2-0.2,0.3-0.3c0.3-0.3,0.6-0.6,1-0.7C-255.9,1135.3-255.8,1135.3-255.7,1135.3L-255.7,1135.3L-255.7,1135.3z
   M-259.9,1155.9c-0.2,0-0.4,0.1-0.6,0.2c-0.2,0.3-0.4,0.4-0.8,0.6c-0.3,0.2-0.7,0.4-1.1,0.4c0,0,0,0-0.1,0l-0.1,0.1l0.1,0.1
  c0.4,0.1,1,0.1,1.3-0.3c0-0.1,0.1-0.1,0.1-0.2c0.1-0.1,0.1-0.2,0.3-0.2C-260.2,1156.5-260,1156.3-259.9,1155.9c0,0,0.1,0,0.2,0
  c0.3-0.1,0.7-0.3,0.9-0.6c0.4-0.4,1-0.9,1.4-1.3c0.1-0.1,0.3-0.2,0.4-0.3h0.1c0,0,0,0,0,0.1c0,0.1-0.1,0.2-0.1,0.2
  c-0.2,0.2-0.3,0.3-0.4,0.6c-0.1,0.2-0.2,0.3-0.4,0.4c-0.3,0.1-0.6,0.4-0.7,0.8c-0.2,0.3-0.4,0.6-0.8,0.8c-0.2,0.2-0.6,0.4-0.8,0.6
  c-0.1,0.1-0.1,0.2-0.2,0.2c0,0,0,0.1,0.1,0.1s0.3,0,0.4-0.1c0.2-0.2,0.4-0.3,0.7-0.6c0.1-0.1,0.2-0.1,0.3-0.1l0,0c0,0.1,0,0.3,0,0.4
  c0,0.1,0,0.1,0.1,0.2c0.1,0,0.2-0.1,0.3-0.1c0.2-0.1,0.4-0.2,0.7-0.4l0,0c0.4-0.4,0.9-0.7,1.3-1.1l0.1-0.1c0.2-0.1,0.6-0.2,0.7-0.6
  l0.1-0.1c0.2-0.1,0.4-0.2,0.6-0.4c0.1,0.1,0.1,0.2,0.2,0.2c0,0,0.1,0,0.2,0c0,0,0.1,0,0.1-0.1c0-0.1,0-0.1,0-0.2
  c-0.1-0.1-0.2-0.1-0.4-0.1c0.2-0.1,0.3-0.3,0.6-0.4c0,0.1,0,0.2,0,0.2c0,0.1,0.1,0.2,0.2,0.1c0.1-0.1,0.2-0.2,0.4-0.3
  c0,0,0-0.1,0-0.2h-0.1c-0.1,0-0.2,0-0.3,0.1c-0.1,0.1-0.2,0.1-0.2,0c0.1-0.2,0.1-0.4,0.3-0.6c0.1-0.1,0.1-0.1,0.1-0.2v-0.1l-0.1-0.1
  c-0.1,0-0.2,0-0.3,0.1c-0.1,0.1-0.3,0.1-0.6,0.1l0,0v-0.1c0.2-0.1,0.3-0.2,0.6-0.2c0.1,0,0.2-0.1,0.2-0.2c0.1-0.2,0.2-0.4,0.4-0.7
  c0.1-0.1,0.1-0.2,0-0.3c-0.4,0.2-0.9,0.6-1.3,0.8c-0.3,0.2-0.6,0.3-0.7,0.7c0,0.1-0.1,0.1-0.1,0.1c-0.1,0.1-0.2,0.1-0.3,0
  c-0.1,0-0.1-0.1-0.2-0.1l0,0c0.1-0.2,0.3-0.3,0.6-0.6s0.7-0.7,1.1-0.8c0,0,0-0.1,0.1-0.1c0-0.1,0-0.2-0.2-0.2
  c-0.6,0.4-1.1,1-1.8,1.4c-0.1,0-0.1,0.2-0.2,0.2c-0.3,0.3-0.7,0.7-1.1,1c-0.1,0.1-0.2,0.1-0.3,0.2c-0.3,0.2-0.6,0.6-0.9,0.8
  l-0.1,0.1C-259.5,1155.6-259.8,1155.7-259.9,1155.9z M-244.4,1142.6c-0.3-0.2-0.7-0.3-1-0.2c-0.2,0-0.4,0-0.7,0
  c-0.6-0.1-1.2-0.1-1.8,0c-0.4,0.1-0.9,0.2-1.3,0.3c-0.1,0-0.2,0.2-0.2,0.3c0.3,0.9,0.3,1.8,0.4,2.7c0.1,0.6,0,1-0.1,1.6
  c-0.2,0.6-0.3,1.2-0.4,1.9c0,0.1,0,0.2-0.1,0.3c-0.2,0.8-0.4,1.7-0.9,2.3c-0.1,0.1-0.1,0.3-0.2,0.4c0,0.1-0.1,0.2-0.1,0.3
  c-0.3,0.4-0.7,0.8-0.9,1.2c-0.1,0.1-0.2,0.3-0.3,0.4c-0.3,0.6-0.8,1-1.3,1.3c-0.2,0.1-0.4,0.3-0.7,0.6c-0.1,0.1-0.2,0.2-0.3,0.2
  c-0.3,0.2-0.6,0.3-0.9,0.6c-0.4,0.3-0.9,0.6-1.4,0.6c-0.2,0-0.3,0.1-0.6,0.1c-0.2,0.1-0.4,0.2-0.7,0.4c-0.3,0.2-0.6,0.3-0.8,0.1
  c-0.1-0.1-0.2-0.1-0.3-0.1c-0.4,0.1-0.9,0.1-1.2,0.1c-0.2,0-0.3,0-0.6,0.1c-0.3,0.1-0.4,0.1-0.7,0c-0.3-0.2-0.6-0.2-1-0.2
  c-0.2,0-0.4,0-0.6-0.1c-0.4-0.1-0.8-0.2-1.2-0.3c-0.1,0-0.3-0.1-0.4-0.1s-0.3,0-0.4,0h-0.1c-0.2-0.3-0.4-0.6-0.8-0.4
  c-0.1,0-0.2,0-0.2-0.1c-0.3-0.3-0.8-0.6-1.1-0.8c-0.1-0.1-0.1-0.3-0.2-0.4c-0.1-0.1-0.3-0.2-0.4-0.3c-0.1-0.4-0.4-0.9-0.8-1.2
  l-0.1-0.1c-0.2-0.3-0.4-0.7-0.8-0.9c-0.1-0.1-0.3-0.2-0.4-0.4c-0.1-0.2-0.2-0.4-0.4-0.6c-0.2-0.2-0.3-0.4-0.4-0.7
  c-0.2-0.4-0.2-0.4-0.6-0.8c-0.2-0.6-0.4-1.2-0.6-1.8c-0.4-0.4-0.4-0.8-0.6-1c0-0.1,0-0.2,0-0.3c0.1-0.6,0.1-1.1,0-1.7
  c0-0.1,0-0.1,0-0.2c0-0.2,0-0.3,0-0.6c0-0.8,0.1-1.6,0.3-2.3c0-0.1,0-0.1,0-0.2c0-0.1-0.2-0.1-0.2-0.3c0.1-0.1,0.2-0.2,0.3-0.3
  c0.1-0.1,0.2-0.2,0.3-0.4c0.1-0.2,0-0.3-0.2-0.3s-0.4,0-0.7,0.1c-0.3,0.1-0.4,0.1-0.7,0.2c-0.2,0.1-0.2,0-0.3-0.2c0-0.1,0-0.1,0-0.2
  c-0.1-0.1-0.3-0.1-0.4-0.1c-0.2,0-0.4,0-0.7-0.1c-0.3-0.1-0.4-0.1-0.7-0.1c-0.6,0-1.1,0-1.6,0c0,0.3,0,0.4,0,0.6
  c-0.2,0.2-0.3,0.6-0.3,0.9c0,0.1,0,0.2,0,0.3c0,0.3-0.1,0.8-0.2,1.1c-0.1,0.2-0.1,0.4-0.1,0.7c0.1,0.8,0,1.6,0,2.3
  c0,0.2,0,0.6,0,0.8c0,0.2,0,0.3,0,0.6c-0.1,0.3-0.1,0.7-0.2,1c-0.1,0.2-0.1,0.6-0.1,0.8c0,0.7-0.1,1.2-0.2,1.9
  c-0.1,0.8-0.2,1.6,0,2.3c0,0.1,0,0.2,0,0.2c0,0.6,0,1.1,0,1.6c0,0.3,0,0.7,0,1c-0.1,0.9-0.1,1.8,0.1,2.7c0,0.2,0.1,0.3,0.2,0.4
  c0.2,0.2,0.3,0.6,0.4,0.8s0.2,0.4,0.6,0.4c0.1,0,0.2,0.1,0.3,0.2c0.1,0.1,0.2,0.2,0.3,0.3c0.2,0.1,0.6,0.2,0.8,0.3
  c0.1,0,0.2,0.1,0.3,0.1c0.2,0.1,0.3,0.1,0.6,0.1c0.3,0,0.7,0,1,0.1c0.4,0.1,0.9,0.1,1.3,0.2c0.1,0,0.2,0,0.2,0c0.6-0.1,1.2,0,1.8,0
  c0.1,0,0.2,0,0.4,0c0.3,0.1,0.6,0.1,0.9,0c0.7-0.1,1.2-0.1,1.9-0.1c0.9,0,1.8,0.1,2.7,0.2c0.7,0,1.2,0.1,1.9,0c0.2,0,0.4,0,0.6,0
  c0.4,0,0.9,0,1.4-0.1c0.2,0,0.4-0.1,0.8,0c1.4,0,3-0.1,4.4,0.1c0.3,0,0.7,0,0.9,0.2c0,0,0.1,0,0.2,0c0.3,0,0.7,0.1,0.9,0
  c0.9-0.1,1.8-0.1,2.7-0.2c0.2,0,0.4,0,0.6,0c0.4,0,0.9,0,1.2-0.1c0.4-0.1,1-0.1,1.4-0.1c0.7,0,0.7,0,1.1-0.2c0.1,0,0.2,0.2,0.4,0.2
  c0.2-0.1,0.3-0.2,0.6-0.4c0.1-0.1,0.2-0.2,0.2-0.4c0.1-0.7,0.3-1.3,0.4-1.9c0.1-0.4,0.2-0.9,0.2-1.3c0-0.3,0.1-0.7,0.1-1v-0.3
  c0.2-0.8,0-1.6,0.1-2.3c0-0.1,0-0.1,0-0.2c0-0.1,0-0.2,0-0.3c0-0.6,0-1.1,0-1.6c0-0.2,0-0.4,0-0.6c0-1.1,0.1-2.2,0-3.3
  c0-0.1,0-0.2,0-0.3c0-0.4,0.1-0.8,0.1-1.2c0-0.2,0-0.3-0.1-0.4c-0.2-0.2-0.2-0.3-0.2-0.7c0-0.9,0.2-1.8,0.3-2.7
  C-244.4,1143.2-244.4,1142.9-244.4,1142.6z M-268.1,1146.5c-0.2,0.7-0.1,0.9,0.1,1.6c0,0.1,0.1,0.1,0.1,0.2c0.2,0.3,0.4,0.8,0.7,1.1
  c0.2,0.3,0.4,0.7,0.7,0.9c0.3,0.4,0.8,0.7,1.2,0.9c0.1,0.1,0.3,0.2,0.4,0.3c0.3,0.3,0.8,0.6,1.1,0.9c0.2,0.1,0.3,0.2,0.7,0.1
  c0.1,0,0.2,0,0.2,0.1c0.1,0.1,0.2,0.2,0.3,0.2c0.2,0,0.4,0,0.7,0.1c0.6,0.1,1.1,0.2,1.7,0c0.1,0,0.3,0,0.4,0
  c0.6-0.1,1.1-0.1,1.6-0.4c0.3-0.2,0.7-0.3,0.9-0.6c0.2-0.2,0.4-0.4,0.7-0.6c0.3-0.3,0.7-0.7,0.8-1c0-0.1,0.1-0.2,0.2-0.3
  c0.3-0.3,0.6-0.8,0.8-1.2c0.2-0.6,0.6-1.2,0.3-1.9c0-0.1,0-0.2,0-0.4c0.1-0.6,0.1-1,0.2-1.6c0.1-0.4,0-0.9-0.1-1.3
  c-0.1-0.6-0.3-1-0.7-1.4c-0.1-0.2-0.3-0.3-0.6-0.3c-0.1,0-0.2-0.1-0.2-0.1s0-0.1-0.1-0.2c-0.1-0.4-0.3-0.8-0.8-1
  c-0.3-0.2-0.7-0.4-0.9-0.7c-0.6-0.4-1.2-0.7-1.9-0.8c-0.1,0-0.2,0-0.3,0c-0.2,0.1-0.6,0-0.8,0c-0.1,0-0.2,0-0.4,0s-0.4,0-0.7,0
  c-0.3,0-0.4,0-0.7,0.1c-0.1,0.1-0.3,0.1-0.4,0.1c-0.4,0-0.8,0.1-1.1,0.3c-0.1,0-0.1,0.1-0.2,0.1c-0.4,0-0.8,0.1-1.1,0.3
  c-0.1,0.1-0.2,0.1-0.3,0.2c-0.2,0.4-0.7,0.8-1,1.1c-0.4,0.4-0.7,0.9-0.9,1.4c-0.1,0.2-0.2,0.6-0.3,0.8c-0.1,0.1-0.1,0.2-0.1,0.3
  c0,0.1,0.1,0.2,0.1,0.3s-0.1,0.1-0.1,0.2c-0.2,0.2-0.2,0.4-0.2,0.7s0,0.4,0,0.6C-268.3,1146.2-268.2,1146.4-268.1,1146.5z
   M-245.5,1136.7c0.1-0.1,0.3-0.3,0.4-0.4c0.2-0.2,0.3-0.6,0.4-0.9c0-0.1,0-0.2,0-0.4c0-0.1,0-0.3,0-0.4c0-0.1,0-0.3,0.1-0.4
  c0-0.6,0.1-1,0.1-1.6c0-0.3,0-0.7,0.1-1.1c0-0.2,0-0.3,0-0.6c-0.1-0.4-0.4-0.7-0.8-0.7c-1.1,0-2.1-0.1-3.2-0.1c-0.2,0-0.3,0-0.6,0
  c-0.4,0.1-0.9,0.1-1.3,0.2c-0.2,0-0.3,0-0.6,0.1s-0.4,0.2-0.4,0.6s-0.1,0.7,0,0.9c0,0.3,0,0.8,0.1,1.1c0,0.1,0,0.2,0,0.3
  c-0.1,0.6-0.1,0.6,0.2,1c0,0.1-0.1,0.2-0.1,0.3c-0.1,0.1-0.1,0.2-0.1,0.3c0,0.4,0,0.9,0.1,1.2c0,0.1,0.1,0.2,0.2,0.2
  c0.1,0,0.1,0,0.2,0c0.9,0.1,1.8,0.2,2.7,0.3C-247.4,1136.9-246.4,1136.9-245.5,1136.7z M-243.8,1133.6c0.2-0.1,0.3-0.2,0.4-0.3
  c0.3-0.3,0.6-0.8,0.9-1c0.1-0.3,0.4-0.6,0.8-0.8c0.1-0.2,0.1-0.4,0.2-0.7c0-0.1,0-0.1,0-0.2s-0.1-0.3-0.3-0.2
  c-0.2,0.1-0.6,0.1-0.8,0.4c-0.1,0.1-0.2,0-0.3-0.1c0-0.1,0-0.2,0.1-0.3c0.1,0,0.1,0,0.2-0.1c0.2,0,0.3-0.1,0.4-0.3
  c0-0.1,0-0.2,0-0.3c0,0-0.1-0.1-0.1,0c-0.1,0-0.1,0.1-0.2,0.1c-0.2,0.2-0.6,0.6-0.8,0.8c-0.2,0.2-0.4,0.2-0.7,0.2
  c0,0.1,0,0.1-0.1,0.2c-0.2,0.6-0.2,0.6,0.1,1c-0.1,0.2-0.1,0.4-0.2,0.7c-0.1,0.4-0.1,0.8,0.1,1.1h0.1l0,0
  C-243.8,1133.7-243.8,1133.7-243.8,1133.6z M-250.5,1137.2c0.1,0.1,0.1,0.3,0.2,0.4c0,0.1,0.2,0.1,0.2,0.1c0.1-0.1,0.2-0.1,0.3-0.2
  c0.1,0,0.1,0,0.1,0.1c0,0.1,0,0.1,0,0.2s-0.1,0.1-0.2,0.2c-0.3,0.2-0.7,0.6-1,0.8c-0.2,0.2-0.4,0.3-0.7,0.4
  c-0.1,0.1-0.2,0.2-0.3,0.3c-0.2,0.4-0.6,0.7-0.9,0.9c-0.3,0.1-0.6,0.3-0.8,0.6c-0.2,0.3-0.4,0.3-0.7,0.6c-0.1,0.1-0.1,0.2-0.2,0.3
  c0,0.1,0,0.2,0,0.2c0,0.1,0.1,0.1,0.2,0c0.2-0.1,0.3-0.2,0.6-0.4c0.6-0.6,1.1-1.1,1.7-1.6c0.3-0.2,0.7-0.4,0.9-0.9
  c0.6-0.6,1.1-1,1.7-1.6c0.2-0.1,0.3-0.3,0.6-0.6c0.1-0.1,0-0.2-0.1-0.3c-0.1,0-0.2,0-0.2,0c-0.2,0-0.4,0-0.7,0c-0.3,0-0.4,0-0.6,0
  C-250.4,1137.2-250.4,1137.2-250.5,1137.2z M-270.9,1165.8c0.1,0,0.2,0,0.3,0c0.2,0,0.6-0.1,0.8-0.2c0.4-0.3,0.9-0.6,1.2-0.9
  s0.8-0.6,1.2-0.8c0.3-0.2,0.7-0.4,1-0.6l0.1-0.1c0-0.1,0-0.1-0.1-0.1c0,0,0,0-0.1,0c-0.2-0.1-0.4-0.1-0.6,0.1
  c-0.2,0.2-0.4,0.3-0.7,0.4c-0.3,0.1-0.4,0.2-0.6,0.3c-0.6,0.3-1.1,0.7-1.7,1c-0.1,0.1-0.2,0.1-0.3,0.2c-0.2,0.2-0.6,0.4-0.9,0.6l0,0
  c0,0,0,0.1,0.1,0.1S-271,1165.8-270.9,1165.8z M-253.2,1137.7h0.1c0.1,0,0.2-0.1,0.3-0.2c0.2-0.1,0.4-0.2,0.8-0.3c0,0,0.1,0,0.2,0
  c0,0,0,0.1,0,0.2c-0.2,0.2-0.4,0.4-0.7,0.7c-0.2,0.1-0.4,0.3-0.7,0.4c-0.6,0.6-1.1,1.1-1.6,1.6c-0.2,0.2-0.3,0.3-0.4,0.6
  c0,0,0,0,0,0.1l0,0c0.1,0,0.2-0.1,0.3-0.1c0.4-0.3,0.9-0.7,1.3-1c0.2-0.2,0.4-0.6,0.8-0.7c0.1-0.1,0.2-0.2,0.3-0.2
  c0.2-0.3,0.6-0.7,0.9-1c0.1-0.1,0.2-0.2,0.3-0.3c0.1-0.1,0-0.2-0.1-0.3c-0.2-0.1-0.4-0.1-0.7-0.2c-0.1,0-0.3,0-0.4,0.1
  c-0.2,0.2-0.6,0.3-0.8,0.6l0,0C-253.2,1137.6-253.2,1137.6-253.2,1137.7L-253.2,1137.7z M-273.9,1165.7c0.2-0.1,0.3-0.3,0.6-0.3
  c0.1,0,0.2-0.1,0.2-0.1c0.3-0.3,0.7-0.4,1-0.7c0.3-0.2,0.7-0.4,1-0.4c0.2,0,0.3-0.2,0.3-0.4v-0.1l-0.1-0.1c-0.2,0-0.4,0.1-0.7,0.3
  c-0.1,0.1-0.2,0.1-0.3,0.1c-0.2,0-0.3,0.1-0.4,0.2c-0.3,0.2-0.6,0.3-1,0.4c-0.2,0.1-0.4,0.1-0.6,0.3c-0.1,0.1-0.3,0.2-0.6,0.3
  c-0.1,0-0.2,0-0.3,0.1c0,0,0,0.1,0,0.2v0.1c0,0,0.1,0.1,0.2,0.1C-274.2,1165.7-274.1,1165.7-273.9,1165.7z M-240.9,1144.3
  c-0.1,0.1-0.2,0.3-0.2,0.4c-0.1,0.1-0.2,0.2-0.3,0.2c-0.1,0-0.2,0.1-0.2,0.2c-0.1,0.1-0.1,0.2-0.2,0.2c-0.3,0.2-0.4,0.6-0.8,0.7
  c-0.1,0-0.1,0.2-0.2,0.2c-0.2,0.3-0.4,0.7-0.8,0.9l-0.1,0.1v0.1c0,0.1,0,0.2,0,0.2h0.1c0.2-0.2,0.4-0.4,0.7-0.7
  c0.1-0.1,0.3-0.3,0.4-0.3c0.2-0.1,0.3-0.2,0.6-0.3c0.1-0.3,0.3-0.6,0.6-0.7c0.1-0.1,0.2-0.1,0.3-0.2c0.1-0.2,0.2-0.3,0.4-0.4
  c0.1-0.1,0.2-0.2,0.2-0.3c0-0.1,0-0.2-0.2-0.2C-240.7,1144.2-240.8,1144.3-240.9,1144.3z M-265.2,1152c0-0.1-0.1-0.2-0.1-0.2
  c-0.1-0.1-0.1-0.1-0.2,0c-0.2,0.1-0.4,0.2-0.7,0.4c-0.1,0.1-0.3,0.3-0.4,0.4c-0.1,0.1-0.2,0.2-0.3,0.3c-0.1,0.2-0.3,0.3-0.6,0.4
  c-0.2,0.1-0.3,0.2-0.4,0.3c-0.1,0-0.1,0.1-0.1,0.2l0.1,0.1h0.1c0.4,0,0.7-0.2,1-0.4C-266.3,1153.3-265.8,1152.7-265.2,1152z
   M-280.4,1143.4c0.2-0.1,0.3-0.2,0.4-0.4c0.2-0.3,0.4-0.6,0.8-0.8c0,0,0.1-0.1,0-0.1c-0.3,0.2-0.7,0.3-1,0.7c-0.3,0.2-0.7,0.4-1,0.7
  c-0.2,0.1-0.3,0.3-0.3,0.7c0,0.1,0,0.2,0,0.2c0,0.3,0.1,0.3,0.4,0.2c0.4-0.2,0.7-0.4,0.9-0.8v-0.1
  C-280.2,1143.4-280.3,1143.4-280.4,1143.4z M-277.9,1164.5c0.1,0,0.2,0,0.3-0.1c0.3-0.1,0.8-0.3,1.2-0.6c0.3-0.2,0.8-0.4,1.1-0.8
  l0.1-0.1c0,0,0-0.1,0-0.2c-0.1-0.1-0.2-0.1-0.3-0.1c-0.2,0-0.3,0.1-0.6,0.1s-0.4,0.1-0.6,0.3c-0.2,0.2-0.3,0.3-0.6,0.6
  c-0.3,0.2-0.6,0.4-0.9,0.6v0.1C-278.1,1164.4-278,1164.4-277.9,1164.5z M-268.1,1142.8c-0.3,0.2-0.6,0.4-0.8,0.6
  c-0.6,0.4-1.1,0.8-1.7,1.2c-0.4,0.3-0.9,0.7-1.3,1c-0.1,0.1-0.2,0.2-0.3,0.4v0.1l0.1,0.1c0.1,0,0.2,0,0.2-0.1
  c0.2-0.2,0.4-0.3,0.6-0.6c0.9-0.7,1.7-1.3,2.6-2C-268.4,1143.4-268.2,1143.2-268.1,1142.8z M-269.9,1147.5c0.1-0.3,0.3-0.6,0.6-0.7
  c0.1-0.1,0.2-0.2,0.3-0.3s0.1-0.3,0-0.4c-0.1,0-0.1,0-0.2,0c-0.2,0.2-0.3,0.3-0.6,0.6c-0.3,0.3-0.6,0.7-0.8,1
  c-0.1,0.1-0.1,0.2-0.2,0.2c-0.4,0.3-0.7,0.7-1,1v0.1v0.1h0.1c0.3-0.2,0.6-0.6,0.9-0.8C-270.5,1147.9-270.2,1147.7-269.9,1147.5z
   M-243.1,1144.9L-243.1,1144.9c0.3-0.1,0.6-0.2,0.7-0.4c0.2-0.2,0.4-0.4,0.8-0.7c0.3-0.3,0.8-0.8,1.1-1.1c0,0,0-0.1,0-0.2
  c0-0.1-0.1-0.1-0.1-0.1c-0.4,0.2-0.8,0.4-1.1,0.8c-0.2,0.3-0.7,0.7-1,0.9C-242.9,1144.2-243,1144.4-243.1,1144.9
  C-243.2,1144.8-243.2,1144.9-243.1,1144.9C-243.2,1144.9-243.2,1144.9-243.1,1144.9z M-254.8,1138.7c-0.3,0.3-0.7,0.6-1,0.8
  c-0.1,0.1-0.2,0.1-0.4,0.1c-0.1,0-0.2,0-0.3,0s-0.2,0.2-0.1,0.3c0.2,0.3,0.4,0.4,0.8,0.2c0.8-0.6,1.3-1.2,2.1-1.8
  c0.2-0.1,0.2-0.3,0.2-0.6c0,0,0-0.1-0.1-0.1h-0.1c-0.1,0.1-0.1,0.2-0.1,0.3c-0.2,0.1-0.4,0.4-0.8,0.4
  C-254.9,1138.5-254.8,1138.6-254.8,1138.7L-254.8,1138.7z M-278.3,1145c-0.1,0.1-0.2,0.2-0.3,0.3c-0.8,0.7-1.4,1.3-2.1,2
  c-0.1,0.1-0.3,0.2-0.4,0.3c-0.1,0-0.1,0.1-0.1,0.2c0,0.1,0.1,0.1,0.1,0.1c0.1,0,0.1-0.1,0.2-0.1c0.3-0.2,0.7-0.6,1-0.9
  c0.6-0.4,1-1,1.7-1.3C-278.2,1145.6-278.2,1145.4-278.3,1145z M-254.7,1132.3c0.1,0,0.3,0,0.3-0.1c0.2-0.3,0.6-0.6,0.9-0.8
  c0.3-0.2,0.7-0.6,1.1-0.8l0.1-0.1l0.1-0.1c0.1-0.1,0.1-0.2,0-0.2c-0.1,0-0.1,0-0.2,0c-0.2,0.1-0.3,0.3-0.6,0.3
  c-0.3,0.1-0.6,0.3-0.8,0.6c-0.2,0.3-0.4,0.4-0.8,0.6c-0.2,0.1-0.4,0.2-0.6,0.4C-254.9,1132.2-254.8,1132.2-254.7,1132.3
  C-254.8,1132.3-254.8,1132.3-254.7,1132.3z M-260.2,1154.3c0.1,0,0.2,0,0.3-0.1c0.3-0.2,0.6-0.4,0.8-0.8v-0.1l0,0
  c-0.2,0-0.4,0-0.6,0c-0.3,0-0.7,0.1-1,0.2C-260.8,1153.8-260.4,1154-260.2,1154.3z M-269.1,1142.7
  C-269.1,1142.7-269.1,1142.6-269.1,1142.7c-0.3,0.1-0.8,0.3-1,0.6c-0.4,0.3-0.9,0.7-1.2,1c-0.2,0.2-0.4,0.3-0.7,0.6
  c-0.1,0.1-0.1,0.1-0.1,0.2c0,0,0,0,0,0.1h0.1c0.1,0,0.1,0,0.2-0.1c0.7-0.6,1.2-1,1.9-1.6C-269.7,1143.3-269.3,1143.1-269.1,1142.7
  C-269.1,1142.8-269.1,1142.7-269.1,1142.7L-269.1,1142.7z M-281.3,1149C-281.3,1149-281.2,1149-281.3,1149c0.4-0.2,0.9-0.4,1.1-0.9
  c0.1-0.1,0.2-0.2,0.4-0.3c0.6-0.3,0.9-0.8,1.3-1.2c0,0,0.1-0.1,0.1-0.2c0,0,0-0.1-0.1-0.1s-0.1,0-0.2,0c-0.3,0.2-0.7,0.4-0.9,0.8
  c-0.3,0.4-0.7,0.8-1.1,1C-280.9,1148.5-281.1,1148.7-281.3,1149z M-281.5,1153.4c0.1,0,0.2-0.1,0.3-0.2c0.7-0.6,1.3-1.1,2-1.7
  l0.1-0.1v-0.1h-0.1c-0.1,0.1-0.2,0.1-0.3,0.2c-0.3,0.2-0.8,0.6-1.1,0.7c-0.3,0.1-0.6,0.3-0.8,0.6
  C-281.7,1152.9-281.7,1153.2-281.5,1153.4z M-268.1,1163C-268.1,1163-268.2,1163-268.1,1163c-0.1-0.1-0.2-0.1-0.3,0
  c-0.1,0.1-0.3,0.2-0.4,0.3c-0.4,0.2-0.8,0.4-1.1,0.7c-0.3,0.2-0.8,0.4-1.1,0.7c-0.1,0-0.1,0-0.2,0.1c0,0-0.1,0-0.1,0.1
  c0,0-0.1,0.1,0,0.2h0.1c0.9-0.6,1.9-1,2.9-1.6c0.1-0.1,0.2-0.2,0.3-0.2C-268.1,1163.2-268.1,1163.2-268.1,1163z M-247.1,1165.3
  L-247.1,1165.3c0.4-0.2,0.8-0.6,1-0.8c0.4-0.3,0.9-0.7,1.3-1c0.1-0.1,0.3-0.2,0.4-0.4v-0.1l-0.1-0.1c-0.1,0-0.1,0-0.2,0.1
  c-0.1,0.1-0.3,0.2-0.4,0.3c-0.2,0.3-0.6,0.6-0.9,0.8c-0.3,0.3-0.7,0.6-1,0.8c-0.1,0.1-0.1,0.1-0.2,0.2
  C-247.1,1165-247.1,1165.2-247.1,1165.3C-247.1,1165.2-247.1,1165.2-247.1,1165.3z M-267.3,1155.2c0.1,0,0.1-0.1,0.2-0.1
  c0.6-0.3,1.1-0.9,1.6-1.3c0.1,0,0.1-0.1,0.1-0.2s0-0.2-0.1-0.2s-0.1,0-0.1,0.1c0,0.1-0.1,0.2-0.2,0.3s-0.2,0.1-0.4,0.2
  c-0.4,0.2-0.9,0.7-1.2,1.1C-267.5,1155-267.4,1155.2-267.3,1155.2C-267.4,1155.2-267.4,1155.2-267.3,1155.2z M-278.9,1154.8
  c0-0.2,0-0.3,0-0.3c-0.1-0.1-0.2,0-0.3,0c-0.1,0.1-0.2,0.1-0.3,0.2c-0.6,0.4-1,0.9-1.6,1.2c-0.1,0.1-0.2,0.2-0.2,0.3c0,0,0,0,0,0.1
  l0.1,0.1c0.1-0.1,0.2-0.1,0.3-0.2c0.3-0.2,0.7-0.6,1-0.8C-279.5,1155-279.3,1154.9-278.9,1154.8z M-241.2,1155.9
  c0-0.1,0-0.2,0.1-0.3c0.2-0.1,0.2-0.4,0.4-0.6c0.1,0,0.1-0.2,0.2-0.2v-0.1h-0.1c-0.1,0-0.1,0-0.2,0.1c-0.1,0.1-0.2,0.2-0.3,0.4
  c-0.1,0.1-0.2,0.2-0.3,0.2c-0.1,0-0.3,0.1-0.3,0.2c-0.2,0.2-0.4,0.4-0.7,0.7l0.1,0.1c0.1,0,0.2-0.1,0.3-0.2
  C-241.9,1156.2-241.5,1155.9-241.2,1155.9z M-275.5,1138.5l-0.1-0.1c-0.1,0-0.1,0-0.2,0c-0.6,0.3-1.1,0.8-1.7,1.1
  c-0.1,0.1-0.2,0.2-0.2,0.3c0,0.1,0.2,0.1,0.3,0c0.2,0,0.3-0.1,0.4-0.2c0.2-0.1,0.3-0.3,0.6-0.4c0.2-0.1,0.4-0.3,0.7-0.4
  C-275.7,1138.7-275.7,1138.6-275.5,1138.5z M-279.5,1137.5c-0.1,0-0.1,0-0.2,0s-0.2,0.1-0.3,0.1c-0.3,0.2-0.8,0.4-1.1,0.8
  c-0.1,0-0.1,0.1-0.2,0.2c-0.1,0.1-0.1,0.2-0.1,0.3c0,0.1,0.1,0.1,0.1,0.1c0.6-0.4,1-0.8,1.6-1.2
  C-279.7,1137.8-279.5,1137.7-279.5,1137.5z M-278.7,1138.4c-0.2,0-0.2,0.1-0.3,0.1c-0.3,0.1-0.6,0.3-0.9,0.6c-0.1,0-0.1,0.1-0.1,0.1
  c-0.3,0.3-0.8,0.8-1.1,1.1v0.1c0,0,0,0,0.1,0c0.6-0.4,1.2-0.9,1.8-1.3C-279,1138.8-278.9,1138.7-278.7,1138.4z M-272.1,1144.4
  c0.2-0.1,0.3-0.2,0.4-0.3c0.1-0.3,0.3-0.6,0.4-0.9c0-0.1,0-0.1,0-0.2l-0.1-0.1c-0.2,0-0.3,0.3-0.4,0.4c-0.2,0.2-0.3,0.4-0.3,0.8
  C-272.1,1144-272.1,1144.2-272.1,1144.4z M-267.1,1125.2c0.2-0.1,0.4-0.2,0.6-0.2l0,0c0,0,0-0.1-0.1-0.1c-0.3,0-0.7,0-0.9,0
  c-0.1,0-0.2,0.1-0.3,0.2c0.1,0.1,0.2,0.3,0.4,0.4C-267.2,1125.4-267.2,1125.3-267.1,1125.2z M-262.5,1153.7c0.2,0.2,0.3,0.2,0.4,0.2
  c0.2-0.1,0.6-0.1,0.8-0.2l0.1-0.1v-0.1c-0.3-0.1-0.6-0.2-0.9-0.1C-262.4,1153.3-262.5,1153.5-262.5,1153.7z M-241.4,1146.3
  L-241.4,1146.3c0.4-0.2,0.8-0.4,1.1-0.8v-0.1v-0.1h-0.1c-0.1,0-0.1,0-0.2,0.1c-0.2,0.2-0.4,0.4-0.7,0.7
  C-241.4,1145.9-241.4,1146.2-241.4,1146.3L-241.4,1146.3z M-260.2,1124.7c-0.1,0-0.2,0-0.3,0.1c-0.3,0.1-0.7,0.3-0.9,0.4v0.1h0.1
  c0.2-0.1,0.6-0.2,0.9-0.2c0.1,0,0.2-0.1,0.3-0.1s0.1-0.1,0.1-0.1s0-0.1,0-0.2C-260.1,1124.8-260.1,1124.8-260.2,1124.7z
   M-242.8,1143.7C-242.8,1143.6-242.8,1143.6-242.8,1143.7c-0.1-0.1-0.1-0.1-0.1-0.1c-0.2,0.1-0.4,0.2-0.7,0.4
  c-0.1,0.1-0.2,0.2-0.2,0.4v0.1h0.1c0.1-0.1,0.7-0.6,0.7-0.7C-242.8,1143.8-242.8,1143.7-242.8,1143.7z M-271.2,1140.3
  c-0.3,0.1-0.4,0.1-0.8,0.6c0.1,0.1,0.3,0,0.6,0c0.4,0,0.4-0.1,0.3-0.4C-271.2,1140.4-271.2,1140.4-271.2,1140.3z M-256.4,1151.9
  L-256.4,1151.9c0.4-0.2,0.7-0.4,1-0.7c0,0,0-0.1,0-0.2h-0.1c-0.1,0-0.2,0-0.2,0.1C-255.9,1151.3-256.1,1151.5-256.4,1151.9
  C-256.4,1151.8-256.4,1151.8-256.4,1151.9L-256.4,1151.9L-256.4,1151.9z M-241.7,1141.7C-241.5,1141.7-241.5,1141.7-241.7,1141.7
  c0.4-0.2,0.8-0.6,1.1-0.8c0,0,0-0.1,0.1-0.2c0,0-0.1-0.1-0.2,0C-241,1140.9-241.3,1141.3-241.7,1141.7
  C-241.7,1141.6-241.7,1141.7-241.7,1141.7L-241.7,1141.7z M-241.3,1147.2c0.3-0.1,0.4-0.2,0.6-0.3c0.2-0.1,0.3-0.3,0.4-0.4
  c0,0,0,0,0-0.1v-0.2h-0.1c-0.2,0.2-0.6,0.4-0.8,0.8C-241.2,1146.9-241.3,1147-241.3,1147.2z M-243.9,1130c0,0.1,0.1,0.2,0.2,0.2
  s0.2,0,0.3,0c0.2-0.2,0.1-0.4,0-0.7h-0.1C-243.8,1129.6-243.9,1129.7-243.9,1130C-244,1129.9-243.9,1129.9-243.9,1130z M-268,1150.9
  L-268,1150.9c0.3-0.1,0.6-0.3,0.7-0.6c0,0,0,0,0-0.1h-0.1c-0.2,0.1-0.4,0.3-0.7,0.6C-268.1,1150.8-268.1,1150.8-268,1150.9
  L-268,1150.9z M-281,1141.7c-0.2,0.1-0.3,0.2-0.4,0.4c0,0.1,0,0.2,0,0.2l0.1,0.1c0.2-0.1,0.4-0.3,0.4-0.6
  C-281,1141.8-281,1141.8-281,1141.7z M-242.7,1147.4c-0.3,0-0.3,0-0.4,0.1c-0.1,0.1-0.2,0.2-0.2,0.3v0.1c0,0.1,0.1,0,0.2,0
  C-243,1147.8-242.9,1147.6-242.7,1147.4z M-253.2,1146.5c-0.2,0.2-0.4,0.3-0.7,0.6v0.1c0,0.1,0.1,0.1,0.2,0
  C-253.4,1147-253.3,1146.8-253.2,1146.5z M-242.5,1145.4c-0.3,0.2-0.7,0.4-0.9,0.8v0.1h0.1c0.2-0.2,0.6-0.4,0.8-0.7
  C-242.7,1145.6-242.7,1145.6-242.5,1145.4z M-269.8,1148.6c0.1,0,0.2,0,0.2,0c0.2-0.1,0.3-0.3,0.3-0.6l0,0h-0.1c0,0-0.1,0-0.1,0.1
  S-269.5,1148.4-269.8,1148.6z M-276.1,1134.9c-0.1,0-0.1,0-0.2,0c-0.2,0.1-0.3,0.2-0.6,0.4v0.1h0.1c0.2-0.1,0.4-0.2,0.6-0.3
  C-276.1,1135-276.2,1135-276.1,1134.9z M-262.9,1153.7c0-0.1,0-0.2,0-0.3c0-0.1-0.2-0.1-0.2-0.1c-0.1,0.1-0.2,0.2-0.3,0.4
  C-263.3,1153.7-263.1,1153.7-262.9,1153.7z M-264,1124.8l-0.1-0.1c-0.2,0-0.3,0.1-0.4,0.2c0,0,0,0.1,0.1,0.1h0.1
  C-264.2,1125.2-264.1,1125-264,1124.8L-264,1124.8z M-255.3,1135.8l-0.1-0.1c-0.2,0.1-0.3,0.2-0.6,0.3v0.1l0,0
  c0.2,0,0.3-0.1,0.6-0.2C-255.3,1135.9-255.3,1135.9-255.3,1135.8z M-242,1151.5c-0.1,0-0.2,0-0.3,0.1c-0.1,0.1-0.1,0.2-0.1,0.3
  c0,0,0,0.1,0.1,0.1h0.1c0-0.1,0-0.2,0.1-0.3C-242.1,1151.7-242,1151.6-242,1151.5z M-240.9,1130c0.1,0,0.2-0.1,0.2-0.1
  c0-0.2-0.1-0.3-0.3-0.3l-0.1,0.1C-241.1,1129.8-241.1,1129.9-240.9,1130C-241,1129.9-241,1130-240.9,1130z M-272.4,1165.6
  c0.1,0.1,0.2,0.1,0.3,0.1s0.2-0.1,0.2-0.1c0-0.1,0-0.2-0.1-0.2c0,0-0.1,0-0.2,0S-272.4,1165.5-272.4,1165.6z M-265.1,1131.9
  c0.1-0.1,0.3-0.2,0.4-0.3c0,0,0,0,0-0.1l0,0c-0.2,0-0.3,0.1-0.4,0.2c0,0,0,0.1-0.1,0.1C-265.2,1131.8-265.2,1131.8-265.1,1131.9
  C-265.2,1131.8-265.2,1131.8-265.1,1131.9z M-270.5,1128.5c0,0,0.1,0,0.2-0.1c0.1,0,0-0.2,0-0.2c-0.1,0-0.1,0-0.2,0
  s-0.1,0.1-0.1,0.1C-270.8,1128.4-270.8,1128.5-270.5,1128.5z M-260.2,1132.3c-0.4,0-0.4,0-0.6,0.2c0,0,0,0.1,0.1,0.1c0,0,0,0,0.1,0
  S-260.3,1132.5-260.2,1132.3z M-258.1,1125.4c0.2,0,0.3-0.1,0.4-0.2v-0.1C-257.9,1125.1-258,1125.2-258.1,1125.4
  C-258.1,1125.3-258.2,1125.3-258.1,1125.4C-258.1,1125.3-258.1,1125.4-258.1,1125.4z M-242.3,1147.2c0.1-0.1,0.2-0.1,0.3-0.2v-0.1
  c0,0-0.1-0.1-0.1,0C-242.2,1146.8-242.4,1146.9-242.3,1147.2C-242.4,1147-242.3,1147.2-242.3,1147.2z M-249.9,1165.2
  c0.3,0,0.3,0,0.4-0.1l0,0c0,0,0,0,0-0.1l0,0C-249.7,1164.9-249.7,1164.9-249.9,1165.2z M-279.1,1155.5c0.1,0,0.1,0,0.2,0
  c0.1,0,0.1-0.1,0.1-0.2c-0.1-0.1-0.2-0.1-0.3-0.1s-0.1,0.1-0.2,0.1C-279.3,1155.4-279.3,1155.4-279.1,1155.5
  C-279.2,1155.5-279.2,1155.5-279.1,1155.5z M-264.3,1153.2c0,0,0.1,0,0.1-0.1c0.1-0.1,0.1-0.2,0-0.2c-0.1-0.1-0.1,0-0.2,0l-0.1,0.1
  C-264.5,1153-264.4,1153.2-264.3,1153.2z M-248.2,1163.4c0,0,0.1,0,0.1-0.1v-0.1c0,0-0.1,0-0.1-0.1h-0.1l-0.1,0.1
  C-248.4,1163.3-248.3,1163.4-248.2,1163.4z M-253.2,1130C-253.2,1129.9-253.2,1129.9-253.2,1130c-0.2-0.1-0.3,0-0.3,0.2l0.1,0.1
  C-253.3,1130.3-253.2,1130.2-253.2,1130z M-250.8,1128.2L-250.8,1128.2c0.1-0.1,0.2-0.1,0.3-0.2v-0.1h-0.1
  C-250.8,1127.8-250.9,1127.9-250.8,1128.2C-250.9,1128-250.9,1128-250.8,1128.2z M-265.2,1152.9c0.2-0.1,0.3-0.2,0.4-0.3v-0.1h-0.1
  C-265,1152.6-265.1,1152.6-265.2,1152.9z M-272,1132.4c-0.2,0-0.3,0.1-0.4,0.2v0.1h0.1C-272.1,1132.7-272,1132.6-272,1132.4z
   M-256.1,1156.3c0.1,0,0.3-0.1,0.3-0.2l0,0C-255.9,1156-256,1156-256.1,1156.3C-256.2,1156.2-256.2,1156.2-256.1,1156.3z
   M-265.5,1128.5C-265.5,1128.5-265.5,1128.4-265.5,1128.5c-0.2-0.1-0.2-0.1-0.3,0v0.1l0,0C-265.7,1128.6-265.7,1128.6-265.5,1128.5
  L-265.5,1128.5z M-253.4,1151.5c0.1,0,0.1,0,0.1,0c0.1-0.1,0.1-0.1,0.2-0.2c0,0,0,0,0-0.1l0,0
  C-253.2,1151.2-253.3,1151.2-253.4,1151.5C-253.4,1151.4-253.4,1151.5-253.4,1151.5z M-273.3,1127.9c-0.1,0-0.2,0.1-0.2,0.1v0.1h0.1
  C-273.3,1128.3-273.2,1128.2-273.3,1127.9C-273.2,1128-273.2,1128-273.3,1127.9C-273.2,1127.9-273.2,1127.9-273.3,1127.9z
   M-242.9,1141.4c0.1,0,0.2,0,0.2-0.1v-0.1c0,0,0,0-0.1,0c-0.1,0-0.1,0-0.2,0.1C-242.9,1141.2-242.9,1141.3-242.9,1141.4
  L-242.9,1141.4z M-266.1,1151.6L-266.1,1151.6C-266.1,1151.5-266.1,1151.5-266.1,1151.6c-0.1,0-0.2,0-0.2,0.1v0.1h0.1
  C-266.1,1151.7-266.1,1151.7-266.1,1151.6z M-253.8,1137.3C-253.9,1137.3-253.9,1137.2-253.8,1137.3
  C-253.9,1137.2-253.9,1137.2-253.8,1137.3c-0.2,0-0.2,0-0.2,0.1l0,0l0,0C-254,1137.4-253.9,1137.4-253.8,1137.3z M-244.1,1139.6
  C-244.1,1139.5-244.1,1139.5-244.1,1139.6c-0.2,0-0.3,0.1-0.3,0.2l0,0l0,0C-244.2,1139.8-244.2,1139.7-244.1,1139.6L-244.1,1139.6z
   M-272.2,1147c0.1,0,0.1-0.1,0.2-0.2c0-0.1-0.1-0.1-0.1-0.1l-0.1,0.1C-272.2,1146.9-272.2,1147-272.2,1147z M-243.7,1136.2
  L-243.7,1136.2c-0.2,0-0.2,0-0.3,0.1v0.1c0,0,0,0,0.1,0C-243.7,1136.4-243.7,1136.4-243.7,1136.2z M-272.8,1129.7
  c0.1,0,0.1,0.1,0.1,0.1l0.1-0.1c0.1-0.1,0-0.2,0-0.1C-272.7,1129.6-272.7,1129.6-272.8,1129.7z M-271.4,1135
  C-271.4,1135-271.3,1135-271.4,1135c0.1-0.1,0.1-0.2,0.1-0.3l0,0c-0.1,0-0.1,0-0.1,0.1C-271.5,1134.9-271.5,1134.9-271.4,1135
  C-271.5,1135-271.5,1135-271.4,1135z M-253,1148.8c0.1,0,0.1-0.1,0.2-0.1v-0.1l0,0C-253,1148.6-253,1148.6-253,1148.8
  C-253.1,1148.7-253.1,1148.7-253,1148.8C-253.1,1148.7-253,1148.8-253,1148.8z M-243.2,1157.2L-243.2,1157.2
  C-243.2,1157-243.2,1157-243.2,1157.2c-0.1,0-0.2,0-0.2,0.1c0,0,0,0,0,0.1h0.1C-243.2,1157.3-243.2,1157.3-243.2,1157.2z
   M-249.8,1125.2C-249.7,1125.2-249.7,1125.1-249.8,1125.2l0.1-0.2h-0.1c-0.1,0-0.1,0-0.2,0v0.1
  C-249.9,1125-249.8,1125.2-249.8,1125.2z M-277.1,1137.2C-277.1,1137-277.1,1137-277.1,1137.2C-277.2,1137-277.2,1137-277.1,1137.2
  c-0.1,0-0.2,0-0.2,0v0.1l0,0C-277.2,1137.3-277.2,1137.2-277.1,1137.2z M-277,1140.6l0.1-0.1v-0.1
  C-277,1140.4-277,1140.4-277,1140.6C-277,1140.5-277,1140.5-277,1140.6z M-255.8,1133.2C-255.8,1133-255.8,1133-255.8,1133.2
  c-0.1-0.1-0.1-0.1-0.1-0.1C-256,1133-256,1133.2-255.8,1133.2C-255.9,1133.2-255.9,1133.2-255.8,1133.2z M-254.1,1164.2
  C-254.2,1164.2-254.2,1164-254.1,1164.2c-0.2,0-0.2,0.1-0.2,0.1l0,0C-254.2,1164.3-254.1,1164.3-254.1,1164.2z M-261.7,1155.3
  C-261.7,1155.3-261.7,1155.4-261.7,1155.3C-261.8,1155.4-261.8,1155.4-261.7,1155.3c0,0.1,0,0.2,0.1,0.1c0,0,0,0,0.1-0.1
  C-261.5,1155.4-261.5,1155.4-261.7,1155.3L-261.7,1155.3z M-243.3,1134.3l0.1-0.1v-0.1C-243.3,1133.9-243.4,1134-243.3,1134.3
  C-243.4,1134.2-243.4,1134.2-243.3,1134.3z M-265.1,1128.3l0.1-0.1h-0.1C-265.2,1128.2-265.2,1128.2-265.1,1128.3
  C-265.2,1128.3-265.2,1128.3-265.1,1128.3z M-241.3,1158.4L-241.3,1158.4c0.1-0.2,0.1-0.2,0-0.2
  C-241.3,1158.2-241.3,1158.3-241.3,1158.4C-241.3,1158.3-241.3,1158.4-241.3,1158.4z M-259.3,1163.6l0.1-0.1c0,0,0,0,0-0.1h-0.1
  C-259.4,1163.5-259.3,1163.6-259.3,1163.6z M-266.3,1126.4C-266.3,1126.3-266.3,1126.3-266.3,1126.4
  C-266.3,1126.3-266.3,1126.3-266.3,1126.4C-266.3,1126.3-266.4,1126.3-266.3,1126.4C-266.4,1126.3-266.3,1126.3-266.3,1126.4z
   M-269.3,1147.5L-269.3,1147.5C-269.4,1147.5-269.4,1147.5-269.3,1147.5C-269.5,1147.5-269.5,1147.6-269.3,1147.5
  C-269.4,1147.6-269.4,1147.6-269.3,1147.5C-269.4,1147.5-269.3,1147.5-269.3,1147.5z M-255.4,1132.8
  C-255.4,1132.7-255.4,1132.7-255.4,1132.8C-255.4,1132.7-255.4,1132.7-255.4,1132.8C-255.4,1132.7-255.4,1132.7-255.4,1132.8
  C-255.4,1132.7-255.4,1132.8-255.4,1132.8z M-250.8,1142.8L-250.8,1142.8c0.1-0.1,0.1-0.1,0.1-0.1s0,0-0.1,0
  C-250.8,1142.7-250.8,1142.7-250.8,1142.8L-250.8,1142.8z M-256.1,1163.4C-256.1,1163.3-256,1163.3-256.1,1163.4
  C-256,1163.3-256,1163.3-256.1,1163.4C-256.1,1163.2-256.2,1163.2-256.1,1163.4C-256.2,1163.3-256.1,1163.3-256.1,1163.4z
   M-254.7,1137.6C-254.5,1137.7-254.5,1137.7-254.7,1137.6C-254.5,1137.7-254.5,1137.7-254.7,1137.6
  C-254.5,1137.6-254.5,1137.6-254.7,1137.6C-254.5,1137.6-254.5,1137.5-254.7,1137.6C-254.5,1137.6-254.5,1137.6-254.7,1137.6z
   M-245,1125.8L-245,1125.8c-0.1-0.1-0.1-0.1-0.1-0.1C-245.1,1125.8-245.1,1125.9-245,1125.8C-245.1,1125.9-245,1125.8-245,1125.8z
   M-242.7,1127.2C-242.7,1127-242.7,1127-242.7,1127.2C-242.7,1127-242.7,1127-242.7,1127.2C-242.8,1127-242.8,1127-242.7,1127.2
  C-242.8,1127-242.8,1127-242.7,1127.2z M-243.8,1161.4C-243.8,1161.4-243.8,1161.3-243.8,1161.4
  C-243.8,1161.3-243.8,1161.3-243.8,1161.4C-243.8,1161.3-243.9,1161.3-243.8,1161.4C-243.9,1161.4-243.8,1161.4-243.8,1161.4z
   M-256.3,1133.4C-256.3,1133.4-256.3,1133.3-256.3,1133.4C-256.3,1133.3-256.3,1133.3-256.3,1133.4
  C-256.3,1133.3-256.3,1133.4-256.3,1133.4L-256.3,1133.4z M-265.3,1136.2L-265.3,1136.2C-265.2,1136.2-265.3,1136-265.3,1136.2
  C-265.3,1136-265.3,1136-265.3,1136.2C-265.3,1136-265.3,1136.2-265.3,1136.2z M-264.7,1127.9L-264.7,1127.9
  C-264.5,1127.8-264.5,1127.8-264.7,1127.9C-264.5,1127.8-264.7,1127.8-264.7,1127.9C-264.7,1127.8-264.7,1127.8-264.7,1127.9z
   M-243.8,1157.7L-243.8,1157.7C-243.8,1157.6-243.8,1157.6-243.8,1157.7C-243.8,1157.6-243.9,1157.6-243.8,1157.7
  C-243.9,1157.7-243.9,1157.7-243.8,1157.7z M-243.7,1162.4L-243.7,1162.4C-243.5,1162.4-243.7,1162.3-243.7,1162.4
  C-243.7,1162.3-243.7,1162.4-243.7,1162.4C-243.8,1162.4-243.7,1162.4-243.7,1162.4z M-261.1,1154.8L-261.1,1154.8L-261.1,1154.8
  L-261.1,1154.8L-261.1,1154.8z M-252.5,1126.3C-252.5,1126.3-252.4,1126.3-252.5,1126.3c0.1-0.1,0.1-0.1,0.1-0.1
  C-252.5,1126.2-252.5,1126.2-252.5,1126.3L-252.5,1126.3z M-274.2,1125.4C-274.2,1125.5-274.2,1125.5-274.2,1125.4
  C-274.2,1125.5-274.2,1125.5-274.2,1125.4C-274.1,1125.5-274.1,1125.5-274.2,1125.4C-274.1,1125.4-274.2,1125.4-274.2,1125.4z
   M-277.1,1132.6L-277.1,1132.6C-277.1,1132.6-277,1132.5-277.1,1132.6C-277,1132.5-277.1,1132.5-277.1,1132.6
  C-277.2,1132.5-277.1,1132.5-277.1,1132.6z M-240.7,1141.9L-240.7,1141.9c0.1,0,0.1,0,0.1,0S-240.7,1141.8-240.7,1141.9
  C-240.7,1141.8-240.7,1141.9-240.7,1141.9z M-245.5,1127.8L-245.5,1127.8L-245.5,1127.8L-245.5,1127.8z M-279.5,1150.5
  C-279.7,1150.5-279.7,1150.6-279.5,1150.5C-279.5,1150.6-279.5,1150.5-279.5,1150.5L-279.5,1150.5z M-246.2,1165
  C-246.1,1165-246.1,1165-246.2,1165C-246.1,1165-246.1,1164.9-246.2,1165L-246.2,1165L-246.2,1165z M-254.7,1163.9L-254.7,1163.9
  L-254.7,1163.9C-254.7,1163.7-254.7,1163.8-254.7,1163.9C-254.7,1163.8-254.7,1163.8-254.7,1163.9z M-242.4,1133.2
  C-242.4,1133-242.4,1133-242.4,1133.2C-242.5,1133-242.5,1133-242.4,1133.2C-242.5,1133.2-242.5,1133.2-242.4,1133.2L-242.4,1133.2z
   M-268.3,1125.3L-268.3,1125.3L-268.3,1125.3C-268.4,1125.4-268.3,1125.4-268.3,1125.3C-268.3,1125.4-268.3,1125.4-268.3,1125.3z
   M-268.5,1142.2L-268.5,1142.2C-268.5,1142.3-268.5,1142.3-268.5,1142.2C-268.5,1142.3-268.5,1142.3-268.5,1142.2
  C-268.5,1142.3-268.5,1142.3-268.5,1142.2z M-269.1,1152.9C-269.1,1152.8-269.1,1152.8-269.1,1152.9
  C-269,1152.8-269.1,1152.8-269.1,1152.9C-269.1,1152.8-269.1,1152.8-269.1,1152.9C-269.1,1152.8-269.1,1152.8-269.1,1152.9z
   M-270,1149.9L-270,1149.9C-269.9,1149.8-270,1149.8-270,1149.9C-270,1149.8-270,1149.8-270,1149.9L-270,1149.9z M-241.5,1128.9
  L-241.5,1128.9L-241.5,1128.9C-241.7,1128.8-241.7,1128.9-241.5,1128.9C-241.7,1128.9-241.5,1128.9-241.5,1128.9z M-243.5,1135.3
  C-243.5,1135.3-243.4,1135.3-243.5,1135.3C-243.4,1135.2-243.5,1135.2-243.5,1135.3C-243.5,1135.2-243.5,1135.3-243.5,1135.3
  L-243.5,1135.3z M-279.2,1134.7L-279.2,1134.7L-279.2,1134.7L-279.2,1134.7z M-261.2,1126.9L-261.2,1126.9L-261.2,1126.9
  L-261.2,1126.9z M-281.2,1142.9L-281.2,1142.9L-281.2,1142.9L-281.2,1142.9z M-241.3,1160L-241.3,1160L-241.3,1160L-241.3,1160
  L-241.3,1160z M-271.5,1132.2L-271.5,1132.2L-271.5,1132.2L-271.5,1132.2z M-261,1130.5C-261,1130.5-260.9,1130.5-261,1130.5
  C-260.9,1130.5-261,1130.5-261,1130.5L-261,1130.5z M-270.8,1134.5L-270.8,1134.5L-270.8,1134.5
  C-270.9,1134.5-270.9,1134.5-270.8,1134.5L-270.8,1134.5z M-241.1,1142.2L-241.1,1142.2L-241.1,1142.2L-241.1,1142.2L-241.1,1142.2z
   M-265,1125.4L-265,1125.4C-265,1125.4-264.9,1125.3-265,1125.4C-265,1125.3-265,1125.3-265,1125.4
  C-265,1125.3-265,1125.4-265,1125.4z M-241.2,1153.3L-241.2,1153.3L-241.2,1153.3L-241.2,1153.3z M-276.9,1132.4
  C-276.8,1132.4-276.8,1132.4-276.9,1132.4C-276.8,1132.4-276.8,1132.3-276.9,1132.4C-276.8,1132.3-276.8,1132.3-276.9,1132.4
  C-276.8,1132.3-276.8,1132.3-276.9,1132.4z M-241.5,1148.3L-241.5,1148.3L-241.5,1148.3L-241.5,1148.3z M-263.9,1164.6
  C-263.8,1164.6-263.8,1164.6-263.9,1164.6C-263.8,1164.6-263.9,1164.6-263.9,1164.6L-263.9,1164.6L-263.9,1164.6z M-262.9,1154
  L-262.9,1154L-262.9,1154L-262.9,1154L-262.9,1154z M-273.2,1127.3C-273.2,1127.2-273.2,1127.2-273.2,1127.3
  C-273.2,1127.2-273.2,1127.2-273.2,1127.3C-273.2,1127.2-273.2,1127.3-273.2,1127.3L-273.2,1127.3z M-240.7,1150.6L-240.7,1150.6
  L-240.7,1150.6L-240.7,1150.6z M-256.5,1156.6L-256.5,1156.6L-256.5,1156.6L-256.5,1156.6z M-247.9,1127.9L-247.9,1127.9
  L-247.9,1127.9L-247.9,1127.9z M-259,1163.7C-259,1163.7-259,1163.8-259,1163.7C-259,1163.8-259,1163.7-259,1163.7L-259,1163.7
  L-259,1163.7z M-259.9,1164.2C-259.9,1164.2-259.9,1164-259.9,1164.2C-259.9,1164-259.9,1164.2-259.9,1164.2L-259.9,1164.2
  L-259.9,1164.2z M-260,1128.6L-260,1128.6L-260,1128.6L-260,1128.6z M-244.1,1134.5L-244.1,1134.5L-244.1,1134.5L-244.1,1134.5z
   M-278.8,1149.9L-278.8,1149.9L-278.8,1149.9L-278.8,1149.9z"/>
</svg>