<?xml version="1.0" encoding="utf-8"?>
<!-- Generator: Adobe Illustrator 18.1.1, SVG Export Plug-In . SVG Version: 6.00 Build 0)  -->
<svg version="1.1" id="Layer_1" xmlns="http://www.w3.org/2000/svg" xmlns:xlink="http://www.w3.org/1999/xlink" x="0px" y="0px"
	 viewBox="0 0 240.5 252.4" enable-background="new 0 0 240.5 252.4" xml:space="preserve">
<g>
	<path fill="#BDBBBB" d="M53.7,100.8"/>
	<path fill="#5F6767" d="M64.7,152.3"/>
	<path fill="#5F6767" d="M112.2,87.9"/>
	<path fill="#5F6767" d="M54.3,123"/>
	<path fill="#FFFFFF" d="M228.5,115.7c2.2,57.3-27.5,97.6-37.7,103.4c-13.3-35-39.2-69.7-39.2-69.7C105.1,85,80.8,62.4,69.5,45.6
		c-9.9-14.7-0.3-27.8-0.4-28.7c0,0-8.6,4.2-10.6,16.3c0,0-37.5-14.5-58.4-5.7c10.4-2.5,49.2,1.9,72.6,29.4
		c10.9,12.8,23.9,28.5,36.5,44.1c1.1,1.4,2.3,2.8,3.4,4.1c14.9,18.7,28.7,37,36.8,49.8c15.5,24.5,40.3,71.3,20.1,91.4l2.2-1
		c37.6-16.8,64.7-63.8,64.7-119.1c0-3.1-0.1-6.3-0.4-9.5C233.4,116.2,231,115.9,228.5,115.7z"/>
	<path fill="#FFFFFF" d="M236,135.8c0,0-0.1-17,4.3-17.3l0.1-1.4c-20.8-6.5-32.9,2.7-32.9,2.7c15-3,22.5,4.9,22.6,9.9"/>
	<path fill="#FFFFFF" d="M141.1,252.4c-52.8,0-95.7-56.6-95.7-126.2c0-22.4,4.9-44.2,13.5-63.5l0,0c-8.5,19.1-7.3,41-7.6,63.3
		c-1,73.4,38.8,124.4,89.8,125.5c7.4,0.1,14.9-0.8,22.1-2.4l0,0C155.9,251.3,148.5,252.4,141.1,252.4z"/>
	<path fill="#FFFFFF" d="M70.5,206.4c1.1,2-28-44.4-4.9-75.2c0.7-0.8-4-0.8-5.8,1.3c0,0,4.5-8.6-1.5-15.1c0,0,1.9-6.8-2.2-11
		c0,0,1.5-3.1,0.7-4.6c0,0-6.5-15.7,2-39c0.9-2.4-22.9,46.2-9.3,97.2C60.2,199.7,70.5,206.4,70.5,206.4z"/>
	<g>
		<path fill="#FFFFFF" d="M96.5,85.5c-7.6-9-16.6-18.3-23.5-26.1C53.3,37.2,27.6,29.7,10.8,29.2c15.1,3.4,43.5,13.4,68.5,42.6
			c36.1,42.1,46.5,59.6,46.5,59.6s-10,13.8-11.2,15.8c-1.3,2.2-5.3,8.5-5.9,10.4c6.9-5.2,22.3-12.5,29.6-14.6
			c-5.8-8.4-12.1-18.5-19.3-29.1C113,105.1,103.8,94.1,96.5,85.5z"/>
		<path fill="#FFFFFF" d="M224.9,58.1c-19.4-7.6-41.6,6.7-41.6,6.7c-2.5-6.6-10.8-7.2-10.8-7.2s11.7,3.9,5.3,17.1
			c-2.9,5.9-8.2,13.6-12.7,19.9c3.3-4.8,8-12.1,11.9-20.2c1.9-4,2-7.6,0.9-10.4c-0.5-1.1-1.2-2-1.9-2.7c1.2,2.4,1.7,5.9-1.1,10.5
			l-27.6,43.6c0,0-5.3,9.5-13.9,0c-3.6-4-34.2-40.6-34.2-40.6C74,45.2,68.6,30.2,68.2,22.7c-1.9,5-3.5,13.2,2.4,22.1
			c4.2,6.2,11.3,16.6,19.7,26.5c8,9.3,16.9,21.1,29.7,36.5c1.7,2.1,3.6,4.2,5.5,6.4c6.4,7.6,14.3,16.1,22.1,26.1
			c11.2-3,18.8-3.4,18.8-3.4c-10.1-4.9-13-10.1-13-10.1s23-40.8,37.5-55.1c8.1-8,17.8-11.3,24.8-12.6c-9,0.8-23.5,3.2-33.6,16.6
			l-9.6,13.1c4.3-6.4,8.2-12.4,8.8-13.2C197.6,53.2,224.9,58.1,224.9,58.1z"/>
	</g>
	<path fill="#FFFFFF" d="M216.3,48.2C216.3,48.2,216.3,48.2,216.3,48.2c0-0.1-0.1-0.1-0.1-0.2c-1.7-3-3.6-5.8-5.6-8.5
		C192.5,14.3,167.7,0,141.1,0c-22.6,0-44.6,10.6-61.8,29.9C97.8,11,118.4,1.3,140.8,1.3c11.4,0,22.5,2.8,32.9,8
		c16.3,8.8,24.6,18.8,26.4,24.1c1.7,5.2,3.4,5.2,3.4,5.2c-0.3,1.9,0.5,4.2,2.8,5.3c10.2,4.8,12.1,8.2,12.1,8.2
		C217.7,50.7,217,49.5,216.3,48.2z"/>
	<g>
		<path fill="#B03393" d="M141.9,244.2c-24.3,0-44-20-44-44.6c0-6.3,1.3-12.4,3.8-18c0.1-0.2,0.2-0.4,0.4-0.7
			c5.8-11.1,16-17.4,20.3-18.6c4.2-1.2,5.2-2.9,5.2-2.9c1.4,0.4,3.3,0.1,4.5-1.6c3.9-5.9,6.5-7.4,7.4-7.8
			c-8.8,2.9-16.1,6.6-21.6,10.7c-13.5,9.7-21.1,23-21.1,38.9c0,25.1,20.5,45.6,45.3,45.6c9.9,0,19.3-3.2,27.2-9.3
			C161.3,241.8,151.6,244.2,141.9,244.2z"/>
	</g>
	<path fill="#B03393" d="M169.4,69.4c-0.7,1.7-15.7,25.9-23.6,38.5c-1.2,1.7-3.1,2.8-5.2,2.8c-2,0-4.1-1.5-5-2.4
		c-1-1-26.9-32.4-31.6-42.9c-1.3-3-2.2-6.2-2.7-9.4c-0.1-0.4-0.1-0.8-0.2-1.3c-1-9.6,2.3-19.5,9-27.1c11.6-12,24.5-11.2,32-7
		c6.9,3.9,10.2,10.9,8.3,17.8c-1.7,4.7-5.3,8.1-10.1,9.6c-4.7,1.4-8.7,1.2-13.1-2.1c-4.1-3.1-4.4-6.7-4.7-7.1
		c-0.4-0.8-1.4-0.5-1.6-0.1c-0.7,1.2,2.5,6,5.5,8.1c4.6,3.3,9.1,3.5,14.1,2c5.1-1.5,8.9-5.1,10.7-10.2c2-7.3-1.5-14.7-8.8-18.9
		c-7.8-4.4-21.2-5.2-33.1,7.2c-3.2,3.7-5.6,7.8-7.2,12.2c4.6-17.1,20-29.4,38.2-29.4c0.1,0,0.1,0,0.2,0
		c16.2,0.1,32.8,10.7,38.2,25.6c-5.6-15.3-21.6-26.4-38.2-26.5c-0.1,0-0.2,0-0.2,0c-20.9,0-38.3,15.7-40.3,36.7l-0.2,4.1
		c0,1.8,0.1,3.5,0.3,5.2c0.3,3.1,1.1,6.1,2.2,8.9c0.3,0.7,0.5,1.4,0.8,2c4.7,10.5,30.8,42.1,31.8,43.1c1.2,1.3,3.5,2.7,5.7,2.7
		c2.4,0,4.7-1.2,6-3.2c0.9-1.5,22.8-36.4,23.6-38.6c0.6-1.5,0.7-2,0.7-3.1c0-1.5-0.5-2.9-1.3-4.1C170.1,63.6,171.4,65.3,169.4,69.4z
		"/>
	<path fill="#B03393" d="M144.1,235.4c-10.7,0-19.9-4.2-26.6-11.3c-0.1-0.1-0.2-0.3-0.3-0.4c-0.1-0.1-0.2-0.3-0.3-0.4
		c-1.6-2.1-2.3-4.9-1.8-7.2c1.4-5.9,7.2-5.9,9.7-3.6c1.4,1.2,1.4,3.3,0.9,4.6s1,2,1.5,0.3c0.4-1.5-0.1-3.9-1.7-5.3
		c-2-1.8-4.9-2.2-7.2-1c-2.1,1.1-3.5,2.9-4.1,5.2c-0.3,1.3-0.3,2.6,0,3.9c-4.4-6.5-6.6-14.7-6-23c2-16.5,12.7-23.7,21.3-24.9
		c7.9-1.1,14.7,2.5,17.4,9.1c1.5,4.8,0.7,9.7-2.2,13.7c-2.9,3.9-6.1,6.2-11.7,6.2c-5.1,0-7.6-2.7-8-2.9c-0.8-0.4-1.4,0.5-1.3,0.9
		c0.2,1.4,5.7,3.3,9.3,3.2c5.7-0.2,9.4-2.7,12.4-6.9c3.1-4.3,4-9.5,2.4-14.6c-2.8-7-10.1-10.8-18.4-9.7c-8.9,1.2-20,8.6-22.1,25.7
		c-0.7,10.4,2.7,20.5,9.5,27.8c6.8,7.3,16.2,11.2,27.2,11.2c4.9,0,9.6-1,14-2.9l0.2-0.2C154,234.6,148.8,235.4,144.1,235.4z"/>
	<path fill="#B03393" d="M221.3,110.7c0.2,0,0.4,0,0.7-0.1c-0.8-10.8-2.5-21.1-5.3-30.5c0,0,0,0,0,0c0,0,0,0,0,0
		C219.2,89.7,220.7,100,221.3,110.7z"/>
	<path fill="#FFFFFF" d="M229.5,110.5c0.3,0,0.6,0,0.9,0.1c-1-14.2-3.3-27.8-6.9-40.2c0,0,0.1,0,0,0c-0.1,0,0,0,0,0
		C226.7,83,228.7,96.5,229.5,110.5z"/>
	<path fill="#B03393" d="M222.3,126.5c-0.2,0-0.4,0-0.6,0c-0.4,9-1.6,18.2-3.6,27.4c-4.4,20.1-11.9,38.4-22.7,54.6l0.1-0.1
		c11-15.3,19.1-34.1,23.6-54.3c2-9.2,3.1-18.5,3.5-27.6C222.4,126.5,222.4,126.5,222.3,126.5z"/>
	<path fill="#B03393" d="M206.6,88.1c-4.9-3.5-13.6-4.9-22.3,2c4.3-6.3,7.9-10.8,10.2-13.3c0.1-0.1-0.4-0.9-0.6-0.7
		c-5.2,5.2-19.7,25.3-31.8,49.4l-0.2,0.3l0.2,0.2c0.1,0.1,7.8,7.6,17.9,11.8l0-0.1c0.3,0.1,0.6,0.2,0.8,0.3c2.8,0.7,5.7,0.3,7.8-1.2
		c1.9-1.4,3-3.4,3.2-5.7c0.2-2.6-1.2-5-3.7-6.2c-2-1-4.3-0.6-5.6,0.4c-1.4,1.1-0.2,2.2,0.8,1.3c1-0.9,3-1.7,4.6-0.9
		c3,1.4,5.2,6.8,0.3,10.4c-1.9,1.4-4.8,1.8-7.3,1.1c-0.3-0.1-0.7-0.2-1.1-0.3c-6.3-2.7-11.7-6.7-14.7-9.2c-1.4-1.1-1.8-3.1-1-4.7
		c5.4-10.4,11.2-19.8,16.3-27.5c1-1.5,2.2-2.8,3.5-4c8.5-7.2,17.2-6,21.9-2.6c4.6,3.3,6,8.3,4.3,12.6c-1.4,3-4,5-7.3,5.6
		c-3.2,0.6-6.7-0.4-8.5-2.3c-1.3-1.5-1.9-3.1-2.4-5.7c-0.2-0.9-1.8-0.6-1.6,0.5c0.2,1.7,1.5,4.3,3.2,5.9c1.8,1.7,4.5,2.6,7.2,2.6
		c0.7,0,1.5-0.1,2.2-0.2c3.6-0.7,6.4-2.9,8-6.2C213.1,96.7,211.3,91.4,206.6,88.1z"/>
	<path fill="#B03393" d="M197.5,149c-0.4-0.6-0.9-1.1-1.5-1.6l0,0c-8.9-8.5-35.6-4.1-40.9-3.1l-0.8,0.1l0.5,0.6
		c0.2,0.2,20.3,24.3,35.5,57.5c-11.6-26.8-26.9-47.9-32.6-55.3c-0.8-1-0.2-2.5,1.1-2.7c26.1-4.2,34.6,1.7,36.4,3.3
		c0.5,0.6,0.9,1.2,1.3,1.7c1.9,2.5,2.7,5.8,2.1,8.5c-1.6,6.9-8.5,7-11.4,4.3c-1.6-1.4-1.6-3.9-1.1-5.4c0.5-1.5-1.2-2.4-1.7-0.3
		c-0.5,1.8,0.1,4.5,2.1,6.3c2.4,2.1,5.7,2.5,8.4,1.2c2.5-1.2,4.2-3.4,4.8-6.1C200.4,155.1,199.6,151.8,197.5,149z"/>
	<path fill="#B03393" d="M117.7,131.6l-0.2-0.3c-0.2-0.3-22.6-33.7-48.6-59.8c17.4,18.4,33.6,40.2,41.9,51.9c-1.4-0.8-2.9-1.2-4.3-1
		c-1.9,0.2-3.5,1.2-4.5,2.7c-1.2,1.7-1.1,4,0.1,5.8c1,1.5,2.8,2.1,4.1,1.9c1.4-0.2,1-1.4-0.1-1.2c-1.1,0.2-2.8,0-3.6-1.2
		c-1.6-2.2-0.9-6.8,3.9-7.4c1.9-0.2,4,0.6,5.6,2.1c0.6,0.6,1.8,2.1,2.2,2.9c1.1,2.2,1.3,4.6-0.3,6.5c-3,3.7-7.4,9.3-11.7,16.2
		c-0.1,0.1-0.2,0.3-0.3,0.4c-7.3,8.4-16,8.6-21.2,6c-5.1-2.5-7.2-7.2-6.3-11.8c1-3.2,3.2-5.6,6.3-6.7c3.1-1.1,6.7-0.7,8.8,1
		c1.6,1.2,2.4,2.8,3.3,5.3c0.3,0.9,1.9,0.3,1.5-0.8c-0.5-1.7-2.1-4.1-4.1-5.4c-2-1.4-4.8-1.9-7.5-1.4c-0.7,0.1-1.5,0.3-2.2,0.6
		c-3.4,1.2-5.9,3.8-6.9,7.4c-1.1,5.1,1.5,10,6.7,12.6c4.9,2.4,12.6,2.7,19.6-3.4c-12,20.2-22.5,48.8-3.8,71.4
		c-27.2-35,13-84.4,21.4-94L117.7,131.6z"/>
	<path fill="#B03393" d="M194.5,76.8l-0.7-0.6c5.1-5.4,11-9.2,17.7-11.1c5.2-1.5,10.9-1.9,16-1.1l0,0c-5.4-0.4-10.7,0.3-15.7,1.8
		C205.3,67.7,199.5,71.5,194.5,76.8z"/>
</g>
</svg>
