<?xml version="1.0" encoding="utf-8"?>
<!-- Generator: Adobe Illustrator 18.1.1, SVG Export Plug-In . SVG Version: 6.00 Build 0)  -->
<svg version="1.1" id="Layer_1" xmlns="http://www.w3.org/2000/svg" xmlns:xlink="http://www.w3.org/1999/xlink" x="0px" y="0px"
	 viewBox="0 0 158.5 166.3" enable-background="new 0 0 158.5 166.3" xml:space="preserve">
<g>
	<path fill="#BDBBBB" d="M35.4,66.4"/>
	<path fill="#5F6767" d="M42.7,100.4"/>
	<path fill="#5F6767" d="M73.9,57.9"/>
	<path fill="#5F6767" d="M35.8,81.1"/>
	<path fill="#392F2C" d="M150.6,76.3c1.5,37.8-18.1,64.3-24.9,68.1c-8.8-23.1-25.8-45.9-25.8-45.9C69.3,56,53.2,41.1,45.8,30
		c-6.5-9.7-0.2-18.3-0.3-18.9c0,0-5.6,2.7-7,10.7c0,0-24.7-9.5-38.5-3.7c6.9-1.7,32.4,1.2,47.8,19.4c7.2,8.4,15.8,18.8,24,29
		c0.7,0.9,1.5,1.8,2.2,2.7c9.8,12.3,18.9,24.4,24.3,32.8c10.2,16.1,26.6,47,13.3,60.2l1.5-0.6c24.8-11.1,42.6-42,42.6-78.5
		c0-2-0.1-4.1-0.3-6.3C153.8,76.6,152.2,76.4,150.6,76.3z"/>
	<path fill="#392F2C" d="M155.5,89.5c0,0,0-11.2,2.9-11.4l0.1-0.9c-13.7-4.3-21.7,1.8-21.7,1.8c9.9-2,14.8,3.2,14.9,6.5"/>
	<path fill="#392F2C" d="M93,166.3c-34.8,0-63-37.3-63-83.2c0-14.8,3.3-29.2,8.9-41.8l0,0c-5.6,12.6-4.8,27-5,41.7
		c-0.6,48.3,25.6,82,59.2,82.7c4.8,0.1,9.8-0.6,14.5-1.6l0,0C102.8,165.6,97.9,166.3,93,166.3z"/>
	<path fill="#392F2C" d="M46.4,136c0.7,1.3-18.5-29.3-3.2-49.6c0.5-0.5-2.6-0.5-3.8,0.8c0,0,2.9-5.7-1-9.9c0,0,1.3-4.5-1.4-7.3
		c0,0,1-2,0.5-3.1c0,0-4.3-10.3,1.3-25.7c0.6-1.6-15.1,30.4-6.1,64.1C39.6,131.6,46.4,136,46.4,136z"/>
	<g>
		<path fill="#392F2C" d="M63.6,56.3c-5-6-10.9-12.1-15.5-17.2c-13-14.6-29.9-19.6-41-19.9c10,2.2,28.7,8.8,45.2,28.1
			c23.8,27.7,30.6,39.3,30.6,39.3s-6.6,9.1-7.4,10.4c-0.9,1.4-3.5,5.6-3.9,6.9c4.6-3.5,14.7-8.2,19.5-9.6c-3.9-5.5-8-12.2-12.7-19.2
			C74.5,69.3,68.4,62,63.6,56.3z"/>
		<path fill="#392F2C" d="M148.2,38.3c-12.8-5-27.4,4.4-27.4,4.4c-1.7-4.3-7.1-4.7-7.1-4.7s7.7,2.5,3.5,11.3
			c-1.9,3.9-5.4,9-8.3,13.1c2.2-3.2,5.2-8,7.8-13.3c1.3-2.6,1.3-5,0.6-6.8c-0.3-0.7-0.8-1.3-1.3-1.8c0.8,1.6,1.1,3.9-0.7,6.9
			L97.1,76c0,0-3.5,6.3-9.2,0c-2.4-2.6-22.6-26.8-22.6-26.8C48.8,29.8,45.2,19.9,44.9,15c-1.3,3.3-2.3,8.7,1.6,14.6
			c2.8,4.1,7.4,11,13,17.4c5.3,6.2,11.1,13.9,19.5,24c1.1,1.4,2.4,2.8,3.6,4.2c4.2,5,9.5,10.6,14.5,17.2c7.4-2,12.4-2.3,12.4-2.3
			c-6.6-3.2-8.6-6.6-8.6-6.6s15.2-26.9,24.7-36.3c5.3-5.3,11.7-7.4,16.3-8.3c-5.9,0.5-15.5,2.1-22.2,10.9l-6.3,8.6
			c2.8-4.2,5.4-8.2,5.8-8.7C130.2,35,148.2,38.3,148.2,38.3z"/>
	</g>
	<path fill="#392F2C" d="M142.5,31.8C142.5,31.8,142.5,31.8,142.5,31.8c0,0-0.1-0.1-0.1-0.1c-1.1-2-2.4-3.8-3.7-5.6
		C126.9,9.4,110.5,0,93,0C78,0,63.6,7,52.2,19.7C64.4,7.2,78,0.9,92.8,0.9c7.5,0,14.8,1.8,21.6,5.3c10.7,5.8,16.2,12.4,17.4,15.9
		c1.1,3.4,2.3,3.4,2.3,3.4c-0.2,1.2,0.3,2.8,1.9,3.5c6.8,3.2,7.9,5.4,7.9,5.4C143.4,33.4,143,32.6,142.5,31.8z"/>
	<g>
		<path fill="#B03393" d="M93.5,160.9c-16,0-29-13.2-29-29.4c0-4.2,0.9-8.2,2.5-11.9c0.1-0.1,0.2-0.3,0.3-0.5
			c3.8-7.3,10.5-11.4,13.4-12.2c2.8-0.8,3.4-1.9,3.4-1.9c0.9,0.3,2.2,0.1,2.9-1.1c2.6-3.9,4.3-4.9,4.9-5.2
			c-5.8,1.9-10.6,4.3-14.3,7.1c-8.9,6.4-13.9,15.2-13.9,25.7c0,16.6,13.5,30,29.8,30c6.5,0,12.7-2.1,17.9-6.1
			C106.3,159.3,99.9,160.9,93.5,160.9z"/>
	</g>
	<path fill="#B03393" d="M111.6,45.8c-0.4,1.1-10.4,17.1-15.5,25.4c-0.8,1.1-2.1,1.8-3.4,1.8c-1.3,0-2.7-1-3.3-1.6
		C88.7,70.7,71.6,50,68.6,43.1c-0.9-2-1.5-4.1-1.8-6.2c0-0.3-0.1-0.6-0.1-0.8c-0.6-6.3,1.5-12.8,5.9-17.9c7.6-7.9,16.1-7.4,21.1-4.6
		c4.6,2.6,6.7,7.2,5.5,11.7c-1.1,3.1-3.5,5.4-6.6,6.3c-3.1,0.9-5.7,0.8-8.6-1.4c-2.7-2-2.9-4.4-3.1-4.7c-0.3-0.5-0.9-0.3-1.1,0
		c-0.5,0.8,1.7,4,3.6,5.4c3,2.2,6,2.3,9.3,1.3c3.4-1,5.9-3.4,7-6.7c1.3-4.8-1-9.7-5.8-12.4c-5.1-2.9-14-3.4-21.8,4.7
		c-2.1,2.4-3.7,5.2-4.8,8.1c3-11.3,13.2-19.3,25.2-19.3c0,0,0.1,0,0.1,0c10.7,0.1,21.6,7,25.2,16.8c-3.7-10.1-14.3-17.4-25.2-17.5
		c-0.1,0-0.1,0-0.1,0C78.7,5.8,67.3,16.2,65.9,30l-0.1,2.7c0,1.2,0.1,2.3,0.2,3.4c0.2,2,0.7,4,1.4,5.9c0.2,0.4,0.3,0.9,0.5,1.3
		c3.1,6.9,20.3,27.8,20.9,28.4c0.8,0.8,2.3,1.8,3.7,1.8c1.6,0,3.1-0.8,4-2.1c0.6-1,15-24,15.6-25.5c0.4-1,0.5-1.3,0.5-2.1
		c0-1-0.3-1.9-0.9-2.7C112.1,41.9,112.9,43.1,111.6,45.8z"/>
	<path fill="#B03393" d="M94.9,155.2c-7.1,0-13.1-2.8-17.5-7.5c-0.1-0.1-0.1-0.2-0.2-0.2c-0.1-0.1-0.1-0.2-0.2-0.3
		c-1.1-1.4-1.5-3.3-1.2-4.8c0.9-3.9,4.8-3.9,6.4-2.4c0.9,0.8,0.9,2.2,0.6,3c-0.3,0.8,0.7,1.3,1,0.2c0.3-1,0-2.5-1.2-3.5
		c-1.3-1.2-3.2-1.4-4.7-0.7c-1.4,0.7-2.3,1.9-2.7,3.4c-0.2,0.8-0.2,1.7,0,2.6c-2.9-4.3-4.4-9.7-4-15.1c1.3-10.9,8.4-15.6,14-16.4
		c5.2-0.7,9.7,1.7,11.5,6c1,3.2,0.5,6.4-1.5,9c-1.9,2.6-4.1,4.1-7.7,4.1c-3.4,0-5-1.8-5.3-1.9c-0.5-0.2-0.9,0.3-0.9,0.6
		c0.1,0.9,3.7,2.2,6.1,2.1c3.7-0.1,6.2-1.8,8.2-4.5c2.1-2.8,2.6-6.2,1.6-9.6c-1.9-4.6-6.6-7.1-12.1-6.4c-5.9,0.8-13.2,5.7-14.6,17
		c-0.5,6.9,1.8,13.5,6.3,18.3c4.5,4.8,10.7,7.4,17.9,7.4c3.2,0,6.3-0.6,9.2-1.9l0.2-0.2C101.5,154.6,98.1,155.2,94.9,155.2z"/>
	<path fill="#B03393" d="M145.9,72.9c0.1,0,0.3,0,0.4,0c-0.5-7.1-1.7-13.9-3.5-20.1c0,0,0,0,0,0c0,0,0,0,0,0
		C144.5,59.1,145.5,65.9,145.9,72.9z"/>
	<path fill="#392F2C" d="M151.2,72.8c0.2,0,0.4,0,0.6,0c-0.7-9.4-2.2-18.3-4.6-26.5c0,0,0,0,0,0c0,0,0,0,0,0
		C149.4,54.7,150.7,63.6,151.2,72.8z"/>
	<path fill="#B03393" d="M146.5,83.4c-0.1,0-0.3,0-0.4,0c-0.3,5.9-1,12-2.4,18.1c-2.9,13.2-7.9,25.3-15,36l0.1-0.1
		c7.2-10.1,12.6-22.5,15.5-35.8c1.3-6.1,2.1-12.2,2.3-18.2C146.6,83.4,146.5,83.4,146.5,83.4z"/>
	<path fill="#B03393" d="M136.2,58c-3.2-2.3-8.9-3.3-14.7,1.3c2.9-4.2,5.2-7.1,6.7-8.8c0,0-0.2-0.6-0.4-0.5
		c-3.4,3.4-13,16.7-20.9,32.5l-0.1,0.2l0.2,0.2c0.1,0,5.2,5,11.8,7.8l0-0.1c0.2,0.1,0.4,0.1,0.6,0.2c1.9,0.5,3.8,0.2,5.2-0.8
		c1.2-0.9,2-2.2,2.1-3.8c0.1-1.7-0.8-3.3-2.4-4.1c-1.3-0.7-2.9-0.4-3.7,0.3c-0.9,0.7-0.1,1.4,0.5,0.8c0.7-0.6,2-1.1,3-0.6
		c2,0.9,3.4,4.5,0.2,6.8c-1.3,0.9-3.1,1.2-4.8,0.8c-0.2-0.1-0.5-0.1-0.7-0.2c-4.2-1.8-7.7-4.4-9.7-6.1c-0.9-0.8-1.2-2-0.6-3.1
		c3.5-6.8,7.4-13,10.7-18.1c0.7-1,1.4-1.9,2.3-2.7c5.6-4.7,11.3-3.9,14.4-1.7c3.1,2.2,4,5.4,2.8,8.3c-1,2-2.7,3.3-4.8,3.7
		c-2.1,0.4-4.4-0.3-5.6-1.5c-0.9-1-1.3-2-1.6-3.8c-0.1-0.6-1.2-0.4-1.1,0.3c0.2,1.1,1,2.9,2.1,3.9c1.2,1.1,2.9,1.7,4.8,1.7
		c0.5,0,1,0,1.5-0.1c2.4-0.4,4.2-1.9,5.3-4.1C140.4,63.7,139.2,60.2,136.2,58z"/>
	<path fill="#B03393" d="M130.1,98.2c-0.3-0.4-0.6-0.7-1-1l0,0c-5.8-5.6-23.5-2.7-27-2l-0.5,0.1l0.3,0.4c0.1,0.2,13.4,16,23.4,37.9
		c-7.7-17.7-17.7-31.6-21.5-36.4c-0.5-0.7-0.1-1.6,0.7-1.8c17.2-2.8,22.8,1.1,24,2.2c0.3,0.4,0.6,0.8,0.9,1.1
		c1.2,1.6,1.8,3.8,1.4,5.6c-1.1,4.5-5.6,4.6-7.5,2.8c-1.1-0.9-1.1-2.6-0.7-3.6c0.3-1-0.8-1.6-1.1-0.2c-0.3,1.2,0,3,1.4,4.1
		c1.6,1.4,3.8,1.7,5.6,0.8c1.6-0.8,2.7-2.2,3.2-4C132,102.2,131.5,100,130.1,98.2z"/>
	<path fill="#B03393" d="M77.6,86.7l-0.1-0.2c-0.1-0.2-14.9-22.2-32-39.4C56.8,59.3,67.5,73.6,73,81.3c-0.9-0.5-1.9-0.8-2.9-0.7
		c-1.2,0.1-2.3,0.8-3,1.8c-0.8,1.1-0.7,2.6,0.1,3.8c0.7,1,1.8,1.4,2.7,1.3c0.9-0.1,0.6-0.9-0.1-0.8c-0.7,0.2-1.8,0-2.4-0.8
		c-1-1.4-0.6-4.5,2.5-4.9c1.2-0.1,2.6,0.4,3.7,1.4c0.4,0.4,1.2,1.4,1.5,1.9c0.7,1.4,0.8,3.1-0.2,4.3c-2,2.5-4.9,6.2-7.7,10.6
		c-0.1,0.1-0.2,0.2-0.2,0.3c-4.8,5.6-10.6,5.7-14,4c-3.4-1.7-4.8-4.8-4.1-7.8c0.6-2.1,2.1-3.7,4.2-4.4c2-0.7,4.4-0.4,5.8,0.6
		c1,0.8,1.6,1.8,2.2,3.5c0.2,0.6,1.2,0.2,1-0.5c-0.3-1.1-1.4-2.7-2.7-3.5c-1.3-0.9-3.2-1.2-5-0.9c-0.5,0.1-1,0.2-1.4,0.4
		c-2.3,0.8-3.9,2.5-4.6,4.9c-0.7,3.3,1,6.6,4.4,8.3c3.2,1.6,8.3,1.8,12.9-2.2c-7.9,13.3-14.8,32.2-2.5,47
		c-17.9-23.1,8.6-55.6,14.1-61.9L77.6,86.7z"/>
	<path fill="#B03393" d="M128.2,50.6l-0.5-0.4c3.3-3.6,7.3-6,11.7-7.3c3.4-1,7.2-1.3,10.5-0.7l0,0c-3.6-0.3-7,0.2-10.3,1.2
		C135.3,44.6,131.5,47.1,128.2,50.6z"/>
</g>
</svg>
