<?xml version="1.0" encoding="utf-8"?>
<!-- Generator: Adobe Illustrator 18.0.0, SVG Export Plug-In . SVG Version: 6.00 Build 0)  -->
<!DOCTYPE svg PUBLIC "-//W3C//DTD SVG 1.1//EN" "http://www.w3.org/Graphics/SVG/1.1/DTD/svg11.dtd">
<svg version="1.1" id="Layer_1" xmlns="http://www.w3.org/2000/svg" xmlns:xlink="http://www.w3.org/1999/xlink" x="0px" y="0px"
	 viewBox="0 0 346.1 24.7" enable-background="new 0 0 346.1 24.7" xml:space="preserve">
<g>
	<path fill="#BDBBBB" d="M548.9-23.5"/>
	<path fill="#5F6767" d="M559.9,28.1"/>
	<path fill="#5F6767" d="M607.4-36.4"/>
	<path fill="#5F6767" d="M549.4-1.2"/>
	<path fill="#FFFFFF" d="M723.7-8.5c2.2,57.3-27.5,97.6-37.7,103.4c-13.3-35-39.2-69.7-39.2-69.7c-46.5-64.4-70.9-87.1-82.2-103.9
		c-9.9-14.7-0.3-27.8-0.4-28.7c0,0-8.6,4.2-10.6,16.3c0,0-37.5-14.5-58.4-5.7c10.4-2.5,49.2,1.9,72.6,29.4
		c10.9,12.8,23.9,28.5,36.5,44.1c1.1,1.4,2.3,2.8,3.4,4.1c14.9,18.7,28.7,37,36.8,49.8c15.5,24.5,40.3,71.3,20.1,91.4l2.2-1
		c37.6-16.8,64.7-63.8,64.7-119.1c0-3.1-0.1-6.3-0.4-9.5C728.6-8,726.2-8.4,723.7-8.5z"/>
	<path fill="#FFFFFF" d="M731.1,11.5c0,0-0.1-17,4.3-17.3l0.1-1.4c-20.8-6.5-32.9,2.7-32.9,2.7c15-3,22.5,4.9,22.6,9.9"/>
	<path fill="#FFFFFF" d="M636.2,128.2c-52.8,0-95.7-56.6-95.7-126.2c0-22.4,4.9-44.2,13.5-63.5l0,0c-8.5,19.1-7.3,41-7.6,63.3
		c-1,73.4,38.8,124.4,89.8,125.5c7.4,0.1,14.9-0.8,22.1-2.4l0,0C651.1,127,643.7,128.2,636.2,128.2z"/>
	<path fill="#FFFFFF" d="M565.6,82.2c1.1,2-28-44.4-4.9-75.2c0.7-0.8-4-0.8-5.8,1.3c0,0,4.5-8.6-1.5-15.1c0,0,1.9-6.8-2.2-11
		c0,0,1.5-3.1,0.7-4.6c0,0-6.5-15.7,2-39c0.9-2.4-22.9,46.2-9.3,97.2C555.3,75.4,565.6,82.2,565.6,82.2z"/>
	<g>
		<path fill="#FFFFFF" d="M591.6-38.7c-7.6-9-16.6-18.3-23.5-26.1C548.5-87,522.7-94.5,505.9-95c15.1,3.4,43.5,13.4,68.5,42.6
			C610.6-10.4,621,7.1,621,7.1s-10,13.8-11.2,15.8c-1.3,2.2-5.3,8.5-5.9,10.4c6.9-5.2,22.3-12.5,29.6-14.6
			c-5.8-8.4-12.1-18.5-19.3-29.1C608.2-19.1,598.9-30.1,591.6-38.7z"/>
		<path fill="#FFFFFF" d="M720.1-66.2c-19.4-7.6-41.6,6.7-41.6,6.7c-2.5-6.6-10.8-7.2-10.8-7.2s11.7,3.9,5.3,17.1
			c-2.9,5.9-8.2,13.6-12.7,19.9c3.3-4.8,8-12.1,11.9-20.2c1.9-4,2-7.6,0.9-10.4c-0.5-1.1-1.2-2-1.9-2.7c1.2,2.4,1.7,5.9-1.1,10.5
			L642.4-8.9c0,0-5.3,9.5-13.9,0c-3.6-4-34.2-40.6-34.2-40.6c-25.1-29.6-30.5-44.6-31-52.1c-1.9,5-3.5,13.2,2.4,22.1
			c4.2,6.2,11.3,16.6,19.7,26.5c8,9.3,16.9,21.1,29.7,36.5c1.7,2.1,3.6,4.2,5.5,6.4C627-2.5,634.9,6,642.6,15.9
			c11.2-3,18.8-3.4,18.8-3.4c-10.1-4.9-13-10.1-13-10.1s23-40.8,37.5-55.1c8.1-8,17.8-11.3,24.8-12.6c-9,0.8-23.5,3.2-33.6,16.6
			l-9.6,13.1c4.3-6.4,8.2-12.4,8.8-13.2C692.7-71.1,720.1-66.2,720.1-66.2z"/>
	</g>
	<path fill="#FFFFFF" d="M711.4-76C711.4-76,711.4-76,711.4-76c0-0.1-0.1-0.1-0.1-0.2c-1.7-3-3.6-5.8-5.6-8.5
		c-18-25.2-42.9-39.5-69.5-39.5c-22.6,0-44.6,10.6-61.8,29.9c18.6-18.9,39.2-28.6,61.5-28.6c11.4,0,22.5,2.8,32.9,8
		c16.3,8.8,24.6,18.8,26.4,24.1c1.7,5.2,3.4,5.2,3.4,5.2c-0.3,1.9,0.5,4.2,2.8,5.3c10.2,4.8,12.1,8.2,12.1,8.2
		C712.8-73.5,712.1-74.8,711.4-76z"/>
	<g>
		<path fill="#AF3292" d="M637,119.9c-24.3,0-44-20-44-44.6c0-6.3,1.3-12.4,3.8-18c0.1-0.2,0.2-0.4,0.4-0.7
			c5.8-11.1,16-17.4,20.3-18.6c4.2-1.2,5.2-2.9,5.2-2.9c1.4,0.4,3.3,0.1,4.5-1.6c3.9-5.9,6.5-7.4,7.4-7.8
			c-8.8,2.9-16.1,6.6-21.6,10.7c-13.5,9.7-21.1,23-21.1,38.9c0,25.1,20.5,45.6,45.3,45.6c9.9,0,19.3-3.2,27.2-9.3
			C656.5,117.5,646.7,119.9,637,119.9z"/>
	</g>
	<path fill="#AF3292" d="M664.5-54.8c-0.7,1.7-15.7,25.9-23.6,38.5c-1.2,1.7-3.1,2.8-5.2,2.8c-2,0-4.1-1.5-5-2.4
		c-1-1-26.9-32.4-31.6-42.9c-1.3-3-2.2-6.2-2.7-9.4c-0.1-0.4-0.1-0.8-0.2-1.3c-1-9.6,2.3-19.5,9-27.1c11.6-12,24.5-11.2,32-7
		c6.9,3.9,10.2,10.9,8.3,17.8c-1.7,4.7-5.3,8.1-10.1,9.6c-4.7,1.4-8.7,1.2-13.1-2.1c-4.1-3.1-4.4-6.7-4.7-7.1
		c-0.4-0.8-1.4-0.5-1.6-0.1c-0.7,1.2,2.5,6,5.5,8.1c4.6,3.3,9.1,3.5,14.1,2c5.1-1.5,8.9-5.1,10.7-10.2c2-7.3-1.5-14.7-8.8-18.9
		c-7.8-4.4-21.2-5.2-33.1,7.2c-3.2,3.7-5.6,7.8-7.2,12.2c4.6-17.1,20-29.4,38.2-29.4c0.1,0,0.1,0,0.2,0
		c16.2,0.1,32.8,10.7,38.2,25.6c-5.6-15.3-21.6-26.4-38.2-26.5c-0.1,0-0.2,0-0.2,0c-20.9,0-38.3,15.7-40.3,36.7l-0.2,4.1
		c0,1.8,0.1,3.5,0.3,5.2c0.3,3.1,1.1,6.1,2.2,8.9c0.3,0.7,0.5,1.4,0.8,2c4.7,10.5,30.8,42.1,31.8,43.1c1.2,1.3,3.5,2.7,5.7,2.7
		c2.4,0,4.7-1.2,6-3.2c0.9-1.5,22.8-36.4,23.6-38.6c0.6-1.5,0.7-2,0.7-3.1c0-1.5-0.5-2.9-1.3-4.1C665.3-60.7,666.5-58.9,664.5-54.8z
		"/>
	<path fill="#AF3292" d="M639.2,111.2c-10.7,0-19.9-4.2-26.6-11.3c-0.1-0.1-0.2-0.3-0.3-0.4c-0.1-0.1-0.2-0.3-0.3-0.4
		c-1.6-2.1-2.3-4.9-1.8-7.2c1.4-5.9,7.2-5.9,9.7-3.6c1.4,1.2,1.4,3.3,0.9,4.6c-0.4,1.3,1,2,1.5,0.3c0.4-1.5-0.1-3.9-1.7-5.3
		c-2-1.8-4.9-2.2-7.2-1c-2.1,1.1-3.5,2.9-4.1,5.2c-0.3,1.3-0.3,2.6,0,3.9c-4.4-6.5-6.6-14.7-6-23c2-16.5,12.7-23.7,21.3-24.9
		c7.9-1.1,14.7,2.5,17.4,9.1c1.5,4.8,0.7,9.7-2.2,13.7c-2.9,3.9-6.1,6.2-11.7,6.2c-5.1,0-7.6-2.7-8-2.9c-0.8-0.4-1.4,0.5-1.3,0.9
		c0.2,1.4,5.7,3.3,9.3,3.2c5.7-0.2,9.4-2.7,12.4-6.9c3.1-4.3,4-9.5,2.4-14.6c-2.8-7-10.1-10.8-18.4-9.7c-8.9,1.2-20,8.6-22.1,25.7
		c-0.7,10.4,2.7,20.5,9.5,27.8c6.8,7.3,16.2,11.2,27.2,11.2c4.9,0,9.6-1,14-2.9l0.2-0.2C649.1,110.4,643.9,111.2,639.2,111.2z"/>
	<path fill="#AF3292" d="M716.5-13.6c0.2,0,0.4,0,0.7-0.1c-0.8-10.8-2.5-21.1-5.3-30.5c0,0,0,0,0,0c0,0,0,0,0,0
		C714.4-34.5,715.9-24.3,716.5-13.6z"/>
	<path fill="#FFFFFF" d="M724.7-13.7c0.3,0,0.6,0,0.9,0.1c-1-14.2-3.3-27.8-6.9-40.2c0,0,0.1,0,0,0c-0.1,0,0,0,0,0
		C721.9-41.3,723.9-27.8,724.7-13.7z"/>
	<path fill="#AF3292" d="M717.5,2.2c-0.2,0-0.4,0-0.6,0c-0.4,9-1.6,18.2-3.6,27.4c-4.4,20.1-11.9,38.4-22.7,54.6l0.1-0.1
		c11-15.3,19.1-34.1,23.6-54.3c2-9.2,3.1-18.5,3.5-27.6C717.6,2.2,717.5,2.2,717.5,2.2z"/>
	<path fill="#AF3292" d="M701.8-36.2c-4.9-3.5-13.6-4.9-22.3,2c4.3-6.3,7.9-10.8,10.2-13.3c0.1-0.1-0.4-0.9-0.6-0.7
		c-5.2,5.2-19.7,25.3-31.8,49.4l-0.2,0.3l0.2,0.2c0.1,0.1,7.8,7.6,17.9,11.8l0-0.1c0.3,0.1,0.6,0.2,0.8,0.3c2.8,0.7,5.7,0.3,7.8-1.2
		c1.9-1.4,3-3.4,3.2-5.7c0.2-2.6-1.2-5-3.7-6.2c-2-1-4.3-0.6-5.6,0.4c-1.4,1.1-0.2,2.2,0.8,1.3c1-0.9,3-1.7,4.6-0.9
		c3,1.4,5.2,6.8,0.3,10.4c-1.9,1.4-4.8,1.8-7.3,1.1c-0.3-0.1-0.7-0.2-1.1-0.3c-6.3-2.7-11.7-6.7-14.7-9.2c-1.4-1.1-1.8-3.1-1-4.7
		c5.4-10.4,11.2-19.8,16.3-27.5c1-1.5,2.2-2.8,3.5-4c8.5-7.2,17.2-6,21.9-2.6c4.6,3.3,6,8.3,4.3,12.6c-1.4,3-4,5-7.3,5.6
		c-3.2,0.6-6.7-0.4-8.5-2.3c-1.3-1.5-1.9-3.1-2.4-5.7c-0.2-0.9-1.8-0.6-1.6,0.5c0.2,1.7,1.5,4.3,3.2,5.9c1.8,1.7,4.5,2.6,7.2,2.6
		c0.7,0,1.5-0.1,2.2-0.2c3.6-0.7,6.4-2.9,8-6.2C708.3-27.5,706.4-32.8,701.8-36.2z"/>
	<path fill="#AF3292" d="M692.6,24.8c-0.4-0.6-0.9-1.1-1.5-1.6l0,0c-8.9-8.5-35.6-4.1-40.9-3.1l-0.8,0.1l0.5,0.6
		c0.2,0.2,20.3,24.3,35.5,57.5c-11.6-26.8-26.9-47.9-32.6-55.3c-0.8-1-0.2-2.5,1.1-2.7c26.1-4.2,34.6,1.7,36.4,3.3
		c0.5,0.6,0.9,1.2,1.3,1.7c1.9,2.5,2.7,5.8,2.1,8.5c-1.6,6.9-8.5,7-11.4,4.3c-1.6-1.4-1.6-3.9-1.1-5.4c0.5-1.5-1.2-2.4-1.7-0.3
		c-0.5,1.8,0.1,4.5,2.1,6.3c2.4,2.1,5.7,2.5,8.4,1.2c2.5-1.2,4.2-3.4,4.8-6.1C695.5,30.9,694.7,27.5,692.6,24.8z"/>
	<path fill="#AF3292" d="M612.9,7.4l-0.2-0.3c-0.2-0.3-22.6-33.7-48.6-59.8c17.4,18.4,33.6,40.2,41.9,51.9c-1.4-0.8-2.9-1.2-4.3-1
		c-1.9,0.2-3.5,1.2-4.5,2.7c-1.2,1.7-1.1,4,0.1,5.8c1,1.5,2.8,2.1,4.1,1.9c1.4-0.2,1-1.4-0.1-1.2s-2.8,0-3.6-1.2
		c-1.6-2.2-0.9-6.8,3.9-7.4c1.9-0.2,4,0.6,5.6,2.1c0.6,0.6,1.8,2.1,2.2,2.9c1.1,2.2,1.3,4.6-0.3,6.5c-3,3.7-7.4,9.3-11.7,16.2
		c-0.1,0.1-0.2,0.3-0.3,0.4c-7.3,8.4-16,8.6-21.2,6c-5.1-2.5-7.2-7.2-6.3-11.8c1-3.2,3.2-5.6,6.3-6.7c3.1-1.1,6.7-0.7,8.8,1
		c1.6,1.2,2.4,2.8,3.3,5.3c0.3,0.9,1.9,0.3,1.5-0.8c-0.5-1.7-2.1-4.1-4.1-5.4c-2-1.4-4.8-1.9-7.5-1.4c-0.7,0.1-1.5,0.3-2.2,0.6
		c-3.4,1.2-5.9,3.8-6.9,7.4c-1.1,5.1,1.5,10,6.7,12.6c4.9,2.4,12.6,2.7,19.6-3.4c-12,20.2-22.5,48.8-3.8,71.4
		c-27.2-35,13-84.4,21.4-94L612.9,7.4z"/>
	<path fill="#AF3292" d="M689.7-47.5l-0.7-0.6c5.1-5.4,11-9.2,17.7-11.1c5.2-1.5,10.9-1.9,16-1.1l0,0c-5.4-0.4-10.7,0.3-15.7,1.8
		C700.4-56.5,694.6-52.8,689.7-47.5z"/>
</g>
<path fill="#AF3292" d="M302.7,18c-0.2-1.3,0.1-2.7,0.8-3.6c0.7-0.9,1.9-1.7,2.7-1.9c0.5-0.1,0.8,0.6,0.3,0.8
	c-1.2,0.4-2,0.8-2.6,1.5c-0.8,1-1.1,2.8-0.6,4.3c0.5,1.5,1.6,2.7,3.2,3.2c2.2,0.5,4.5-0.4,5.8-2.9c1.3-2.5,1.4-6.7-2.6-10.4
	c-0.7-0.6-1.4-1.2-2.3-1.7l0.1-0.3c0.8,0.4,1.8,0.9,2.5,1.6c4.2,3.9,4,8.3,2.6,10.9c-1.3,2.5-3.8,3.7-6.2,3.1
	c-1.7-0.6-2.9-1.8-3.5-3.5C302.8,18.7,302.8,18.3,302.7,18z"/>
<path fill="#AF3292" d="M298.1,2.5c-0.4,0.2-0.8,0.4-1.1,0.7c-0.8,0.8-1.3,1.8-1.2,2.9c0.1,0.9,0.5,1.7,1.3,2.2
	c0.8,0.6,1.9,0.6,2.8,0c0.7-0.5,1.1-1.3,1-1.9c-0.1-0.7-0.7-0.5-0.6,0c0.1,0.5,0,1.3-0.6,1.7c-1.1,0.7-3.3,0.4-3.5-2
	c-0.1-0.9,0.4-2,1.1-2.7c0.3-0.3,0.6-0.7,1-0.8L298.1,2.5z"/>
<path fill="#ffffff" d="M346,12.8c-16,12.4-37.1-4-44.2-10.1c-0.9-0.8-2.2-0.9-3.2-0.2c-4.7,3.1-17.6,11.7-28.3,21.2l0,0
	C283.5,11.4,300.1,1,300.3,0.9l0.1-0.1l0.1,0.1C305.1,5.2,328.5,25.5,346,12.8L346,12.8z"/>
<path fill="#AF3292" d="M302.7,6.5c-0.2,1.3,0.1,2.7,0.8,3.6c0.7,0.9,1.9,1.7,2.7,1.9c0.5,0.1,0.8-0.6,0.3-0.8
	c-1.2-0.4-2-0.8-2.6-1.5c-0.8-1-1.1-2.8-0.6-4.3c0.5-1.5,1.6-2.7,3.2-3.2c2.2-0.5,4.5,0.4,5.8,2.9c1.3,2.5,1.4,6.7-2.6,10.4
	c-0.7,0.6-1.4,1.2-2.3,1.7l0.1,0.3c0.8-0.4,1.8-0.9,2.5-1.6c4.2-3.9,4-8.3,2.6-10.9c-1.3-2.5-3.8-3.7-6.2-3.1
	c-1.7,0.6-2.9,1.8-3.5,3.5C302.8,5.8,302.8,6.2,302.7,6.5z"/>
<path fill="#AF3292" d="M298.1,22c-0.4-0.2-0.8-0.4-1.1-0.7c-0.8-0.8-1.3-1.8-1.2-2.9c0.1-0.9,0.5-1.7,1.3-2.2
	c0.8-0.6,1.9-0.6,2.8,0c0.7,0.5,1.1,1.3,1,1.9c-0.1,0.7-0.7,0.5-0.6,0c0.1-0.5,0-1.3-0.6-1.7c-1.1-0.7-3.3-0.4-3.5,2
	c-0.1,0.9,0.4,2,1.1,2.7c0.3,0.3,0.6,0.7,1,0.8L298.1,22z"/>
<path fill="#ffffff" d="M346,11.7c-16-12.4-37.1,4-44.2,10.1c-0.9,0.8-2.2,0.9-3.2,0.2c-4.7-3.1-17.6-11.7-28.3-21.2l0,0
	c13.1,12.3,29.7,22.6,29.9,22.7l0.1,0.1l0.1-0.1C305.1,19.3,328.5-1,346,11.7L346,11.7z"/>
<g>
	<path fill="#AF3292" d="M43.3,18.3c0.2-1.3-0.1-2.7-0.8-3.6c-0.7-0.9-1.9-1.7-2.7-1.9c-0.5-0.1-0.8,0.6-0.3,0.8
		c1.2,0.4,2,0.8,2.6,1.5c0.8,1,1.1,2.8,0.6,4.3c-0.5,1.5-1.6,2.7-3.2,3.2c-2.2,0.5-4.5-0.4-5.8-2.9c-1.3-2.5-1.4-6.7,2.6-10.4
		C37,8.6,37.8,8,38.6,7.6l-0.1-0.3c-0.8,0.4-1.8,0.9-2.5,1.6c-4.2,3.9-4,8.3-2.6,10.9c1.3,2.5,3.8,3.7,6.2,3.1
		c1.7-0.6,2.9-1.8,3.5-3.5C43.2,19,43.3,18.7,43.3,18.3z"/>
	<path fill="#AF3292" d="M48,2.9c0.4,0.2,0.8,0.4,1.1,0.7c0.8,0.8,1.3,1.8,1.2,2.9c-0.1,0.9-0.5,1.7-1.3,2.2c-0.8,0.6-1.9,0.6-2.8,0
		c-0.7-0.5-1.1-1.3-1-1.9c0.1-0.7,0.7-0.5,0.6,0s0,1.3,0.6,1.7c1.1,0.7,3.3,0.4,3.5-2c0.1-0.9-0.4-2-1.1-2.7c-0.3-0.3-0.6-0.7-1-0.8
		L48,2.9z"/>
	<path fill="#ffffff" d="M0.1,13.2c16,12.4,37.1-4,44.2-10.1c0.9-0.8,2.2-0.9,3.2-0.2C52.1,5.9,65,14.6,75.7,24l0,0
		C62.5,11.8,45.9,1.4,45.8,1.3l-0.1-0.1l-0.1,0.1C41,5.5,17.5,25.9,0.1,13.2L0.1,13.2z"/>
	<path fill="#AF3292" d="M43.3,6.9c0.2,1.3-0.1,2.7-0.8,3.6c-0.7,0.9-1.9,1.7-2.7,1.9c-0.5,0.1-0.8-0.6-0.3-0.8
		c1.2-0.4,2-0.8,2.6-1.5c0.8-1,1.1-2.8,0.6-4.3c-0.5-1.5-1.6-2.7-3.2-3.2c-2.2-0.5-4.5,0.4-5.8,2.9c-1.3,2.5-1.4,6.7,2.6,10.4
		c0.7,0.6,1.4,1.2,2.3,1.7l-0.1,0.3c-0.8-0.4-1.8-0.9-2.5-1.6c-4.2-3.9-4-8.3-2.6-10.9c1.3-2.5,3.8-3.7,6.2-3.1
		c1.7,0.6,2.9,1.8,3.5,3.5C43.2,6.2,43.3,6.5,43.3,6.9z"/>
	<path fill="#AF3292" d="M48,22.3c0.4-0.2,0.8-0.4,1.1-0.7c0.8-0.8,1.3-1.8,1.2-2.9c-0.1-0.9-0.5-1.7-1.3-2.2
		c-0.8-0.6-1.9-0.6-2.8,0c-0.7,0.5-1.1,1.3-1,1.9c0.1,0.7,0.7,0.5,0.6,0s0-1.3,0.6-1.7c1.1-0.7,3.3-0.4,3.5,2c0.1,0.9-0.4,2-1.1,2.7
		c-0.3,0.3-0.6,0.7-1,0.8L48,22.3z"/>
	<path fill="#ffffff" d="M0.1,12.1c16-12.4,37.1,4,44.2,10.1c0.9,0.8,2.2,0.9,3.2,0.2C52.1,19.3,65,10.6,75.7,1.2l0,0
		C62.5,13.4,45.9,23.8,45.8,23.9L45.6,24l-0.1-0.1C41,19.7,17.5-0.6,0.1,12.1L0.1,12.1z"/>
</g>
<g>
	<path fill="#ffffff" d="M90.1,16.2c0.5,0.3,1.4,0.8,2.5,0.8c1.4,0,2.2-0.8,2.2-1.7c0-2.7-5.6-1.6-5.6-5.3c0-1.4,1-3.2,3.8-3.2
		c1.1,0,1.9,0.3,2.5,0.7c0.1,0.1,0.2,0.1,0.3,0.1c0.1,0,0.1-0.1,0.2-0.6h0.4l-0.1,2.8h-0.4c0-1.1-0.1-1.3-0.2-1.5
		c-0.2-0.2-1-1-2.3-1c-1.5,0-2.2,0.9-2.2,1.8c0,2.6,5.7,1.4,5.7,5.4c0,1.9-1.7,3.2-4.1,3.2c-1.5,0-3.1-0.6-3.4-0.7l-0.1-2.4h0.4
		L90.1,16.2z"/>
	<path fill="#ffffff" d="M103.5,16.9c0.6,0,0.8-0.1,1.1-0.7l3.5-8.2c0.1-0.3,0.6-0.6,0.9-1.2c0.1-0.2,0.2-0.3,0.3-0.3
		c0.2,0,0.3,0.3,0.5,0.7l3.5,9c0.3,0.6,0.3,0.7,1.1,0.7v0.4c-0.8,0-1.5,0-2.3,0c-0.8,0-1.6,0-2.5,0v-0.4c1.3,0,1.4-0.1,1.4-0.3
		c0-0.2-0.1-0.4-0.2-0.6l-0.9-2.6h-3.5l-1.1,2.7c-0.1,0.2-0.2,0.5-0.2,0.6c0,0.2,0.1,0.3,1.4,0.3v0.4c-0.5,0-1.1,0-1.6,0
		c-0.5,0-0.9,0-1.4,0V16.9z M109.8,12.7l-1.3-3.7c0-0.1,0-0.2-0.1-0.2c-0.1,0-0.1,0.1-0.2,0.2l-1.5,3.6H109.8z"/>
	<path fill="#ffffff" d="M130.1,14.5l-0.4,2.8c-1,0-2.2-0.1-4.4-0.1c-1.8,0-3.7,0-4.4,0v-0.4c0.2,0,0.9,0,1-0.1
		c0.1-0.1,0.1-0.8,0.1-0.9V8.4c0-0.2,0-0.9-0.1-0.9c-0.1-0.1-0.8-0.1-1-0.1V6.9c0.4,0,1.5,0,2.3,0c0.8,0,1.6,0,2.4,0v0.4
		c-0.2,0-1.2,0-1.3,0.1c-0.1,0.1-0.1,0.7-0.1,0.9v7.4c0,0.2,0,0.8,0.1,0.8c0.1,0.1,0.7,0.1,1.1,0.1c0.7,0,2.7,0,3.7-0.1l0.5-2H130.1
		z"/>
	<path fill="#ffffff" d="M142.8,6.7c3.3,0,5.5,2.2,5.5,5.4c0,3.1-2.2,5.4-5.5,5.4c-3.2,0-5.5-2.2-5.5-5.4
		C137.3,8.8,139.6,6.7,142.8,6.7z M142.8,17c2.2,0,3-2.3,3-4.9c0-2.6-0.8-4.9-3-4.9c-2.2,0-3,2.3-3,4.9
		C139.8,14.7,140.6,17,142.8,17z"/>
	<path fill="#ffffff" d="M158,8.7c-0.1-0.1-0.1-0.2-0.2-0.2c0,0-0.1,0-0.1,0.2l0,7.1c0,0.2,0,0.9,0.1,0.9c0.1,0.1,1.1,0.1,1.3,0.1
		v0.4c-0.2,0-1,0-1.5,0c-0.6,0-1.3,0-1.6,0v-0.4c1,0,1.1-0.1,1.1-0.3c0-0.1,0-0.6,0-0.8l0.2-7.4c0-0.7,0-0.8-0.1-0.9
		c-0.1-0.1-0.9-0.1-1.2-0.1V6.9h1.3c0.6,0,1.3-0.1,2.2-0.2l5.8,7.1c0,0,0.1,0.1,0.1,0.1s0.1,0,0.1-0.2l-0.1-5.4c0-0.1,0-0.8,0-0.8
		c-0.1-0.1-0.4-0.2-1.3-0.2V6.9c0.2,0,1,0,1.5,0c0.5,0,1.3,0,1.5,0v0.4c-0.8,0-0.9,0-0.9,0.3c0,0.1,0,0.6,0,0.7l-0.2,8.5
		c0,0.4-0.1,0.8-0.4,0.8c-0.3,0-0.6-0.5-0.8-0.7L158,8.7z"/>
	<path fill="#AF3292" d="M190.9,8.5c0.3-0.3,0.7-0.8,0.7-1.2c0-0.7-0.7-0.8-0.7-1.2c0-0.3,0.1-0.8,0.4-0.8c0.2,0,1,0.7,1,1.5
		c0,0.9-0.7,1.6-1.3,2.2l-3.6,3.9c-0.2,0.2-0.4,0.4-0.4,0.7c0,0.8,1.4,2.2,3.3,2.2c1.2,0,3.1-0.7,3.1-2.6c0-0.2,0-0.4-0.1-0.8
		c-0.9-0.4-1.5-0.6-2.1-0.6c-0.4,0-0.8,0.2-0.8,0.7c0,0.7,0.7,0.7,1.4,0.7c0.3,0,0.3,0.2,0.3,0.3c0,0.4-0.2,0.7-0.7,0.7
		c-0.6,0-1.5-0.5-1.5-1.5c0-1.1,0.9-2.1,2.2-2.1c1.9,0,4.6,2.1,5.2,2.1c0.2,0,0.4-0.2,0.4-0.5c0-0.5-0.4-1.2-0.4-1.3
		c0-0.1,0.1-0.2,0.4-0.2c0.5,0,1,0.3,1,1c0,0.9-0.9,1.6-2.2,1.6c-0.7,0-1.4-0.2-2.7-0.7c0.1,3.6-2.4,5-4.5,5c-2.8,0-4.6-2.3-4.6-4.8
		c0-2.4,1.8-4.4,3.8-4.4c0.9,0,1.5,0.4,1.8,0.6L190.9,8.5z M189,10.5c0.1-0.1,0.2-0.2,0.2-0.3c0-0.3-0.8-0.8-1.5-0.8
		c-0.8,0-1.7,0.6-1.7,1.7c0,0.9,0.5,1.6,0.6,1.9L189,10.5z"/>
	<path fill="#ffffff" d="M217.5,16.2c0.5,0.3,1.4,0.8,2.5,0.8c1.4,0,2.2-0.8,2.2-1.7c0-2.7-5.6-1.6-5.6-5.3c0-1.4,1-3.2,3.8-3.2
		c1.1,0,1.9,0.3,2.5,0.7c0.1,0.1,0.2,0.1,0.3,0.1c0.1,0,0.1-0.1,0.2-0.6h0.4l-0.1,2.8h-0.4c0-1.1-0.1-1.3-0.2-1.5
		c-0.2-0.2-1-1-2.3-1c-1.5,0-2.2,0.9-2.2,1.8c0,2.6,5.7,1.4,5.7,5.4c0,1.9-1.7,3.2-4.1,3.2c-1.5,0-3.1-0.6-3.4-0.7l-0.1-2.4h0.4
		L217.5,16.2z"/>
	<path fill="#ffffff" d="M235.5,15.8c0,0.2,0,0.8,0.1,0.9c0.1,0.1,1.1,0.1,1.3,0.1v0.4c-0.8,0-1.6,0-2.4,0c-0.8,0-1.9,0-2.3,0v-0.4
		c0.2,0,0.9,0,1-0.1c0.1-0.1,0.1-0.8,0.1-0.9V8.4c0-0.2,0-0.9-0.1-0.9c-0.1-0.1-0.8-0.1-1-0.1V6.9c0.3,0,1.3,0,1.9,0
		c0.5,0,0.9,0,1.4,0c0.5,0,0.9,0,1.4,0c1.9,0,4.2,0.6,4.2,3c0,2.2-2.2,3-4.1,3c-0.5,0-0.9,0-1.6-0.1V15.8z M235.5,12.2
		c0.4,0,0.7,0.1,1.1,0.1c1.3,0,2.2-0.7,2.2-2.5c0-1.6-0.9-2.4-2.5-2.4c-0.3,0-0.7,0-0.8,0.2c0,0.1,0,0.7,0,0.8V12.2z"/>
	<path fill="#ffffff" d="M246.2,16.9c0.6,0,0.8-0.1,1.1-0.7l3.5-8.2c0.1-0.3,0.6-0.6,0.9-1.2c0.1-0.2,0.2-0.3,0.3-0.3
		c0.2,0,0.3,0.3,0.5,0.7l3.5,9c0.3,0.6,0.3,0.7,1.1,0.7v0.4c-0.8,0-1.5,0-2.3,0c-0.8,0-1.6,0-2.5,0v-0.4c1.3,0,1.4-0.1,1.4-0.3
		c0-0.2-0.1-0.4-0.2-0.6l-0.9-2.6h-3.5L248,16c-0.1,0.2-0.2,0.5-0.2,0.6c0,0.2,0.1,0.3,1.4,0.3v0.4c-0.5,0-1.1,0-1.6,0
		c-0.5,0-0.9,0-1.4,0V16.9z M252.4,12.7L251,9.1c0-0.1,0-0.2-0.1-0.2c-0.1,0-0.1,0.1-0.2,0.2l-1.5,3.6H252.4z"/>
</g>
</svg>
