<?xml version="1.0" encoding="utf-8"?>
<!-- Generator: Adobe Illustrator 18.0.0, SVG Export Plug-In . SVG Version: 6.00 Build 0)  -->
<!DOCTYPE svg PUBLIC "-//W3C//DTD SVG 1.1//EN" "http://www.w3.org/Graphics/SVG/1.1/DTD/svg11.dtd">
<svg version="1.1" id="Layer_1" xmlns="http://www.w3.org/2000/svg" xmlns:xlink="http://www.w3.org/1999/xlink" x="0px" y="0px"
	 viewBox="0 0 433.3 245.5" enable-background="new 0 0 433.3 245.5" xml:space="preserve">
<g>
	<path fill="#4F5858" d="M237.2,115.4"/>
	<g>
		<path fill="#EAE7E6" d="M46.9,25.3C36.8,11.4,19.3,5.8,8.9,3.6c11.1,5,29.7,18,45.7,43.4c0,0,18.7,28.2,29.8,53
			c8.3,16.8,16.1,36.7,16.2,41.9c0,0-0.3,3.4-6.7,13.9c0,0-14.6,21-15.6,27.1c10.1-12.6,19.8-20.6,33.6-26.6
			c-8.7-28.2-22.6-57.9-22.7-58.2C87.1,91.9,61.9,46,46.9,25.3z"/>
		<path fill="#EAE7E6" d="M175,29.2c-11.1-1.8-24.7,2.3-34.8,12.4c-5.4-6.9-15.7-8.5-15.7-8.5s13.8,4.5,13,13.6
			c-0.4,4.2-3.8,17.3-7.4,30.3c3.1-12.8,6.1-26,6.5-30.3c0.3-3.4-1.7-6.1-4.3-8.1c1.6,2.1,2.7,4.9,2,8.4
			c-3.4,16.1-7.7,30.6-10.1,37.8c0,0-6.1,17.1-8,22.6l-2.2,5.9c-0.4,1-1.1,2.1-2.8,2.2c-2,0.1-2.9-1.7-2.9-1.7l-3.8-6.5L67.2,41.9
			c-5.9-11-6.4-17.5-6.4-17.5C59.9,13,63.3,7.2,66,4.4c-3.7,1.6-9.1,5.2-9.8,12.9c-0.8,8.7,4.7,18.7,6.5,22
			c9.8,17.8,19.4,38.4,28.7,55.9c11.4,21.4,22.3,38.5,26.7,48.6c1.1,2.5,2.6,5.3,4,8.6c5.5-1.9,10.6-3.2,17.2-4.7
			c0,0-9.8-3.1-16.9-7.1c0,0-1.2-9.3,7-40.8c8.2-31.5,13.5-44.2,19.5-52.7c5.1-7.3,13-12.9,20.5-16.2c-8.4,1.2-23.6,5.6-29,20.9
			c-2,6.1-6.4,19.7-10.2,31.7c3.6-12.6,7.5-26.3,9.5-32.5C147.6,28.6,175,29.2,175,29.2z"/>
	</g>
	<path fill="#EAE7E6" d="M158.5,78L158.5,78C158.5,78,158.5,78,158.5,78c0,0-7,0.8-12.2,7.7c0,0-3.6-3-8.7-1.8c0,0,6.2-0.1,7.6,4.4
		c0.4,1.3,0.3,4.7,0,8.7c0-3.9-0.3-7.1-0.8-8.4c-1-2.5-3.3-3.5-5.1-3.8c3,1.6,3.2,3.7,3.4,4.9c0.2,4-0.3,10.2-0.3,10.2l-1.4,15.1
		c-0.9,8.2-8.8,10.7-8.8,10.7c-0.7,0.9-1.1,1.7-1.1,2.5l23.7-10.2c0.3-0.7,0.3-1.3,0.1-1.8c-3.4,0.5-5.1,0.4-5.8-0.6
		c-1.2-1.8-0.8-9.3-0.8-9.3s0.9-14.5,2.6-18.2c1.1-2.7,3.4-5.3,5.1-7.3c-3.9,2.3-6,5-7.1,7.8c-1,2.7-2.9,14.8-3.6,22.6
		c0.6-7.8,1.2-18.9,2.8-23C149.6,84.6,151.5,82.2,158.5,78z"/>
	<g>
		<path fill="#EAE7E6" d="M176.2,77.7C176.2,77.7,176.2,77.8,176.2,77.7C176.2,77.7,176.2,77.7,176.2,77.7z"/>
		<path fill="#EAE7E6" d="M175.1,93.2l-0.9,11.3c0,0-1.3,2.9-3.8,3.9c-3.2,1.2-5.1,0.4-5.8-0.6c-2.3-3.2-0.9-17.3,2.2-25.9
			c2.1-5.5,6.8-5.6,8.6-5c-0.5-0.5-1.1-0.8-2.3-0.9c-2.2-0.2-4,0.8-5.8,2.4c-3.2,2.9-7.4,12-7.6,29.3c-0.6-2.2,0-10.5,0.3-12.4
			c1.3-8.7,3.3-14.3,6.8-17.8c2-2,4.5-2.5,6.4-2.3c2,0.3,2.9,1.8,3,2.4c0,0,0,0,0,0.1c0,0,0,0,0,0c0,0,0,0,0,0c0.1,0.6,0,1.5,0,1.5
			l-0.6,7.4l7.4-1.7c0.2-0.1,0.7-0.9,0.8-1.7c0,0-1.8,0.3-2,0.3c-0.6,0-0.7-4.2,1.4-6.1l0.1-1.8c0-0.6-12.5-7.2-20.7,4.9
			c-7.2,10.4-5.7,28.8-5.7,28.8s0.1,1.3,0.4,2.5c0.3,1.4,1.1,2.8,3,2.8c2.8,0,10.4-3.6,13.4-4.9l5.5-2.4c0,0,1.3-0.4,1.4-2.7
			c0.2-2.2,0-9,0.8-10.9c0.8-1.7,1.6-1.8,1.9-2.3c0.5-0.8,0.4-1.4,0.4-1.4L175.1,93.2z"/>
	</g>
	<path fill="#EAE7E6" d="M193.2,95.4c0,0-0.3-3.6,0.9-15.6c-0.5,6.6-0.6,14.2-0.1,16.3c0.9,3.9,4.1,6.2,9.7,6.1
		c1.5,0,2.7-0.2,4.1-0.5c-3.1,0.1-6.3-0.4-8.5-2.2c-6.3-5.4-2.9-28.5,1-51.6c0,0,2.7-14.4,10.6-18.9c0,0-6.1,0-9.9,7.7
		c-5.6,11.3-7.5,29.1-9.6,44.5c-2.3,16.2-6,24.4-8.3,28.1c2.1-2.1,4.9-5.5,6.2-8.9c1-2.7,1.3-4.2,1.6-5.3l0.1-0.4
		c0.1-0.3,0.5-2.1,0.9-4.7c-0.2,1.9-0.3,3.3-0.4,3.6c-0.1,1.2-0.5,4.3-1.7,7.4c-1.4,3.6-3.8,6.4-5.6,8.2c0,0,0,0,0,0
		c6.8-5.4,9.1-4.7,9.1-4.7c16,2.1,23.1-4.2,23.1-4.2C216.4,100.3,194.2,108.5,193.2,95.4z"/>
	<path fill="#EAE7E6" d="M220,63.8c-1.7-0.4-4.8-0.8-7.4,0.3c-3.1,1.3-5.3,4.4-5.3,4.4c-5.9,8.5-4.7,23.7-4.7,23.7s0,1,0.3,2.1
		c0.3,1.1,0.9,2.3,2.5,2.3c2,0,9.9-3.3,12.2-4.3c0,0,5.6-1.9,6.9-6.1c1.3-4.2,2-22.3,2-22.3C224.5,64.8,221.7,64.2,220,63.8z
		 M214.4,91.3c-2.6,0.9-4.2,0.3-4.7-0.5c-1.9-2.6-0.7-16.5,1.8-21.3c1-1.8,2.1-3.2,3.4-3.9c-2.8,0.4-4.5,2.8-5.5,4.8
		c-4.1,8.8-3.9,22.1-3.9,22.1c-1.2-14.5,3.3-23.3,3.4-23.4c1.4-3,5.3-5.4,9.6-4l0,0l0,0l0,0c0.6,0.2,1.3,0.4,1.9,0.8
		c-1.3,14.3-1.5,18.7-2,20.8C217.8,89.1,216.4,90.6,214.4,91.3z"/>
	<path fill="#FFFFFF" d="M220.5,156.1c-1.6,6.6-4.5,10-4.5,10c-9.3,11-21.5,15.4-28.4,9.7c-6.8-5.8-4.9-20.8,4.2-30.7
		c7.3-7.5,13.9-9.5,18.2-9.9c-1.1,0.8-2.3,1.8-3.3,2.9c-3.7,4.4-4.6,9.9-1.8,12.2c2.7,2.3,8,0.6,11.7-3.8c-2.7,1.9-7,2.3-8.8,0.8
		c-2.3-1.9-1.6-6.4,1.5-10.1c1.9-2.2,4.2-3.6,6.2-3.9l-0.2,0c0.3,0,0.4,0,0.4,0c-7.9-1.5-18.7,3.4-26.9,13.1
		c-10.3,12.2-12.6,27.3-5,33.7s21.9,0.7,32-12.1c4-5.1,3.7-6.6,5.2-9.4L220.5,156.1z"/>
	<path fill="#FFFFFF" d="M404.5,118.1c-3.7-0.3-7.1,1.5-7.1,1.5s-5.7,3.1-13.4,13.1c-7.9-4.6-28.5-6.2-43.1,10.5
		c-10.1,11.5-12,26.1-4.8,32.2c7.2,6.1,22,1.3,30.8-10.9c0.7-1,1.4-2.1,2.1-3.1c-3.6,12.1-5.2,28.6,6.4,40.4c0,0,9.3,9.7,28.7,6.2
		c0,0-4-1-6.1-0.9c-29.6,2.4-32.9-24.4-28.6-40.6c4.3-16.4,16-31.7,31.6-42.4c1.1-0.8,3.5-2.3,3.5-2.3
		C406.6,120.5,407.3,118.4,404.5,118.1z M370.6,156.8c-1.9,3.5-4.2,6.8-7.1,9.7c-7.6,7.2-18.3,9.6-23.8,4.9c-6.5-5.5-4-18.1,5-28.6
		l2.5-2.6c11.1-10.1,28.6-9.6,34.7-4.3c0,0,0,0,0,0c-1.9,2.8-4,5.9-6.1,9.6C375.7,145.4,373.1,150,370.6,156.8z"/>
	<path fill="#FFFFFF" d="M286.2,137c-1.4,3.2-6,5.8-12.3,8c0.3-4.9-1.1-9.1-4.2-11.8c-2.3-1.9-5.3-2.8-8.5-2.7l0,0c0,0,0,0,0,0
		c-7.1,0.2-15.6,4.8-22.4,12.8c-9.9,11.7-12,26.1-4.8,32.2c7.2,6.1,21.1,1.6,31-10.1c5.3-6.2,8.3-13.2,9-19.4
		c7.6-2.6,13.2-6.2,15.2-9.5C289.2,136.2,286.2,137,286.2,137z M271.3,145.8c-1.3,0.4-2.7,0.8-4.1,1.1c-0.8,0.2-2.3,0.5-2.3,0.5
		c-10.2,1.5-18.5-0.2-19.4-4.2c-0.7-3,3-6.6,9-9.5c5.2-1.8,10.1-1.5,13.4,1.4C270.6,137.2,271.7,141.2,271.3,145.8z M261.2,166.5
		c-7.6,7.2-18.3,9.6-23.8,4.9c-6.3-5.3-4.7-17.6,3.4-28c0,0.4,0,0.7,0.1,1c1.1,5,12.9,6.5,26.4,3.5c1.3-0.3,2.7-0.6,3.9-1
		C270.4,153.3,266.9,160.8,261.2,166.5z"/>
	<path fill="#FFFFFF" d="M196.5,133.7c-3.7,1-7.7,2.9-11.4,5.7c-9.6,6.4-15.1,4-13.7,4.8c1.2,0.7,5,0.7,8.8-0.6
		c-0.8,0.8-1.7,1.7-2.4,2.7c-10.3,12.2-13.2,31.5-5.1,37.1c1.7,1.2,5.2,2.8,8.4,2.8c-14.4-9-9.5-30-0.2-41
		C187.9,137.5,195.5,134.2,196.5,133.7z"/>
	<path fill="#FFFFFF" d="M346.1,128.6c-3.7,1-7.7,2.9-11.4,5.7c-9.6,6.4-15.1,4-13.7,4.8c1.2,0.7,5,0.7,8.8-0.6
		c-0.8,0.8-1.7,1.7-2.4,2.7c-10.3,12.2-13.2,31.5-5.1,37.1c1.7,1.2,5.2,2.8,8.4,2.8c-14.4-9-9.5-30-0.2-41
		C337.5,132.3,345.1,129.1,346.1,128.6z"/>
	<path fill="#FFFFFF" d="M383.4,84.4c-21.7-0.4-52.3,16.4-59.2,43.8l0,0c-0.3,1.4-0.8,5.2,4.5,4.3c1.6-0.2,3.6-0.8,5.6-2.3
		c3.7-2.8-6-8.5-5.6-4c0.1,0.9,0.1,2-0.2,3.1l0,0c-0.5,2-5.1,4.8-3.4-1.8c7-21.1,30-40.6,57.5-41.1c26.7-0.5,47.9,21.1,47.9,47.9
		l0,4.1c-0.6,14.7-5.4,28.6-14.1,39.7l-0.3,0.3c-12.5,16.4-27.2,24.5-45,26.3c-30.6,3.2-55.2-26.1-55.5-26.4
		c-11.6-12.8-20.6-17.6-27-19.1c2.3-0.8,4.6-1.7,6.6-2.7c12.9-6.1,22.6-15.7,20.3-20.8c-1.8-3.9-12.6-4.7-22.8,0.2
		c2.8-4.2,6.1-8.3,9.9-12.1c0,0-12.1,3.8-15.3,10.3c-0.4,0.9-8.9,19.9-12,25.9c-1.5,0.3-2.8,0.4-3.8,0.5c-0.6,0.2-4.1,2.8,2.5,2.1
		c-0.6,1.1-1.2,2.3-1.8,3.4c-13.6,22.7-28.5,20.5-28.5,20.5c12,2.6,20.2-4.5,24.4-9.9l0,0c3.8-4.4,6.8-9.2,9.6-14.3
		c1.8-0.6,4.6-1.4,8.2-1c6.1,0.8,16.1,4.7,28.9,18.9c0.2,0.3,22.9,26.3,51.6,26.3c1.6,0,3.3-0.1,4.9-0.3c18-1.9,33.6-11.3,46.2-27.8
		l0.3-0.3c8.8-11.3,14-25.7,14.6-40.5l0-4.1C432.7,106.5,410.6,84.9,383.4,84.4z M279.6,159.4c3.7-6.9,7.2-14.2,11.7-21.2
		c8-4.6,17-2.6,18.4,0.4c1.9,4.1-6.6,12-15.2,16.1C290.5,156.4,284.7,158.2,279.6,159.4z"/>
	<path fill="#EAE7E6" d="M325.1,73.9c0-0.1,0-0.2,0-0.3c-0.4-7.1-4.1-19.9-24.3-26.4l-2.8-0.9l2.4,1.7c0,0,1.6,1.1,2.1,2.5
		c-0.1,0.4-0.3,1.4,0.3,2.6c0.8,1.4,2.7,2.4,5.6,2.8c0.3,0.5,1.3,1.8,2.9,2.3l0.1,0l0.1,0c0,0,2.6-0.3,5.5,1.5
		c3.8,2.4,6.4,7.3,7.4,14.3c0.1,2.7-0.3,4.5-0.3,4.5c-1.5,7.2-6.5,13.2-13.5,16.6c-7.8,3.7-16.7,2-24.8-2.2c-0.1,0-7.6-4.1-12.8-8.1
		c-12-9.3-21.2-11.4-27.8-11c2.7-0.9,5-1.5,5-1.5c5.1-1.7,6.7-6.8,6.7-6.8c2.5-8-6.1-7.7-6.1-7.7c-5.5,0.2-8.8,2.2-10.5,3.7
		c1.1-2.2,2.9-4.4,4.3-5.9c-2.5,1.7-6.4,4.9-7.3,9.1c-0.8,3.6-1.5,7.7-1.9,10.6l0,0c0.2-2.7,0.6-7.1,1.3-10.7
		c1.3-6.9,9.7-10.8,9.7-10.8c-5.4,1.8-10,6.7-10,6.9c-4-3-7.9-1.8-7.9-1.8s7,0.2,7,5c0,1.8-0.2,4.5-0.4,7.1c0-2.4,0-5-0.1-7.1
		c-0.1-2.6-2.7-3.7-4.6-4.1c2.2,1.4,2.4,3,2.6,4c0.1,10.8-0.8,16.4-1,17.9c-0.2,1.8-1.2,3.8-3.5,5c-0.8,0.4-0.9,1.2-1,2l14.9-5.7
		c0.3-0.5,0.4-1.1,0.2-1.5c0,0-4.3,1.3-4.7,0.1c-0.3-0.8-0.2-2.8-0.1-3.5c1.5-0.6,3.5-1.3,6-1.5c5.7-0.5,15.4,1.1,29,11.2
		c11.8,8.9,21.7,10.8,26.3,10.8c4.1,0,8.2-0.9,12-2.7c7.3-3.5,12.4-9.7,14-17.2C324.8,78.6,325.2,76.7,325.1,73.9L325.1,73.9z
		 M250.6,61.5c0.7,0.6,0.3,3.4-0.2,5c-0.5,1.8-1.9,4.2-5.2,5.9c-2.1,0.9-3.7,1.6-5,2.2c-1,0.3-1.8,0.6-2.6,1
		c0.2-3.1,0.8-8.6,1.5-11.7C245.6,58.5,250.1,61.1,250.6,61.5z"/>
	<path fill="#FFFFFF" d="M325.1,51.3c-8.3-8.4-33.7-17.8-71.7-9.1c38.2-6.2,61.7,2.6,69.5,10.2c11.4,11,12.3,24.7,8.3,34.2
		c-3.8,9-10,16.1-17.8,20.5c-24.4,13.6-59.6,10.4-85.1,8.7c-6-0.4-11.8-0.8-16.7-0.9c-23.8-0.6-33.3,5.7-37.1,17.1
		c-0.1,0.4-1.2,4,0.3,5.4c0.4,0.4,0.9,0.5,1.5,0.5c2.7,0,6.7-0.8,8.8-2.7c3.6-3.4-6.4-9.1-6-4.2c0.1,1.8,0,5.4-3,6.1
		c-0.3,0-0.5-0.1-0.7-0.3c-1-0.9-0.4-3.5-0.1-4.5c3.2-9.4,10.2-14.7,36.7-14.1c4.9,0.1,10.6,0.5,16.7,0.9c25.6,1.7,60.7,4,85.3-9.8
		c8-4.5,15.8-12.2,19.7-21.4C337.7,78.3,336.6,62.9,325.1,51.3z"/>
	<path fill="#EAE7E6" d="M275.6,37.2c-26.3,0.4-64.8,9.1-120.9,34.7c0,0,0,0,0,0c-4,1.8-6.3-0.2-7.5-1.8c-2.9-4.2-6.8,8.9-1.6,7.8
		c2.3-0.5,4.4-1.5,4.4-1.5c21.7-10.1,37.9-16.9,60.2-24.3c16.8-5.6,34.6-10.5,47.6-12.6C268.1,38.1,274.7,37.4,275.6,37.2z"/>
	<path fill="#FFFFFF" d="M261,91.2l-0.6-2.9c-0.5,0.4-22.4,8.9-22.4,8.9c0.4,0.9,2.2,1,2.2,1c6.3-2.9,3.1,4.9,3.1,4.9c0,0,0,0,0,0
		c-11,21.4-21.2,46.5-23.7,56.5c-2,8.4-0.9,16.7,3.8,21.2c1.5,1.5,5.1,3.9,8.4,3.9c-2.1-1.3-3.9-2.8-5.2-4.4
		c-3.9-4.6-4.8-10.6-3.3-19c1.4-7.4,12.3-37.1,28.5-59.5c0,0,0,0,0,0c0,0,0.1-0.1,0.1-0.1c0.8-1.1,1.5-2.1,2.3-3.1
		C256.6,95.6,259.9,92.1,261,91.2z"/>
	<g>
		<path fill="#FFFFFF" d="M260.9,208.6c16.1,4.6,25.1,9.8,30.1,14.3c5.7,5.4,5.7,10.6,5.7,10.6c0,5.3-4.3,9.6-9.6,9.6
			c-3.7,0-6.9-2.1-8.5-5.2c1-0.2,1.8-1.1,1.8-2.2c0-0.8-0.4-1.5-1-1.9c-0.7-0.6-2-1.8-2.4-3.1c-0.6-1.9-1.1,1.2-1.1,3h0
			c0,0.8,0.1,1.6,0.2,2.4c0,0.1,0,0.2,0.1,0.3c0.5,2.1,1.5,4,3.1,5.5c2.2,2.2,5,3.4,8.1,3.4c0,0,0,0,0,0c3.1,0,6.1-1.3,8.3-3.7
			c2.1-2.3,3.3-5.2,3.2-7.9c-0.1-10.3-13.7-20.1-37.3-26.9c-47.1-13.5-89-2.1-116.6,9.1c-0.3,0.6-0.7,1.2-1,1.7
			C171.2,206.6,213.4,194.9,260.9,208.6z"/>
		<path fill="#FFFFFF" d="M115.4,229.5c-7.9,3.4-15.8,5.7-22.8,6.7h0.2c7.7-0.5,15.1-2.2,23.2-5.7c0.3-0.1,0.7-0.3,1.1-0.5
			c0.1-0.5,0.2-0.9,0.3-1.4C116.6,229,116,229.3,115.4,229.5z"/>
		<path fill="#B03293" d="M115.6,225.3c-9.8,4.2-19.6,6.7-27.6,7.2c-8.7,0.5-14.7-1.9-17.8-6.2c-4.1-5.7-2.7-14.5,2.5-24.2
			c6-10.4,15.4-18.6,19.9-20.2c4.6-1.6,4.3-3.5,4.3-3.5c1.7,0.1,3.5-0.8,4.4-3c3.3-7.7,6-10.3,6-10.3c-1.7,1.1-3.3,2.2-4.8,3.4l0,0
			C75.2,188,60.2,214.3,69.2,227c7.7,10.7,29.9,6.2,46.7-0.9c0.6-0.3,1.3-0.6,2.1-0.9c0.1-0.3,0.1-0.7,0.2-1
			C117.2,224.6,116.3,225,115.6,225.3z"/>
		<path fill="#B03293" d="M422.3,223.5c-13.8,8.1-33.5,2.7-33.5,2.7c-1.4-0.7-4.1,0.6-4.1,0.6c-3.8-3.6-9.8-1.9-9.8-1.9
			c-5.8-5.3-13.4-1.2-13.4-1.2c1.9-1.6,1.8-5.8,1.1-5.2c-1.7,6.9-20.2,4.4-35.7,1.1c-4.8-1.6-9.8-3.3-15.1-4.9
			c-13.4-4.2-28.1-10.1-44.9-15.3c-46.5-14.3-89.6-2-118.4,10.3c-0.2,0.4-0.4,0.8-0.6,1.3c28.5-12.1,71.2-24.2,117.8-9.8
			c16.8,5.2,30.8,11.3,44,16.1c27.6,9.9,50.2,16.9,71.7,16.9c0.1,0,0.3,0,0.4,0C412.4,234.8,426.1,221.3,422.3,223.5z"/>
	</g>
	<path fill="#FFFFFF" d="M47.3,11.9C47.3,11.9,25-2.4,0.7,1c0,0,32.4,2.1,47.2,23.5s39.1,68.7,41.4,73.6c0,0,18.2,35.4,27,65
		c2.4,8.1,12.5,38.9,1.3,77.9c0,0,39.5-20.7,50.7-109.3c0,0,0.6-8.9,5-12.8l0.2-2.6c-0.5,0.4-18.4,8.1-18.4,8.1c0.4,0.9,2.2,1,2.2,1
		c5.8-2.8,7.5,0.4,7.5,0.4c0.5,0.8,0,5.7,0,5.7c-4.9,53.7-29.4,73.9-29.4,73.9c-5.8-34.2-17.8-57.4-21.4-66.2
		c-3.5-8.5-28-57.9-52.3-100c-3.1-5.4-7.7-13.8-6.9-22C55.9,4.8,68.9,2,68.9,2C56.1,2,47.3,11.9,47.3,11.9"/>
</g>
</svg>
