<?xml version="1.0" encoding="utf-8"?>
<!-- Generator: Adobe Illustrator 18.1.1, SVG Export Plug-In . SVG Version: 6.00 Build 0)  -->
<svg version="1.1" id="Layer_1" xmlns="http://www.w3.org/2000/svg" xmlns:xlink="http://www.w3.org/1999/xlink" x="0px" y="0px"
	 viewBox="0 0 476 332.3" enable-background="new 0 0 476 332.3" xml:space="preserve">
<g>
	<g>
		<path fill="#4F5858" d="M260.6,126.6"/>
		<g>
			<path fill="#EAE7E6" d="M50.9,27.3C39.8,12.1,20.5,5.8,9.1,3.4c12.2,5.5,32.8,19.8,50.4,47.8c0,0,20.6,31.1,32.8,58.3
				c9.1,18.6,17.8,40.5,17.9,46.2c0,0-0.3,3.8-7.3,15.3c0,0-16,23.1-17.2,29.9c11.1-13.9,21.9-22.7,37-29.3
				c-9.5-31-24.8-63.7-25-64.1C95.3,100.7,67.5,50.1,50.9,27.3z"/>
			<path fill="#EAE7E6" d="M192.1,31.6c-12.2-2-27.2,2.6-38.4,13.7c-5.9-7.6-17.3-9.4-17.3-9.4s15.2,5,14.4,15
				c-0.4,4.6-4.2,19-8.2,33.4c3.4-14.1,6.8-28.7,7.2-33.4c0.3-3.7-1.9-6.7-4.8-9c1.7,2.3,3,5.4,2.2,9.2
				c-3.8,17.7-8.5,33.7-11.1,41.6c0,0-6.7,18.8-8.9,24.9l-2.4,6.5c-0.4,1.1-1.3,2.3-3.1,2.4c-2.2,0.1-3.2-1.8-3.2-1.8l-4.2-7.1
				l-41-72.1c-6.5-12.1-7-19.3-7-19.3C65.3,13.7,69.1,7.4,72,4.3c-4,1.8-10,5.7-10.8,14.2c-0.9,9.6,5.2,20.6,7.2,24.2
				c10.8,19.6,21.4,42.3,31.7,61.6c12.6,23.6,24.5,42.4,29.4,53.5c1.2,2.7,2.9,5.8,4.4,9.5c6-2,11.7-3.6,18.9-5.2
				c0,0-10.8-3.5-18.7-7.8c0,0-1.3-10.2,7.7-44.9c9-34.7,14.9-48.7,21.5-58.1c5.7-8,14.3-14.2,22.6-17.9c-9.3,1.3-26,6.1-32,23
				c-2.2,6.7-7,21.7-11.3,34.9c3.9-13.9,8.3-29,10.5-35.8C161.9,31,192.1,31.6,192.1,31.6z"/>
		</g>
		<path fill="#EAE7E6" d="M173.9,85.4L173.9,85.4C173.9,85.4,173.9,85.4,173.9,85.4c0,0-7.8,0.9-13.5,8.5c0,0-4-3.3-9.6-1.9
			c0,0,6.8-0.1,8.4,4.8c0.5,1.5,0.4,5.1,0,9.5c0-4.3-0.3-7.9-0.9-9.3c-1.1-2.7-3.7-3.8-5.6-4.2c3.3,1.8,3.6,4.1,3.8,5.4
			c0.2,4.4-0.3,11.2-0.3,11.2l-1.5,16.6c-0.9,9-9.7,11.8-9.7,11.8c-0.8,0.9-1.2,1.9-1.3,2.8l26.1-11.3c0.3-0.7,0.3-1.4,0.2-2
			c-3.7,0.6-5.6,0.4-6.3-0.6c-1.3-2-0.9-10.3-0.9-10.3s1-16,2.9-20c1.2-2.9,3.7-5.9,5.7-8c-4.2,2.5-6.6,5.5-7.8,8.6
			c-1.1,2.9-3.2,16.3-3.9,24.9c0.6-8.5,1.4-20.8,3.1-25.4C164.1,92.6,166.2,90,173.9,85.4z"/>
		<g>
			<path fill="#EAE7E6" d="M193.4,85.1C193.4,85.1,193.5,85.1,193.4,85.1C193.4,85.1,193.4,85.1,193.4,85.1z"/>
			<path fill="#EAE7E6" d="M192.2,102.2l-1,12.5c0,0-1.4,3.2-4.2,4.2c-3.5,1.4-5.6,0.4-6.3-0.6c-2.6-3.5-1-19.1,2.4-28.6
				c2.3-6.1,7.5-6.2,9.4-5.5c-0.6-0.6-1.2-0.9-2.5-1c-2.5-0.2-4.4,0.9-6.4,2.7c-3.5,3.2-8.2,13.2-8.4,32.3c-0.7-2.4,0-11.6,0.3-13.6
				c1.5-9.6,3.6-15.8,7.4-19.6c2.2-2.2,5-2.8,7.1-2.5c2.2,0.3,3.2,2,3.3,2.6c0,0,0,0,0,0.1c0,0,0,0,0,0c0,0,0,0,0,0
				c0.2,0.7,0,1.7,0,1.7l-0.7,8.2l8.2-1.8c0.3-0.1,0.8-1,0.8-1.8c0,0-1.9,0.3-2.2,0.3c-0.7-0.1-0.7-4.7,1.5-6.8l0.2-1.9
				c0-0.7-13.8-7.9-22.8,5.4c-7.9,11.5-6.3,31.8-6.3,31.8s0.1,1.4,0.4,2.8c0.4,1.5,1.3,3.1,3.3,3.1c3.1,0,11.5-4,14.8-5.4l6-2.6
				c0,0,1.4-0.5,1.6-2.9c0.2-2.4,0-10,0.9-12c0.8-1.9,1.7-2,2.1-2.5c0.5-0.9,0.4-1.6,0.4-1.6L192.2,102.2z"/>
		</g>
		<path fill="#EAE7E6" d="M212.1,104.6c0,0-0.4-4,1-17.2c-0.5,7.3-0.6,15.7-0.1,18c1,4.3,4.5,6.8,10.7,6.7c1.6,0,2.9-0.3,4.5-0.6
			c-3.4,0.1-7-0.4-9.4-2.5c-6.9-5.9-3.2-31.4,1.2-56.8c0,0,3-15.9,11.7-20.8c0,0-6.7,0-10.9,8.5c-6.1,12.4-8.2,32.1-10.6,49
			c-2.5,17.9-6.6,26.9-9.2,30.9c2.4-2.3,5.4-6.1,6.8-9.8c1.2-3,1.5-4.6,1.7-5.8l0.1-0.4c0.1-0.3,0.5-2.3,1-5.1
			c-0.2,2.1-0.4,3.6-0.4,3.9c-0.1,1.4-0.6,4.8-1.9,8.2c-1.5,4-4.2,7.1-6.2,9c0,0,0,0,0,0c7.4-6,10.1-5.2,10.1-5.2
			c17.6,2.3,25.4-4.6,25.4-4.6C237.7,110,213.3,119,212.1,104.6z"/>
		<path fill="#EAE7E6" d="M241.7,69.8c-1.9-0.4-5.3-0.9-8.1,0.3c-3.4,1.5-5.8,4.9-5.8,4.9c-6.5,9.4-5.2,26.1-5.2,26.1s0,1.1,0.3,2.3
			c0.3,1.2,1,2.6,2.7,2.6c2.2,0,10.9-3.7,13.5-4.7c0,0,6.2-2.1,7.6-6.7c1.4-4.6,2.2-24.6,2.2-24.6C246.6,70.9,243.6,70.2,241.7,69.8
			z M235.5,100.1c-2.9,1-4.6,0.3-5.2-0.5c-2.1-2.9-0.8-18.2,2-23.5c1.1-2,2.3-3.5,3.7-4.3c-3,0.5-5,3.1-6,5.3
			c-4.5,9.7-4.2,24.4-4.2,24.4c-1.4-16,3.7-25.7,3.7-25.7c1.5-3.3,5.8-6,10.6-4.4l0,0l0,0l0,0c0.7,0.2,1.4,0.5,2.1,0.9
			c-1.4,15.7-1.6,20.6-2.2,22.9C239.3,97.7,237.7,99.3,235.5,100.1z"/>
		<path fill="#FFFFFF" d="M242.2,171.4c-1.7,7.2-5,11.1-5,11.1c-10.3,12.2-23.7,17-31.3,10.6c-7.5-6.4-5.5-22.9,4.7-33.9
			c8-8.3,15.3-10.5,20.1-10.9c-1.3,0.8-2.5,1.9-3.6,3.2c-4.1,4.9-5,10.9-2,13.4c3,2.6,8.8,0.7,12.9-4.2c-2.9,2.1-7.8,2.5-9.7,0.9
			c-2.5-2.1-1.8-7.1,1.7-11.1c2-2.4,4.6-3.9,6.8-4.3l-0.2,0c0.3,0,0.5,0,0.5,0c-8.7-1.7-20.6,3.8-29.6,14.4
			c-11.4,13.5-13.9,30.1-5.5,37.1c8.3,7,24.2,0.8,35.3-13.4c4.4-5.6,4.1-7.3,5.7-10.4L242.2,171.4z"/>
		<path fill="#FFFFFF" d="M445,129.6c-4.1-0.4-7.8,1.6-7.8,1.6s-6.3,3.4-14.8,14.5c-8.8-5-31.4-6.8-47.5,11.6
			c-11.1,12.7-13.3,28.8-5.3,35.5c8,6.7,24.2,1.4,33.9-12c0.8-1.1,1.6-2.3,2.3-3.4c-4,13.3-5.7,31.5,7,44.5c0,0,10.2,10.7,31.7,6.9
			c0,0-4.4-1.2-6.8-1c-32.7,2.6-36.2-26.9-31.5-44.8c4.7-18.1,17.6-34.9,34.9-46.7c1.2-0.9,3.9-2.5,3.9-2.5
			C447.2,132.3,448,129.9,445,129.6z M407.6,172.2c-2.1,3.8-4.6,7.5-7.9,10.7c-8.4,8-20.1,10.6-26.3,5.4c-7.2-6.1-4.4-19.9,5.5-31.5
			l2.8-2.9c12.2-11.1,31.5-10.5,38.2-4.8c0,0,0,0,0,0c-2.1,3-4.4,6.5-6.7,10.6C413.3,159.7,410.3,164.7,407.6,172.2z"/>
		<path fill="#FFFFFF" d="M314.6,150.3c-1.6,3.5-6.6,6.4-13.5,8.8c0.3-5.4-1.2-10-4.7-12.9c-2.5-2.1-5.8-3.1-9.4-3l0,0
			c0,0,0,0-0.1,0c-7.8,0.2-17.2,5.3-24.6,14.1c-10.9,12.9-13.3,28.8-5.3,35.5c8,6.7,23.3,1.8,34.1-11.1c5.8-6.9,9.2-14.6,9.9-21.3
			c8.3-2.9,14.5-6.8,16.7-10.5C318,149.5,314.6,150.3,314.6,150.3z M298.2,160.1c-1.4,0.4-2.9,0.8-4.5,1.2c-0.9,0.2-2.5,0.5-2.5,0.5
			c-11.2,1.6-20.4-0.2-21.4-4.6c-0.8-3.3,3.3-7.3,9.9-10.5c5.7-1.9,11.1-1.6,14.8,1.5C297.4,150.6,298.6,155,298.2,160.1z
			 M287.1,182.9c-8.4,8-20.1,10.6-26.3,5.4c-6.9-5.9-5.2-19.4,3.8-30.8c0,0.4,0,0.8,0.1,1.1c1.2,5.5,14.3,7.2,29.1,3.8
			c1.5-0.3,2.9-0.7,4.3-1.1C297.2,168.4,293.4,176.6,287.1,182.9z"/>
		<path fill="#FFFFFF" d="M215.7,146.8c-4.1,1.1-8.5,3.2-12.6,6.3c-10.6,7.1-16.7,4.4-15,5.3c1.3,0.7,5.5,0.8,9.7-0.7
			c-0.9,0.9-1.8,1.9-2.7,2.9c-11.4,13.5-14.6,34.7-5.6,40.9c1.9,1.3,5.7,3.1,9.3,3.1c-15.9-9.9-10.5-33-0.2-45.2
			C206.3,151,214.7,147.4,215.7,146.8z"/>
		<path fill="#FFFFFF" d="M380.6,141.1c-4.1,1.1-8.5,3.2-12.6,6.3c-10.6,7.1-16.7,4.4-15.1,5.3c1.3,0.7,5.5,0.8,9.7-0.7
			c-0.9,0.9-1.8,1.9-2.7,2.9c-11.4,13.5-14.6,34.7-5.6,40.9c1.9,1.3,5.7,3.1,9.3,3.1c-15.9-9.9-10.5-33-0.2-45.2
			C371.1,145.3,379.5,141.6,380.6,141.1z"/>
		<path fill="#FFFFFF" d="M421.7,92.5c-23.9-0.4-57.7,18.1-65.2,48.3l0,0c-0.4,1.5-0.9,5.8,5,4.7c1.8-0.2,4-0.9,6.2-2.5
			c4.1-3.1-6.6-9.3-6.2-4.4c0.1,1,0.2,2.2-0.3,3.4l0,0c-0.5,2.2-5.7,5.3-3.7-2c7.7-23.3,33.1-44.8,63.4-45.3
			c29.5-0.5,52.8,23.3,52.8,52.7l0,4.5c-0.7,16.2-6,31.5-15.5,43.8l-0.3,0.4c-13.8,18-30,27-49.6,29c-33.7,3.6-60.9-28.8-61.2-29.1
			c-12.8-14.1-22.7-19.4-29.7-21c2.5-0.9,5-1.9,7.3-3c14.3-6.8,24.9-17.3,22.3-22.9c-2-4.3-13.9-5.2-25.2,0.2
			c3.1-4.6,6.7-9.1,11-13.3c0,0-13.3,4.2-16.9,11.4c-0.4,1-9.8,21.9-13.2,28.6c-1.6,0.3-3,0.5-4.1,0.5c-0.6,0.3-4.5,3.1,2.7,2.3
			c-0.6,1.3-1.3,2.5-1.9,3.7c-15,25-31.4,22.6-31.4,22.6c13.3,2.9,22.2-5,26.9-10.9l0,0c4.1-4.8,7.5-10.2,10.6-15.7
			c2-0.7,5.1-1.6,9.1-1.1c6.7,0.9,17.8,5.2,31.9,20.8c0.3,0.3,25.2,29,56.8,29c1.8,0,3.6-0.1,5.4-0.3c19.9-2.1,37-12.4,50.9-30.6
			l0.3-0.4c9.7-12.4,15.4-28.3,16.1-44.7l0-4.5C476,116.8,451.6,93,421.7,92.5z M307.4,175c4.1-7.7,8-15.7,12.9-23.4
			c8.8-5.1,18.7-2.9,20.3,0.4c2.1,4.5-7.3,13.2-16.8,17.7C319.4,171.8,313,173.8,307.4,175z"/>
		<path fill="#EAE7E6" d="M357.5,80.8c0-0.1,0-0.3-0.1-0.4c-0.4-7.9-4.6-22-26.8-29.1l-3.1-1l2.7,1.8c0,0,1.8,1.2,2.3,2.8
			c-0.1,0.4-0.4,1.6,0.3,2.8c0.9,1.6,3,2.6,6.1,3.1c0.3,0.6,1.4,2,3.2,2.6l0.1,0l0.1,0c0,0,2.9-0.3,6.1,1.7c4.2,2.6,7,8.1,8.1,15.8
			c0.1,3-0.3,4.9-0.3,5c-1.7,7.9-7.1,14.6-14.9,18.3c-8.6,4.1-18.4,2.2-27.3-2.4c-0.1,0-8.4-4.5-14.1-8.9
			c-13.2-10.2-23.4-12.6-30.6-12.1c3-1,5.5-1.6,5.5-1.6c5.6-1.9,7.3-7.5,7.3-7.5c2.8-8.9-6.7-8.5-6.7-8.5c-6,0.2-9.7,2.4-11.6,4.1
			c1.2-2.4,3.2-4.8,4.7-6.4c-2.7,1.8-7,5.4-8.1,10c-0.9,3.9-1.6,8.5-2.1,11.7l0,0c0.3-2.9,0.7-7.8,1.4-11.8
			c1.4-7.6,10.7-11.9,10.7-11.9c-6,2-11,7.4-11,7.6c-4.4-3.3-8.7-2-8.7-2s7.7,0.2,7.7,5.5c0,2-0.2,5-0.4,7.8c0-2.7,0-5.5-0.1-7.9
			c-0.2-2.9-3-4-5.1-4.5c2.4,1.5,2.7,3.3,2.8,4.4c0.1,11.9-0.9,18.1-1.1,19.7c-0.2,2-1.3,4.1-3.9,5.5c-0.8,0.5-1,1.4-1.2,2.2
			l16.4-6.3c0.3-0.6,0.4-1.2,0.2-1.7c0,0-4.7,1.4-5.2,0.1c-0.3-0.9-0.2-3.1-0.1-3.9c1.6-0.7,3.8-1.4,6.6-1.6c6.3-0.5,17,1.2,32,12.3
			c13.1,9.8,23.9,11.9,29,11.9c4.5,0,9-1,13.2-3c8-3.8,13.6-10.7,15.4-18.9C357.2,86,357.6,84,357.5,80.8L357.5,80.8z M275.4,67.2
			c0.8,0.6,0.3,3.7-0.2,5.5c-0.5,2-2.1,4.6-5.7,6.5c-2.3,0.9-4.1,1.7-5.5,2.4c-1.1,0.3-2,0.7-2.9,1.1c0.3-3.4,0.8-9.5,1.7-12.9
			C269.9,63.9,274.8,66.8,275.4,67.2z"/>
		<path fill="#FFFFFF" d="M357.5,56c-9.1-9.2-37.2-19.6-79-10c42.1-6.8,68,2.9,76.6,11.2c12.6,12.1,13.5,27.3,9.1,37.7
			c-4.2,10-11,17.8-19.6,22.6c-26.9,15-65.7,11.4-93.8,9.6c-6.7-0.4-13-0.9-18.4-1c-26.2-0.7-36.7,6.2-40.9,18.8
			c-0.1,0.4-1.3,4.4,0.3,5.9c0.4,0.4,1,0.6,1.7,0.6c3,0,7.3-0.8,9.7-3c4-3.7-7-10-6.6-4.7c0.1,1.9,0,6-3.3,6.7
			c-0.3,0-0.6-0.1-0.8-0.3c-1.1-1-0.4-3.9-0.1-5c3.5-10.4,11.3-16.2,40.4-15.5c5.4,0.1,11.7,0.6,18.4,1c28.2,1.9,66.9,4.4,94-10.8
			c8.8-4.9,17.4-13.4,21.7-23.5C371.4,85.7,370.1,68.8,357.5,56z"/>
		<path fill="#EAE7E6" d="M303,40.5c-29,0.5-71.4,10-133.2,38.3c0,0,0,0,0,0c-4.4,1.9-7-0.2-8.2-2c-3.2-4.6-7.5,9.8-1.8,8.6
			c2.5-0.5,4.9-1.6,4.9-1.6c24-11.2,41.7-18.6,66.4-26.8c18.5-6.1,38.2-11.6,52.4-13.9C294.7,41.4,302,40.7,303,40.5z"/>
		<path fill="#FFFFFF" d="M286.8,99.9l-0.6-3.2c-0.5,0.4-24.7,9.8-24.7,9.8c0.5,1,2.4,1.1,2.4,1.1c6.9-3.2,3.4,5.4,3.4,5.4
			c0,0,0,0,0,0c-12.1,23.6-23.4,51.2-26.1,62.3c-2.2,9.2-1,18.4,4.2,23.3c1.7,1.6,5.6,4.3,9.2,4.3c-2.3-1.4-4.2-3-5.7-4.8
			c-4.3-5.1-5.3-11.7-3.6-20.9c1.5-8.1,13.5-40.9,31.4-65.5c0,0,0,0,0,0c0,0,0.1-0.1,0.1-0.2c0.8-1.2,1.7-2.3,2.6-3.4
			C282,104.8,285.7,100.9,286.8,99.9z"/>
		<g>
			<path fill="#FFFFFF" d="M286.8,229.3c17.7,5.1,27.6,10.8,33.1,15.8c6.3,6,6.2,11.7,6.2,11.7c0,5.9-4.8,10.6-10.6,10.6
				c-4.1,0-7.6-2.3-9.4-5.7c1.1-0.2,2-1.2,2-2.4c0-0.9-0.5-1.6-1.1-2.1c-0.7-0.6-2.2-2-2.7-3.5c-0.7-2.1-1.2,1.4-1.3,3.3h0
				c0,0.9,0.1,1.8,0.3,2.6c0,0.1,0,0.2,0.1,0.3c0.5,2.3,1.7,4.4,3.4,6.1c2.4,2.4,5.6,3.7,8.9,3.7c0,0,0,0,0,0c3.5,0,6.7-1.5,9.2-4.1
				c2.4-2.5,3.7-5.8,3.5-8.7c-0.1-11.4-15.1-22.2-41.1-29.6c-51.9-14.9-98-2.4-128.4,10c-0.4,0.6-0.8,1.3-1.1,1.9
				C187.9,227.1,234.4,214.2,286.8,229.3z"/>
			<path fill="#FFFFFF" d="M126.4,252.4c-8.7,3.7-17.4,6.3-25.1,7.3h0.2c8.5-0.6,16.7-2.5,25.6-6.3c0.4-0.2,0.8-0.3,1.2-0.5
				c0.1-0.5,0.2-1,0.3-1.5C127.8,251.8,127.1,252.1,126.4,252.4z"/>
			<path fill="#C114A2" d="M126.6,247.7c-10.8,4.6-21.6,7.4-30.4,7.9c-9.6,0.5-16.1-2.1-19.6-6.8c-4.5-6.3-2.9-16,2.8-26.6
				c6.6-11.5,16.9-20.5,22-22.3c5.1-1.8,4.7-3.8,4.7-3.8c1.8,0.1,3.9-0.9,4.9-3.3c3.6-8.5,6.6-11.3,6.6-11.3
				c-1.8,1.2-3.6,2.4-5.3,3.7l0,0c-30.3,21.6-46.8,50.5-36.8,64.5c8.4,11.8,33,6.9,51.4-1c0.7-0.3,1.4-0.6,2.3-1
				c0.1-0.4,0.1-0.7,0.2-1.1C128.4,246.9,127.4,247.4,126.6,247.7z"/>
			<path fill="#C114A2" d="M464.6,245.7c-15.2,9-37,3-37,3c-1.5-0.8-4.5,0.7-4.5,0.7c-4.2-4-10.8-2.1-10.8-2.1
				c-6.4-5.8-14.8-1.4-14.8-1.4c2.1-1.8,2-6.4,1.2-5.7c-1.9,7.6-22.2,4.9-39.4,1.2c-5.3-1.8-10.8-3.6-16.7-5.4
				c-14.7-4.7-31-11.1-49.5-16.8c-51.2-15.7-98.7-2.2-130.5,11.3c-0.2,0.5-0.5,0.9-0.7,1.4c31.4-13.3,78.5-26.6,129.8-10.8
				c18.5,5.7,34,12.5,48.5,17.7c30.4,10.9,55.3,18.7,79,18.7c0.1,0,0.3,0,0.4,0C453.7,258.2,468.7,243.2,464.6,245.7z"/>
		</g>
		<path fill="#FFFFFF" d="M51.4,12.5c0,0-24.6-15.7-51.4-12c0,0,35.7,2.3,52,25.9s43,75.7,45.6,81c0,0,20.1,39,29.8,71.6
			c2.7,8.9,13.8,42.9,1.4,85.8c0,0,43.5-22.8,55.9-120.4c0,0,0.6-9.9,5.5-14.1l0.2-2.9c-0.5,0.4-20.3,9-20.3,9
			c0.5,1,2.4,1.1,2.4,1.1c6.4-3.1,8.3,0.5,8.3,0.5c0.5,0.8,0,6.3,0,6.3c-5.4,59.1-32.3,81.4-32.3,81.4c-6.4-37.6-19.6-63.2-23.6-73
			C121,143.4,94,88.9,67.2,42.6c-3.4-5.9-8.5-15.2-7.6-24.2C60.9,4.7,75.2,1.7,75.2,1.7C61,1.7,51.4,12.5,51.4,12.5"/>
	</g>
	<g>
		<g>
			<path fill="#FFFFFF" d="M387.4,326.3c-0.2-1.3,0.1-2.7,0.8-3.6c0.7-0.9,1.9-1.7,2.7-1.9c0.5-0.1,0.8,0.6,0.3,0.8
				c-1.2,0.4-2,0.8-2.6,1.5c-0.8,1-1.1,2.8-0.6,4.3c0.5,1.5,1.6,2.7,3.2,3.2c2.2,0.5,4.5-0.4,5.8-2.9c1.3-2.5,1.4-6.7-2.6-10.4
				c-0.7-0.6-1.4-1.2-2.3-1.7l0.1-0.3c0.8,0.4,1.8,0.9,2.5,1.6c4.2,3.9,4,8.3,2.6,10.9c-1.3,2.5-3.8,3.7-6.2,3.1
				c-1.7-0.6-2.9-1.8-3.5-3.5C387.5,327,387.4,326.6,387.4,326.3z"/>
			<path fill="#FFFFFF" d="M392.4,331.2c-0.4,0-0.9-0.1-1.3-0.2c-1.8-0.6-3.1-1.9-3.7-3.7c-0.1-0.4-0.2-0.7-0.2-1.1
				c-0.2-1.4,0.1-2.8,0.9-3.8c0.7-1,2-1.8,2.8-2c0.5-0.1,0.8,0.2,0.9,0.6c0,0.3-0.1,0.6-0.4,0.7c-1.3,0.4-2,0.8-2.5,1.4
				c-0.8,0.9-1,2.6-0.6,4c0.5,1.5,1.5,2.5,3,3c0.4,0.1,0.7,0.1,1.1,0.1c1.8,0,3.4-1,4.4-2.9c1.3-2.4,1.4-6.5-2.6-10.1l-0.2-0.1
				c-0.6-0.5-1.3-1.1-2-1.5l-0.2-0.1l0.2-0.8l0.3,0.2c0.8,0.4,1.8,1,2.6,1.6c4.3,4,4.1,8.5,2.7,11.3
				C396.4,330,394.5,331.2,392.4,331.2z M391,321c-0.8,0.2-2,0.9-2.6,1.8c-0.1,0.2-0.3,0.4-0.4,0.6c0.1-0.2,0.2-0.4,0.4-0.6
				c0.7-0.8,1.6-1.2,2.7-1.6c0,0,0.1,0,0-0.1C391.2,321.1,391.1,321,391,321z"/>
		</g>
		<g>
			<path fill="#FFFFFF" d="M382.8,310.9c-0.4,0.2-0.8,0.4-1.1,0.7c-0.8,0.8-1.3,1.8-1.2,2.9c0.1,0.9,0.5,1.7,1.3,2.2
				c0.8,0.6,1.9,0.6,2.8,0c0.7-0.5,1.1-1.3,1-1.9c-0.1-0.7-0.7-0.5-0.6,0c0.1,0.5,0,1.3-0.6,1.7c-1.1,0.7-3.3,0.4-3.5-2
				c-0.1-0.9,0.4-2,1.1-2.7c0.3-0.3,0.6-0.7,1-0.8L382.8,310.9z"/>
			<path fill="#FFFFFF" d="M383.1,317.4c-0.6,0-1.1-0.2-1.6-0.5c-0.8-0.6-1.3-1.4-1.4-2.4c-0.1-1.1,0.4-2.2,1.3-3.1
				c0.4-0.3,0.8-0.6,1.2-0.8l0.2-0.1l0.4,0.6l-0.3,0.1c-0.3,0.1-0.6,0.4-0.8,0.6l-0.1,0.1c-0.7,0.7-1.1,1.6-1,2.5
				c0.1,1.5,1.2,2.1,2.1,2.1c0.4,0,0.8-0.1,1-0.3c0.5-0.3,0.6-1.1,0.5-1.5c0-0.2,0-0.4,0.1-0.6c0.1-0.1,0.2-0.2,0.4-0.2
				c0.2,0,0.5,0.2,0.6,0.7c0.1,0.7-0.3,1.7-1.1,2.2C384.2,317.3,383.7,317.4,383.1,317.4z M385.2,314.6c0,0,0,0.1,0,0.2
				c0,0.2,0,0.5,0,0.7c0.1-0.2,0.1-0.5,0.1-0.7C385.3,314.7,385.2,314.6,385.2,314.6z"/>
		</g>
		<g>
			<path fill="#FFFFFF" d="M430.7,321.1c-16,12.4-37.1-4-44.2-10.1c-0.9-0.8-2.2-0.9-3.2-0.2c-4.7,3.1-17.6,11.7-28.3,21.2l0,0
				c13.1-12.3,29.7-22.6,29.9-22.7l0.1-0.1l0.1,0.1C389.8,313.5,413.2,333.8,430.7,321.1L430.7,321.1z"/>
			<path fill="#FFFFFF" d="M355.2,332.2l-0.3-0.4c13.1-12.2,29.8-22.7,29.9-22.8l0.3-0.2l0.3,0.3c1.7,1.6,6.2,5.6,12.1,9.2
				c13,7.9,24.4,8.9,33,2.7l0.3,0.4c-3.9,3-8.5,4.6-13.5,4.6c-12.3,0-24.7-9.2-31-14.7c-0.8-0.7-2-0.8-2.9-0.2
				C378.5,314.3,365.9,322.8,355.2,332.2z M395.5,317.6c4.6,3,10,5.8,15.6,7.1c-4.4-1-9-3-13.8-6
				C396.7,318.3,396.1,317.9,395.5,317.6z M384.8,310.2c0.5,0,1.1,0.2,1.5,0.4c-0.5-0.4-0.9-0.8-1.2-1.1c-0.1,0.1-0.6,0.4-1.4,0.9
				C384,310.2,384.4,310.2,384.8,310.2z"/>
		</g>
		<g>
			<path fill="#FFFFFF" d="M387.4,314.9c-0.2,1.3,0.1,2.7,0.8,3.6c0.7,0.9,1.9,1.7,2.7,1.9c0.5,0.1,0.8-0.6,0.3-0.8
				c-1.2-0.4-2-0.8-2.6-1.5c-0.8-1-1.1-2.8-0.6-4.3c0.5-1.5,1.6-2.7,3.2-3.2c2.2-0.5,4.5,0.4,5.8,2.9c1.3,2.5,1.4,6.7-2.6,10.4
				c-0.7,0.6-1.4,1.2-2.3,1.7l0.1,0.3c0.8-0.4,1.8-0.9,2.5-1.6c4.2-3.9,4-8.3,2.6-10.9c-1.3-2.5-3.8-3.7-6.2-3.1
				c-1.7,0.6-2.9,1.8-3.5,3.5C387.5,314.2,387.4,314.5,387.4,314.9z"/>
			<path fill="#FFFFFF" d="M392,326.3l-0.2-0.8l0.2-0.1c0.7-0.4,1.4-0.9,2-1.5l0.2-0.1c3.9-3.6,3.8-7.7,2.5-10.1
				c-1-1.8-2.6-2.9-4.4-2.9c-0.4,0-0.8,0-1.2,0.1c-1.5,0.5-2.5,1.6-3,3c-0.5,1.4-0.2,3.1,0.6,4c0.6,0.7,1.2,1,2.5,1.4
				c0.3,0.1,0.4,0.3,0.4,0.7c-0.1,0.4-0.4,0.7-0.9,0.6c-0.8-0.2-2.1-1-2.8-2c-0.7-1-1-2.4-0.9-3.8c0-0.4,0.1-0.8,0.2-1.1
				c0.6-1.8,1.9-3.1,3.6-3.7c2.6-0.7,5.2,0.6,6.5,3.2c1.5,2.7,1.6,7.3-2.7,11.2c-0.8,0.7-1.7,1.2-2.6,1.6L392,326.3z M388,317.7
				c0.1,0.2,0.2,0.4,0.4,0.6c0.6,0.9,1.8,1.6,2.5,1.8c0.2,0,0.2-0.1,0.3-0.2c0-0.1,0-0.1,0-0.1c-1.2-0.4-2-0.8-2.7-1.6
				C388.3,318.1,388.1,317.9,388,317.7z"/>
		</g>
		<g>
			<path fill="#FFFFFF" d="M382.8,330.3c-0.4-0.2-0.8-0.4-1.1-0.7c-0.8-0.8-1.3-1.8-1.2-2.9c0.1-0.9,0.5-1.7,1.3-2.2
				c0.8-0.6,1.9-0.6,2.8,0c0.7,0.5,1.1,1.3,1,1.9c-0.1,0.7-0.7,0.5-0.6,0c0.1-0.5,0-1.3-0.6-1.7c-1.1-0.7-3.3-0.4-3.5,2
				c-0.1,0.9,0.4,2,1.1,2.7c0.3,0.3,0.6,0.7,1,0.8L382.8,330.3z"/>
			<path fill="#FFFFFF" d="M382.9,330.6l-0.2-0.1c-0.5-0.2-0.9-0.4-1.2-0.8c-0.9-0.9-1.3-2-1.3-3.1c0.1-1,0.6-1.8,1.4-2.4
				c0.9-0.6,2.1-0.7,3.1,0c0.8,0.5,1.2,1.5,1.1,2.2c-0.1,0.5-0.3,0.7-0.6,0.7c-0.1,0-0.3-0.1-0.4-0.2c-0.1-0.1-0.2-0.4-0.1-0.6
				c0.1-0.4,0-1.1-0.5-1.5c-0.3-0.2-0.7-0.3-1.1-0.3c-0.9,0-2,0.5-2.1,2.1c-0.1,0.8,0.3,1.8,1,2.5l0.1,0.1c0.3,0.2,0.5,0.5,0.8,0.6
				l0.3,0.1L382.9,330.6z M385.2,325.6c0,0.3,0,0.5,0,0.7c0,0.1,0,0.2,0,0.2c0,0,0-0.1,0.1-0.2C385.3,326.1,385.3,325.9,385.2,325.6
				z"/>
		</g>
		<g>
			<path fill="#FFFFFF" d="M430.7,320c-16-12.4-37.1,4-44.2,10.1c-0.9,0.8-2.2,0.9-3.2,0.2c-4.7-3.1-17.6-11.7-28.3-21.2l0,0
				c13.1,12.3,29.7,22.6,29.9,22.7l0.1,0.1l0.1-0.1C389.8,327.7,413.2,307.3,430.7,320L430.7,320z"/>
			<path fill="#FFFFFF" d="M385.1,332.3l-0.3-0.2c-0.2-0.1-16.8-10.5-29.9-22.8l0.3-0.4c10.6,9.4,23.3,17.9,28.3,21.1
				c0.9,0.6,2.1,0.5,2.9-0.2c6.3-5.5,18.7-14.7,31-14.7c5,0,9.5,1.5,13.5,4.6l-0.3,0.4c-8.5-6.2-20-5.2-33,2.7
				c-5.9,3.6-10.5,7.6-12.1,9.2L385.1,332.3z M383.7,330.8c0.8,0.5,1.3,0.9,1.4,0.9c0.3-0.3,0.7-0.7,1.2-1.1
				C385.5,331.1,384.5,331.1,383.7,330.8z M411.2,316.5c-5.7,1.3-11.1,4.1-15.8,7.2c0.6-0.4,1.2-0.8,1.9-1.2
				C402.1,319.5,406.8,317.5,411.2,316.5z"/>
		</g>
		<g>
			<path fill="#FFFFFF" d="M129.7,326.3c0.2-1.3-0.1-2.7-0.8-3.6c-0.7-0.9-1.9-1.7-2.7-1.9c-0.5-0.1-0.8,0.6-0.3,0.8
				c1.2,0.4,2,0.8,2.6,1.5c0.8,1,1.1,2.8,0.6,4.3c-0.5,1.5-1.6,2.7-3.2,3.2c-2.2,0.5-4.5-0.4-5.8-2.9c-1.3-2.5-1.4-6.7,2.6-10.4
				c0.7-0.6,1.4-1.2,2.3-1.7l-0.1-0.3c-0.8,0.4-1.8,0.9-2.5,1.6c-4.2,3.9-4,8.3-2.6,10.9c1.3,2.5,3.8,3.7,6.2,3.1
				c1.7-0.6,2.9-1.8,3.5-3.5C129.6,327,129.6,326.6,129.7,326.3z"/>
			<path fill="#FFFFFF" d="M124.7,331.2L124.7,331.2c-2.1,0-4.1-1.3-5.2-3.3c-1.5-2.7-1.6-7.3,2.7-11.2c0.8-0.7,1.7-1.2,2.6-1.6
				l0.3-0.2l0.2,0.8l-0.2,0.1c-0.7,0.4-1.4,0.9-2,1.5l-0.2,0.1c-3.9,3.6-3.8,7.7-2.5,10.1c1,1.8,2.6,2.9,4.4,2.9
				c0.4,0,0.8,0,1.2-0.1c1.5-0.5,2.5-1.6,3-3c0.5-1.4,0.2-3.1-0.6-4c-0.5-0.7-1.2-1-2.5-1.4c-0.3-0.1-0.4-0.4-0.4-0.7
				c0.1-0.4,0.4-0.7,0.9-0.6c0.8,0.2,2.1,1,2.8,2c0.7,1,1,2.4,0.9,3.8c0,0.4-0.1,0.8-0.2,1.1c-0.6,1.8-1.9,3.1-3.6,3.7
				C125.6,331.2,125.2,331.2,124.7,331.2z M126.1,321c-0.2,0-0.2,0.1-0.2,0.2c0,0.1,0,0.1,0,0.1c1.2,0.4,2,0.8,2.7,1.6
				c0.1,0.2,0.3,0.4,0.4,0.6c-0.1-0.2-0.2-0.5-0.4-0.6C128,321.9,126.9,321.2,126.1,321C126.1,321,126.1,321,126.1,321z"/>
		</g>
		<g>
			<path fill="#FFFFFF" d="M134.3,310.9c0.4,0.2,0.8,0.4,1.1,0.7c0.8,0.8,1.3,1.8,1.2,2.9c-0.1,0.9-0.5,1.7-1.3,2.2
				c-0.8,0.6-1.9,0.6-2.8,0c-0.7-0.5-1.1-1.3-1-1.9c0.1-0.7,0.7-0.5,0.6,0c-0.1,0.5,0,1.3,0.6,1.7c1.1,0.7,3.3,0.4,3.5-2
				c0.1-0.9-0.4-2-1.1-2.7c-0.3-0.3-0.6-0.7-1-0.8L134.3,310.9z"/>
			<path fill="#FFFFFF" d="M134,317.4c-0.5,0-1.1-0.2-1.5-0.4c-0.8-0.5-1.2-1.5-1.1-2.2c0.1-0.5,0.3-0.7,0.6-0.7
				c0.1,0,0.3,0.1,0.4,0.2c0.1,0.1,0.2,0.4,0.1,0.6c-0.1,0.4,0,1.1,0.5,1.5c0.3,0.2,0.7,0.3,1.1,0.3c0.9,0,2-0.5,2.1-2.1
				c0.1-0.8-0.3-1.8-1-2.5l-0.1-0.1c-0.3-0.3-0.5-0.5-0.8-0.6l-0.3-0.1l0.4-0.6l0.2,0.1c0.5,0.2,0.9,0.4,1.2,0.8
				c0.9,0.9,1.3,2,1.3,3.1c-0.1,1-0.6,1.8-1.4,2.4C135.1,317.2,134.5,317.4,134,317.4z M131.9,314.6c0,0,0,0.1-0.1,0.2
				c0,0.2,0,0.4,0.1,0.7c0-0.3,0-0.5,0-0.7C131.9,314.7,131.9,314.6,131.9,314.6z"/>
		</g>
		<g>
			<path fill="#FFFFFF" d="M86.4,321.1c16,12.4,37.1-4,44.2-10.1c0.9-0.8,2.2-0.9,3.2-0.2c4.7,3.1,17.6,11.7,28.3,21.2l0,0
				c-13.1-12.3-29.7-22.6-29.9-22.7l-0.1-0.1l-0.1,0.1C127.3,313.5,103.9,333.8,86.4,321.1L86.4,321.1z"/>
			<path fill="#FFFFFF" d="M161.8,332.2c-10.6-9.4-23.3-17.9-28.3-21.1c-0.9-0.6-2.1-0.5-2.9,0.2c-6.3,5.5-18.7,14.7-31,14.7
				c-5,0-9.5-1.5-13.5-4.6l0.3-0.4c3.7,2.7,8,4.1,12.7,4.1c14.6,0,29.6-13.2,32.4-15.9l0.3-0.2l0.3,0.2c0.2,0.1,16.8,10.5,29.9,22.8
				L161.8,332.2z M121.6,317.6c-0.6,0.4-1.2,0.7-1.8,1.1c-4.8,2.9-9.5,4.9-13.8,6C111.6,323.4,117,320.6,121.6,317.6z M132,309.5
				c-0.3,0.3-0.7,0.7-1.2,1.1c0.8-0.5,1.8-0.6,2.6-0.2C132.6,309.8,132.1,309.5,132,309.5z"/>
		</g>
		<g>
			<path fill="#FFFFFF" d="M129.7,314.9c0.2,1.3-0.1,2.7-0.8,3.6c-0.7,0.9-1.9,1.7-2.7,1.9c-0.5,0.1-0.8-0.6-0.3-0.8
				c1.2-0.4,2-0.8,2.6-1.5c0.8-1,1.1-2.8,0.6-4.3c-0.5-1.5-1.6-2.7-3.2-3.2c-2.2-0.5-4.5,0.4-5.8,2.9c-1.3,2.5-1.4,6.7,2.6,10.4
				c0.7,0.6,1.4,1.2,2.3,1.7l-0.1,0.3c-0.8-0.4-1.8-0.9-2.5-1.6c-4.2-3.9-4-8.3-2.6-10.9c1.3-2.5,3.8-3.7,6.2-3.1
				c1.7,0.6,2.9,1.8,3.5,3.5C129.6,314.2,129.6,314.5,129.7,314.9z"/>
			<path fill="#FFFFFF" d="M125.1,326.3l-0.3-0.1c-0.8-0.4-1.8-1-2.6-1.6c-4.3-4-4.1-8.5-2.7-11.3c1.1-2.1,3.1-3.3,5.2-3.3
				c0.4,0,0.9,0.1,1.3,0.2c1.8,0.6,3.1,1.9,3.7,3.7c0.1,0.4,0.2,0.7,0.2,1.1c0.2,1.4-0.1,2.8-0.9,3.8c-0.7,1-2,1.8-2.8,2
				c-0.5,0.1-0.8-0.2-0.9-0.6c0-0.3,0.1-0.6,0.4-0.7c1.3-0.4,1.9-0.8,2.5-1.4c0.8-0.9,1-2.6,0.6-4c-0.5-1.5-1.5-2.5-3-3
				c-0.4-0.1-0.7-0.1-1.1-0.1c-1.8,0-3.4,1-4.4,2.9c-1.3,2.4-1.4,6.5,2.6,10.1l0.2,0.1c0.6,0.5,1.3,1.1,2,1.5l0.2,0.1L125.1,326.3z
				 M129,317.7c-0.1,0.2-0.2,0.4-0.4,0.6c-0.7,0.8-1.6,1.2-2.7,1.6c0,0-0.1,0,0,0.1c0,0.1,0.1,0.2,0.2,0.2c0.8-0.2,2-0.9,2.6-1.8
				C128.8,318.2,128.9,318,129,317.7z"/>
		</g>
		<g>
			<path fill="#FFFFFF" d="M134.3,330.3c0.4-0.2,0.8-0.4,1.1-0.7c0.8-0.8,1.3-1.8,1.2-2.9c-0.1-0.9-0.5-1.7-1.3-2.2
				c-0.8-0.6-1.9-0.6-2.8,0c-0.7,0.5-1.1,1.3-1,1.9c0.1,0.7,0.7,0.5,0.6,0c-0.1-0.5,0-1.3,0.6-1.7c1.1-0.7,3.3-0.4,3.5,2
				c0.1,0.9-0.4,2-1.1,2.7c-0.3,0.3-0.6,0.7-1,0.8L134.3,330.3z"/>
			<path fill="#FFFFFF" d="M134.2,330.6l-0.4-0.6l0.3-0.1c0.3-0.1,0.6-0.4,0.8-0.6l0.1-0.1c0.7-0.7,1.1-1.6,1-2.5
				c-0.1-1.5-1.2-2.1-2.1-2.1c-0.4,0-0.8,0.1-1,0.3c-0.5,0.3-0.6,1.1-0.5,1.5c0,0.2,0,0.4-0.1,0.6c-0.1,0.1-0.2,0.2-0.4,0.2
				c-0.2,0-0.5-0.2-0.6-0.7c-0.1-0.7,0.3-1.7,1.1-2.2c1-0.6,2.2-0.6,3.1,0c0.8,0.6,1.3,1.4,1.4,2.4c0.1,1.1-0.4,2.2-1.3,3.1
				c-0.4,0.3-0.8,0.6-1.2,0.8L134.2,330.6z M131.9,325.6c-0.1,0.2-0.1,0.5-0.1,0.7c0,0.2,0.1,0.2,0.1,0.2c0,0,0-0.1,0-0.2
				C131.9,326.2,131.8,325.9,131.9,325.6z"/>
		</g>
		<g>
			<path fill="#FFFFFF" d="M86.4,320c16-12.4,37.1,4,44.2,10.1c0.9,0.8,2.2,0.9,3.2,0.2c4.7-3.1,17.6-11.7,28.3-21.2l0,0
				c-13.1,12.3-29.7,22.6-29.9,22.7L132,332l-0.1-0.1C127.3,327.7,103.9,307.3,86.4,320L86.4,320z"/>
			<path fill="#FFFFFF" d="M131.9,332.3l-0.3-0.2c-1.7-1.6-6.2-5.6-12.1-9.2c-13-7.9-24.4-8.9-33-2.7l-0.3-0.4
				c3.9-3,8.5-4.6,13.5-4.6c12.3,0,24.7,9.2,31,14.7c0.8,0.7,2,0.8,2.9,0.2c5-3.2,17.6-11.8,28.3-21.1l0.3,0.4
				c-13.1,12.2-29.8,22.7-29.9,22.8L131.9,332.3z M130.8,330.6c0.5,0.4,0.9,0.8,1.2,1.1c0.1-0.1,0.6-0.4,1.4-0.9
				C132.6,331.1,131.6,331.1,130.8,330.6z M105.9,316.5c4.4,1,9,3,13.9,6c0.6,0.4,1.2,0.8,1.8,1.2
				C117,320.6,111.6,317.8,105.9,316.5z"/>
		</g>
		<g>
			<path fill="#FFFFFF" d="M179.8,326c1.1,0.6,2.2,1,3.2,1c1.4,0,2.7-0.7,2.7-2c0-3.3-7.3-1.8-7.3-7c0-2.1,1.9-4.2,5.4-4.2
				c1.8,0,3.1,0.6,3.8,0.9c0.1,0,0.2,0.1,0.2,0.1c0.1,0,0.1-0.1,0.2-0.8h0.6l-0.1,3.7H188l-0.1-1.3c0-1.1-2.1-1.8-3.3-1.8
				c-1.8,0-2.6,1-2.6,2.1c0,3.1,7.5,1.5,7.5,6.7c0,3-2.9,4.5-5.9,4.5c-2,0-4.3-0.7-4.9-0.9l-0.2-3.2h0.6L179.8,326z"/>
			<path fill="#FFFFFF" d="M198,316.1c0.8-1.8,0.5-0.8,1.4-2c0.2-0.3,0.3-0.6,0.7-0.6c0.4,0,0.6,0.6,0.8,1.1l4.8,11.6
				c0.3,0.7,0.7,0.8,1.5,0.8v0.6c-1,0-2.4-0.1-3.6-0.1c-1.3,0-2.5,0-3.8,0.1v-0.6c0.3,0,0.8-0.1,1.2-0.1c0.3,0,0.6-0.1,0.6-0.4
				s-0.1-0.6-0.2-0.8l-1.1-3.1H196l-1.4,3.1c-0.1,0.2-0.2,0.5-0.2,0.8c0,0.2,0.3,0.3,0.6,0.3c0.4,0,0.8,0.1,1.3,0.1v0.6
				c-0.8,0-1.6-0.1-2.3-0.1c-0.7,0-1.3,0-2,0.1v-0.6c0.9-0.1,1.2-0.1,1.5-1L198,316.1z M200.1,321.8l-1.5-4
				c-0.1-0.3-0.1-0.5-0.3-0.5c-0.1,0-0.1,0.2-0.3,0.5l-1.7,4H200.1z"/>
			<path fill="#FFFFFF" d="M222,323.8l-0.5,3.7c-2.6,0-5.9-0.1-7.8-0.1c-1.4,0-2.8,0-4.2,0.1v-0.6c0.2,0,0.4,0,0.7-0.1
				c0.4,0,0.7-0.1,0.7-0.2c0-0.4,0-0.7,0-1.1V316c0-0.4,0-0.8,0-1.1c0-0.2-0.3-0.2-0.7-0.2c-0.3,0-0.5,0-0.7,0V314
				c1.1,0,2.3,0.1,3.4,0.1c1.1,0,2.5,0,3.8-0.1v0.6c-0.2,0-0.4,0-0.7,0c-0.6,0-1.1,0.1-1.1,0.2c0,0.4,0,0.7,0,1.1V326
				c0,0.5,0,0.5,0.5,0.5c1.5,0,3.8,0,5.2-0.2l0.7-2.6H222z"/>
			<path fill="#FFFFFF" d="M232.4,313.7c4.3,0,7.4,2.7,7.4,7c0,4.4-3.1,7-7.4,7s-7.4-2.7-7.4-7C225.1,316.4,228.2,313.7,232.4,313.7
				z M235.4,320.8c0-3-0.6-6.2-3-6.2c-2.4,0-3,3.2-3,6.2s0.6,6.2,3,6.2C234.8,327,235.4,323.8,235.4,320.8z"/>
			<path fill="#FFFFFF" d="M243.6,314.1c1.7,0,3.5-0.1,5.2-0.3l7,8.5c0,0.1,0.1,0.1,0.1,0.1c0.1,0,0.1-0.2,0.1-0.3l-0.1-6.1
				c0-0.4,0-0.7,0-0.9c0-0.3-0.3-0.4-1.7-0.4V314c0.5,0,1.3,0.1,2.1,0.1c0.7,0,1.4,0,2.2-0.1v0.6c-1.4,0-1.4,0.2-1.4,0.4
				c0,0.3,0,0.7,0,1l-0.2,10.7c0,0.7-0.1,1.4-0.8,1.4c-0.5,0-1-0.7-1.5-1.3l-8.1-9.9c-0.1-0.1-0.1-0.2-0.2-0.2s-0.1,0.1-0.1,0.2
				l0.1,8.6c0,0.4,0,0.7,0,0.9c0,0.3,0.3,0.4,1.7,0.5v0.6c-0.5,0-1.3-0.1-2.1-0.1c-0.7,0-1.4,0-2.2,0.1v-0.6c1.4,0,1.4-0.2,1.4-0.4
				c0-0.3,0-0.7,0-1l0.2-9.5c0-0.3,0-0.6,0-0.9c0-0.4-0.1-0.4-0.6-0.4c-0.4,0-0.7,0-1,0V314.1z"/>
			<path fill="#FFFFFF" d="M278.1,315.9c0.4-0.4,0.7-0.8,0.7-1.3c0-0.8-0.9-1-0.9-1.6c0-0.4,0.2-1.3,0.6-1.3c0.4,0,1.5,0.9,1.5,2.1
				c0,1-0.7,1.8-1.6,2.8l-4.5,4.8c-0.2,0.3-0.5,0.5-0.5,0.8c0,1.1,1.9,2.6,4.2,2.6c1.8,0,3.8-1.1,3.8-2.9c0-0.3,0-0.6-0.1-0.8
				c-0.6-0.3-1.8-0.9-2.7-0.9c-0.6,0-1,0.3-1,0.7c0,0.7,0.9,0.8,1.8,0.8c0.4,0,0.7,0,0.7,0.4c0,0.8-0.5,1.1-1.1,1.1
				c-1,0-2.1-0.7-2.1-2c0-1.3,1-2.9,2.9-2.9c2.9,0,5.8,2.9,6.8,2.9c0.3,0,0.5-0.3,0.5-0.6c0-0.6-0.7-1.9-0.7-2
				c0-0.1,0.1-0.2,0.6-0.2c0.8,0,1.6,0.3,1.6,1.5c0,1.4-1.7,2.2-3.3,2.2c-0.9,0-1.8-0.3-3.3-0.9c0,0.9,0,1.8-0.6,3
				c-1,2-2.9,3.4-5.5,3.4c-3.8,0-6-3.2-6-6.3c0-3.1,2.4-6.1,5.4-6.1c0.7,0,1.5,0.2,2.4,0.7L278.1,315.9z M275.5,318.6
				c0.1-0.1,0.2-0.2,0.2-0.3c0-0.4-1.1-1.1-2.1-1.1c-0.9,0-1.9,0.6-1.9,1.9c0,1.1,0.6,2,1,2.5L275.5,318.6z"/>
			<path fill="#FFFFFF" d="M301.7,326c1.1,0.6,2.2,1,3.2,1c1.4,0,2.7-0.7,2.7-2c0-3.3-7.3-1.8-7.3-7c0-2.1,1.9-4.2,5.4-4.2
				c1.8,0,3.1,0.6,3.8,0.9c0.1,0,0.2,0.1,0.2,0.1c0.1,0,0.1-0.1,0.2-0.8h0.6l-0.1,3.7h-0.7l-0.1-1.3c0-1.1-2.1-1.8-3.3-1.8
				c-1.8,0-2.6,1-2.6,2.1c0,3.1,7.5,1.5,7.5,6.7c0,3-2.9,4.5-5.9,4.5c-2,0-4.3-0.7-4.9-0.9l-0.2-3.2h0.6L301.7,326z"/>
			<path fill="#FFFFFF" d="M316.8,316c0-0.4,0-0.8,0-1.1c0-0.2-0.3-0.2-0.7-0.2c-0.3,0-0.5,0-0.7,0V314c1.1,0,2.3,0.1,3.2,0.1
				c1.2,0,2.5-0.1,4-0.1c2.9,0,5.5,1.2,5.5,3.8c0,2.2-1.8,4-5.5,4c-0.8,0-1.4-0.1-1.9-0.1v3.9c0,0.4,0,0.8,0,1.1
				c0,0.2,0.3,0.2,0.6,0.2c0.3,0,0.9,0,1.2,0v0.6c-1.6,0-2.7-0.1-3.8-0.1c-1.1,0-2.3,0-3.4,0.1v-0.6c0.2,0,0.4,0,0.7,0
				c0.4,0,0.7-0.1,0.7-0.2c0-0.4,0-0.7,0-1.1V316z M320.8,320.8c0.3,0.1,0.5,0.1,0.9,0.1c1.7,0,2.3-1.4,2.3-3.1c0-1.7-0.6-3-2.4-3
				c-0.4,0-0.8,0-0.8,0.3V320.8z"/>
			<path fill="#FFFFFF" d="M334.4,316.1c0.8-1.8,0.5-0.8,1.4-2c0.2-0.3,0.3-0.6,0.7-0.6c0.4,0,0.6,0.6,0.8,1.1l4.8,11.6
				c0.3,0.7,0.7,0.8,1.5,0.8v0.6c-1,0-2.4-0.1-3.6-0.1c-1.3,0-2.5,0-3.8,0.1v-0.6c0.3,0,0.8-0.1,1.2-0.1c0.3,0,0.6-0.1,0.6-0.4
				s-0.1-0.6-0.2-0.8l-1.1-3.1h-4.4l-1.4,3.1c-0.1,0.2-0.2,0.5-0.2,0.8c0,0.2,0.3,0.3,0.6,0.3c0.4,0,0.8,0.1,1.3,0.1v0.6
				c-0.8,0-1.6-0.1-2.3-0.1c-0.7,0-1.3,0-2,0.1v-0.6c0.9-0.1,1.2-0.1,1.5-1L334.4,316.1z M336.4,321.8l-1.5-4
				c-0.1-0.3-0.1-0.5-0.3-0.5c-0.1,0-0.1,0.2-0.3,0.5l-1.7,4H336.4z"/>
		</g>
	</g>
</g>
</svg>
