<?xml version="1.0" encoding="utf-8"?>

<svg version="1.1" id="Layer_1" xmlns="http://www.w3.org/2000/svg" xmlns:xlink="http://www.w3.org/1999/xlink" x="0px" y="0px"
	 viewBox="0 0 113.7 112.7" enable-background="new 0 0 113.7 112.7" xml:space="preserve">
<path d="M71.9,112c-4.3,0-8.2,0-12.2,0c-5.4,0-10.7,1.2-16.2,0.4c-0.2-0.1-0.6-0.4-1.1-0.8c1.6-1.7,2-3.9,3-5.7
	c1-1.8,1.4-3.9,2.4-5.8c0.4-0.8,0-1.6,0.5-2.5c0.7-1.1,1-2.6,1.4-3.8c0.5-1.3,0.6-2.7,1.1-4c0.4-1.1,0.3-2.4,0.7-3.6
	c0.4-1.2,0.5-2.6,0.6-3.9c0.1-1.4,0-2.8,0-4.1c0-0.4,0.2-0.9,0.4-1.5c-0.1-0.1-0.2-0.5-0.4-0.9c-0.1-0.3-0.1-0.7-0.2-1
	c-0.4,0-0.6,0-0.9,0.1c-0.3,3-1.3,5.9-3,8.5c-1.3,1.9-2.5,3.8-4.5,5.3c-2,1.5-4.3,2.7-6.3,4.3c-0.5,0.4-5.4,2.1-6,2.1
	c-1.8-0.2-3.3,0.7-4.9,1.2c-0.2-0.2-0.4-0.3-0.8-0.7c-1.8,1.5-3.8-0.5-5.8,0c-1.9-1-4.2-1.3-6.2-2.3c-2-0.9-3.3-2.6-5-3.7
	c-1.7-1.1-3-2.9-4.1-4.7c-1-1.6-1.8-3.2-2.7-4.9c-1.1-2.1-1.3-4.6-1.9-6.9c-0.2-0.5,0.3-1.2,0.5-2c-0.1-0.5-0.6-1.2-0.5-1.7
	c0.7-2.5,0.7-5.1,1.7-7.6c1.5-3.7,2.5-5.4,5.1-8.5c1.5-1.8,3.4-3.2,5.3-4.5c1.1-0.8,2.4-1.6,3.7-1.8c1.3-0.3,2.5-0.8,3.9-0.7
	c1.9,0.1,3.7-0.8,5.7-0.5c1.7,0.3,3.3,0.6,5,0.9c0.2,0,0.4,0.3,0.5,0.2c1.3-0.3,2.4,0.6,3.6,0.6c0.6,0,1.2-0.3,2.2-0.6
	c0.1,0.3,0.3,0.7,0.5,1.1c-0.1,0-0.5,0.2-0.8,0.4c0.6,0.4,1.2,0.9,1.8,1.3c0.6,0.4,1.3,0.6,2.2,1c0-0.7,0.1-1.1,0.1-1.8
	c-0.7-0.5-1.8-0.8-2.2-1.5c-0.5-0.9-1.2-1.3-1.9-1.9c-1.8-1.5-2.8-3.7-3.7-5.8c-0.1-0.3,0-0.7-0.1-0.8c-1.6-1.1-1.7-2.9-2-4.5
	c-0.6-2.7-1.7-5.5-1.4-8.3c0.3-2.7,0.7-5.4,1.2-8.1c0.1-0.4,0.3-0.9,0.6-1.2c1.3-2,2.5-4.1,3.9-6.1c1.8-2.5,4.4-4,6.5-6.3
	c0.2,0,0.8,0.2,1,0c1.3-1.2,2.8-1.7,4.5-2c1.6-0.3,3.1-1.2,4.7-1.5c1.4-0.3,2.8-0.3,4.2-0.5c1.3-0.2,2.7,0.6,4.2,0.5
	c1.4-0.1,2.5,0.4,3.8,0.9c1.9,0.7,3.8,1.2,5.7,2c4.6,2.1,10.7,8.4,12,13.7c0.2,0.9,1.2,1.7,1.1,2.5c-0.1,0.9,1.2,1.7,0.1,2.5
	c1,0.7,0.3,1.8,0.6,2.7c0.4,1.3-1.3,2.2-0.4,3.5l-0.4,3.4c-0.4,1.1-0.6,2.3-1.1,3.4c-1,2.2-1.3,4.7-3.3,6.4
	c-0.4,0.3-0.6,0.9-0.8,1.4c-0.3,0.5-0.5,1.2-0.9,1.4c-1.2,0.4-1.7,1.3-2.3,2.3c-0.7,1.1-1.8,1.9-2.7,2.8c0,0.5,0,0.9,0,1.4
	c0.2,0.1,0.5,0.2,0.6,0.2c0.8-0.5,1.6-1,2.3-1.5c1.3-0.8,2.3-2.3,4.2-2c1.9-1.3,4.2-1.3,6.3-2c1.1-0.4,2.1-0.3,3.1-0.3
	c5.5-0.1,5.5,0,11.3,2c1.5,0.5,2.8,1.4,4.1,2.3c0.9,0.7,1.9,1.3,2.7,2.1c2,2,3.5,4.5,5,6.8c1.7,2.6,2.6,5.6,2.4,8.8
	c-0.1,0.7,0.9,1,0.4,1.7c-0.3,0.4-0.2,1.1-0.3,1.7c0,0.7,0.1,1.4,0,2.1c-0.1,0.6-0.4,1.2-0.6,1.8c0.2,0.3,0.4,0.5,0.5,0.6
	c-0.8,1.6-1.5,3.2-2.3,4.8c-1.3,2.6-2.4,5.5-5.2,7c-1.5,3.6-5.5,3.9-8.1,6.2c-1,0.9-2.7,1-4.1,1.4c-2.9,0.9-6,0.7-8.9,0.5
	c-1.5-0.1-3.1-0.5-4.5-1.2c-1-0.5-2-0.5-3-0.5c-1-0.7-2.1-1.4-3-2.2c-1-0.7-2-1.5-2.9-2.3c-1-0.8-2-1.7-2.9-2.6
	c-0.9-0.9-1.7-1.8-2.5-2.8c-0.8-1-1.4-2.2-2.1-3.3c-0.7-1.2-1-2.4-0.7-3.6c-0.6-0.9-1-1.5-1.7-2.6c-0.6,6.8,1.4,12.6,3.3,18.5
	c0,1.7,0,3.4,1.3,4.8c0.3,4.2,3,7.4,4.3,11.3c0.3,0.8,1,1.4,1.4,2.1C71.7,110.7,71.7,111.2,71.9,112z"/>
</svg>
