<?xml version="1.0" encoding="utf-8"?>
<!-- Generator: Adobe Illustrator 18.1.1, SVG Export Plug-In . SVG Version: 6.00 Build 0)  -->
<svg version="1.1" id="Layer_1" xmlns="http://www.w3.org/2000/svg" xmlns:xlink="http://www.w3.org/1999/xlink" x="0px" y="0px"
	 viewBox="0 0 90.4 116.3" enable-background="new 0 0 90.4 116.3" xml:space="preserve">
<path d="M68.3,81.7c-0.5,0.3-1.2,0.4-1.3,0.8c-0.3,1-1.4,1.2-1.8,2.2c-0.4,0.9-1.2,1.7-1.8,2.5c-0.6,0.7-1.7,1.3-2,2.1
	c-0.4,1.2-1.4,1.6-2,2.4c-2.8,4.4-6.4,8.2-8.9,12.9c-1.3,2.5-3,4.9-4.8,7.2c-0.6,0.8-0.3,1.8-1.1,2.6c-0.6,0.6-1.3,1.1-2,1.8
	c-1.1-1.3-2.3-2.4-2.7-4.2c0-0.1,0-0.2,0-0.3c-3-2.7-3.8-6.8-6.2-9.9c-1.1-1.4-1.6-3.4-2.7-4.8c-3.1-4-5.3-8.6-8.6-12.5
	C21.5,83.6,21,82,19.8,81c-0.6-2.7-3.2-3.9-4.4-6.2C14.8,73.8,13.8,73,13,72c-1.3-1.9-2.9-3.7-4.6-5.2c-1.5-1.3-2.7-2.9-4.1-4.2
	c-1.4-1.4-2.8-2.8-4.4-4.3c0.3-0.5,0.5-1.2,0.9-1.6c2.2-2.3,4.4-4.5,6.7-6.7c2.6-2.6,5-5.3,7.2-8.3c0.7-1,1.8-1.8,2.7-2.7
	c2.3-2.2,4.2-4.7,6.1-7.2c1.2-1.6,2.7-3,4-4.6C31,23,34.1,18.7,37,14.3c1.7-2.6,3.5-5.1,5-7.7c1-1.8,2.2-3.4,2.8-5.4
	c0.3-1,1.1-1.3,2.1-1.1c1,1.2,1.7,2.5,2.3,4c0.8,1.8,2.2,3.4,3.3,5.2c1.8,2.8,3.6,5.6,5.3,8.5c0.3,0.5,0.6,0.9,0.9,1.4
	c0.7,0.9,1.4,1.8,2,2.7c0.1,0.1,0,0.5,0.1,0.5c2.1,1.5,2.7,4.2,4.6,5.8c0.8,0.7,1.2,1.9,1.9,2.7c0.7,0.9,1.1,2.1,2.3,2.6
	c0.2,0.1,0.3,0.2,0.4,0.4c1.6,3.5,4.7,5.7,6.9,8.7c1.3,1.8,3,3.3,4.5,5c0.9,1,1.5,2.5,2.6,3c1.5,0.7,1.7,2.6,3.1,3.2
	c1.5,0.7,2.3,2,3.4,2.9c0.1,1.4-0.6,2.2-1.7,3c-1.2,1-2.6,2-3.2,3.7c-0.2,0.5-0.8,0.9-1.2,1.3c-2.3,1.9-3.8,4.7-6.6,6
	c-0.8,1.9-2.8,2.8-3.7,4.4c-0.5,1.1-1.9,0.8-1.9,1.8c-0.1,1.1-1,1.4-1.5,2.1C69.8,79.9,69,80.8,68.3,81.7z"/>
</svg>
