<?xml version="1.0" encoding="utf-8"?>

<svg version="1.1" id="Layer_1" xmlns="http://www.w3.org/2000/svg" xmlns:xlink="http://www.w3.org/1999/xlink" x="0px" y="0px"
	 viewBox="0 0 93.3 113.5" enable-background="new 0 0 93.3 113.5" xml:space="preserve">
<path d="M42.1,113.2c-0.8-1.7-1.5-3.5-2.5-5.1c-0.6-1.1-1.5-2.2-2.8-2.2c-0.2-0.9-0.1-1.8-0.5-2.5c-0.9-1.7-2-3.2-3-4.8l0,0
	c-0.8-1.4-1.7-2.8-2.5-4.1l0,0c-1.4-2.1-2.6-4.4-4.5-6.2c-0.2-0.2-0.5-0.6-0.5-0.9c-0.1-1.4-1.1-2.4-1.8-3.5c-0.5,0.1-1,0.2-1.5,0.3
	c0.1-2,0.1-2-1-3.7c-2.1-3.3-4.2-6.6-6.3-9.9c-0.7-1.1-1.5-2.2-2.4-3.2c-0.4-0.4-1.1-0.6-1.8-1c0-0.7,0.3-1.6,0.1-2.5
	c-0.2-0.8-0.8-1.5-1.2-2.3C6.5,55.5,3.8,49,1.7,42.2c-0.1-0.4-0.4-0.8-0.6-1.3l0,0c-0.2-1.2-0.4-2.4-0.6-3.6
	c-0.9-5.8-0.4-11.5,1-17.2c0-0.1,0-0.2,0.1-0.3c0.7-1.3-0.3-2.9,0.7-4.1c0.8-1,1.7-2.1,2.3-3.2c2-3.5,5.1-6,8.3-8
	c2.3-1.4,5.1-2.1,7.7-3c0.7-0.2,1.5-0.2,2-1c0.7-1.1,1.4-0.5,2.1,0.2c-0.2,0-0.3,0.1-0.5,0.1c0.2,0,0.3-0.1,0.5-0.1
	c0.6-0.1,1.3-0.3,2-0.5c1.4,1.8,3.6,1.6,5.5,2.4c1.9,0.8,3.7,1.7,5.8,2.6c1.4,2.4,1.4,2.4,4.6,3.3C42,9,41.7,9.3,41.3,9.7
	c1,1.7,1.9,3.5,3,5.3c0.6,0.1,1.3,0.1,2.4,0.3c-0.7,0.9-1.2,1.4-1.9,2.2c0.8,0.4,1.3,0.7,1.8,0.9c-1.1,1.7-1.1,1.7,0.1,3.4
	c0.3-0.3,0.6-0.5,0.7-0.8c0.8-2.5,1.6-5.1,2.5-7.5c0.4-0.9,1.3-1.6,1.9-2.4c1.9-2.7,4.3-4.8,7.3-6.3c0.4-0.2,0.8-0.5,1.3-0.6
	c1.8-0.5,3.6-0.9,5.1-2.6c0.2,0.6,0.4,0.9,0.5,1.2c-0.1,0-0.3,0.1-0.4,0.1c0.2,0,0.3-0.1,0.5-0.1c1-0.2,1.9-0.5,3-0.8
	c0.2,0.2,0.5,0.5,0.9,0.9c0.9-0.4,1.9-0.8,3-1.3c0.2,0.6,0.3,1.1,0.4,1.6c2.8,1.1,5.8,1.6,8.2,3.4l0,0c0.4,0.5,0.8,1.1,1.3,1.4
	c1.9,1.3,3.3,3,4.6,4.9c0.3,0.4,0.6,0.8,1,1c0.8,0.4,1,1,1.2,1.7c0.3,1,0.9,1.8,1.3,2.7l0,0c0.9,3.3,1.7,6.6,2.1,10
	c0.2,2.2,0.2,4.3-0.2,6.5c-0.5,2.7-0.9,5.4-1.5,8.1c-0.2,1.1-0.7,2.1-1.1,3.2c-1.2,2.7-2.4,5.4-3.6,8.1c-0.3,0.6-0.3,1.3-0.4,2
	c-1.8,0.9-2.7,2.6-3.5,4.3c-0.4,0.9-1,1.5-1.6,2.3c-1.3,1.5-2.4,3.2-3.6,4.8l0,0c-0.3,0.2-0.6,0.5-0.9,0.7c-1.5,1-1.3,3.1-2.8,4.2
	c-1.3,1-2.3,2.5-3.3,3.8c-0.4,0.5-0.3,1.3-0.5,2.4c-0.1,0-0.7,0.2-1.1,0.5c-0.6,0.3-1.3,0.7-1.5,1.2c-0.9,2.4-3.1,3.7-4.6,5.6
	c-1,1.4-1.1,1.3-1.3,3.4c-1.6,0.3-3,0.9-3.2,2.9c0,0.4-0.5,0.8-0.8,1.1c-1.9,1.7-3.7,3.5-4.3,6.2c-0.1,0.4-0.5,0.7-0.8,1.1
	c-0.9,1-1.7,2-2.6,3c-0.7,0.8-0.5,1.5-0.2,2.2c-0.9,0.7-2,1.3-2.5,2.2c-0.9,1.6-2.3,3.1-1.9,5.4C44.1,113.4,43.1,113.3,42.1,113.2
	L42.1,113.2z"/>
</svg>
