<?xml version="1.0" encoding="utf-8"?>

<svg version="1.1" id="Layer_1" xmlns="http://www.w3.org/2000/svg" xmlns:xlink="http://www.w3.org/1999/xlink" x="0px" y="0px"
	 viewBox="0 0 84.8 117.9" enable-background="new 0 0 84.8 117.9" xml:space="preserve">
<path d="M42.1,0c0.9,1.9,1.5,3.1,2,4.3c2,4.6,4.5,8.8,7.5,12.8c4.3,5.9,8.2,11.9,12.6,17.7c5,6.6,9.7,13.4,13.8,20.6
	c2.8,5,5,10.2,6.1,15.9c0.9,4.7,1.2,9.4-0.4,14.1c-2.4,7.2-8.1,13.3-16.5,14c-7.3,0.6-12.3-2.1-15.9-8.9c-1.2-2.3-1.8-4.8-1.9-7.4
	c0-0.6-0.1-1.2-0.2-2c-0.7,0-1.4,0-2.3-0.1c-0.2,6.5,0.5,12.8,2.2,19c1.7,6.3,5.5,11.5,9.1,17.1c-1.2,0.2-2,0.5-2.9,0.5
	c-8.3,0.1-16.6,0.1-24.9,0.2c-0.3,0-0.6-0.1-1.2-0.2c0.4-0.8,0.6-1.6,1-2.2c3.8-5.3,5.7-11.4,7.6-17.6c1.4-4.6,2.2-9.2,2.8-14
	c0.1-0.7,0.1-1.5,0-2.2c-0.2-0.8-0.8-1.1-1.8-0.9c-0.1,0.4-0.4,0.8-0.5,1.3c-0.3,3.9-2,7.2-4.4,10.1c-3.8,4.7-8.6,7.6-14.9,7.6
	c-4.1,0-7.7-1.5-10.8-4.1c-3.9-3.2-6.8-7.2-7.7-12.4c-0.7-4.3-0.5-8.6,0.4-12.9c1.5-7.2,4.5-13.8,8.5-19.9
	c3.9-5.9,8.2-11.7,12.4-17.4c4.7-6.5,9.7-12.9,13.8-19.8c1.9-3.1,3.3-6.4,4.9-9.6C41,2.7,41.4,1.6,42.1,0z"/>
</svg>
